<svg viewBox="0 0 136 183" xmlns="http://www.w3.org/2000/svg" fill-rule="evenodd" clip-rule="evenodd" stroke-linejoin="round" stroke-miterlimit="2"><path d="M68.27.956C31.06.956.77 31.226.77 68.446c0 11.56 6.28 27.84 15.11 44.65 12.8 24.34 30.8 49.98 40.84 63.64 2.73 3.74 6.96 5.84 11.55 5.84 4.59 0 8.82-2.1 11.55-5.86 10.03-13.64 28.02-39.28 40.82-63.62 8.84-16.81 15.11-33.09 15.11-44.65 0-37.22-30.28-67.49-67.48-67.49zm0 8.33c32.61 0 59.15 26.54 59.15 59.16 0 10.59-6.06 25.38-14.15 40.77-12.59 23.95-30.31 49.15-40.18 62.59-1.15 1.58-2.91 2.44-4.82 2.44-1.92 0-3.69-.87-4.83-2.43-9.88-13.45-27.59-38.65-40.18-62.6-8.09-15.39-14.15-30.18-14.15-40.77 0-32.62 26.54-59.16 59.16-59.16zm0 82.32c16.27 0 29.49-13.22 29.49-29.5 0-16.27-13.22-29.5-29.49-29.5-16.28 0-29.5 13.23-29.5 29.5 0 16.28 13.22 29.5 29.5 29.5zm0-8.34c-11.68 0-21.17-9.48-21.17-21.16 0-11.67 9.49-21.16 21.17-21.16 11.67 0 21.15 9.49 21.15 21.16 0 11.68-9.48 21.16-21.15 21.16z" fill="#595757"/></svg>