<svg viewBox="0 0 17 23" xmlns="http://www.w3.org/2000/svg" fill-rule="evenodd" clip-rule="evenodd" stroke-linejoin="round" stroke-miterlimit="2"><path d="M8.672.355c-4.465 0-8.1 3.633-8.1 8.099 0 1.387.754 3.34 1.814 5.358 1.536 2.92 3.696 5.998 4.9 7.637.328.449.836.7 1.386.7a1.69 1.69 0 001.386-.703c1.204-1.636 3.363-4.713 4.899-7.634 1.06-2.017 1.813-3.97 1.813-5.358 0-4.466-3.634-8.099-8.098-8.099zm0 1c3.914 0 7.098 3.185 7.098 7.099 0 1.27-.727 3.046-1.698 4.892-1.51 2.874-3.637 5.898-4.821 7.511a.705.705 0 01-.579.293.71.71 0 01-.58-.292c-1.185-1.614-3.31-4.638-4.82-7.512-.972-1.846-1.7-3.621-1.7-4.892 0-3.914 3.185-7.1 7.1-7.1zm0 9.878a3.542 3.542 0 003.54-3.54 3.542 3.542 0 00-3.54-3.54 3.543 3.543 0 00-3.54 3.54 3.542 3.542 0 003.54 3.54zm0-1a2.541 2.541 0 01-2.54-2.54c0-1.4 1.139-2.539 2.54-2.539a2.54 2.54 0 010 5.078z" fill="#595757"/></svg>