<svg viewBox="0 0 19 20" xmlns="http://www.w3.org/2000/svg" fill-rule="evenodd" clip-rule="evenodd" stroke-linejoin="round" stroke-miterlimit="2"><path d="M9.672 9.761h4.06a.58.58 0 010 1.16h-4.64a.577.577 0 01-.58-.58V4.54a.58.58 0 011.16 0v5.221zm5.75 5.75c1.532-1.531 2.317-3.436 2.371-5.724-.054-2.34-.839-4.246-2.371-5.777-1.531-1.531-3.436-2.316-5.724-2.371-2.34.055-4.245.84-5.777 2.371C2.39 5.541 1.605 7.447 1.55 9.734c.055 2.341.84 4.246 2.371 5.777 1.526 1.525 3.422 2.312 5.751 2.37 2.329-.058 4.225-.845 5.75-2.37m-5.75 3.53c-2.635-.06-4.825-.963-6.571-2.71-1.746-1.746-2.65-3.936-2.71-6.57.06-2.635.964-4.825 2.71-6.571C4.847 1.444 7.037.54 9.672.48c2.634.06 4.825.964 6.57 2.71 1.746 1.746 2.65 3.936 2.711 6.571-.061 2.634-.964 4.824-2.711 6.57-1.745 1.746-3.936 2.65-6.57 2.71" fill="#595757" fill-rule="nonzero"/></svg>