<svg viewBox="0 0 21 20" xmlns="http://www.w3.org/2000/svg" fill-rule="evenodd" clip-rule="evenodd" stroke-linejoin="round" stroke-miterlimit="2"><path d="M7.63 10.188a5.46 5.46 0 01-2.412-4.533A5.461 5.461 0 0110.672.193a5.462 5.462 0 015.456 5.462 5.46 5.46 0 01-2.411 4.533c3.8.411 6.735 3.334 6.735 6.838v.378c0 .952-.627 1.58-1.768 1.923-1.359.407-3.527.419-5.889.419H8.548c-2.46 0-4.61-.012-5.936-.42-1.118-.345-1.72-.966-1.72-1.922v-.378c0-3.505 2.936-6.428 6.737-6.838zm5.165.95c3.655 0 6.658 2.624 6.658 5.888v.378c0 .522-.432.777-1.057.965-1.292.388-3.356.376-5.6.376H8.547c-2.337 0-4.382.012-5.642-.376-.607-.186-1.015-.446-1.015-.965v-.378c0-3.264 3.001-5.888 6.657-5.888h4.247zm-2.123-9.946c2.46 0 4.456 2 4.456 4.463a4.461 4.461 0 01-4.456 4.463 4.46 4.46 0 01-4.454-4.463 4.46 4.46 0 014.454-4.463z" fill="#595757"/></svg>