<svg viewBox="0 0 156 156" xmlns="http://www.w3.org/2000/svg" fill-rule="evenodd" clip-rule="evenodd" stroke-linejoin="round" stroke-miterlimit="2"><path d="M78.266 77.671h33.833a4.837 4.837 0 014.833 4.834 4.837 4.837 0 01-4.833 4.833H73.432a4.84 4.84 0 01-4.833-4.833V34.163a4.837 4.837 0 014.833-4.833 4.837 4.837 0 014.834 4.833v43.508zm47.916 47.917c12.767-12.758 19.309-28.633 19.759-47.7-.45-19.5-6.992-35.383-19.759-48.142-12.758-12.758-28.633-19.3-47.7-19.758-19.5.458-35.375 7-48.141 19.758-12.759 12.759-19.3 28.642-19.759 47.7.459 19.509 7 35.384 19.759 48.142 12.716 12.708 28.516 19.267 47.925 19.75 19.408-.483 35.208-7.042 47.916-19.75m-47.916 29.417c-21.959-.5-40.209-8.025-54.759-22.584-14.55-14.55-22.083-32.8-22.583-54.75.5-21.958 8.033-40.208 22.583-54.758C38.057 8.363 56.307.83 78.266.33c21.95.5 40.208 8.033 54.75 22.583 14.55 14.55 22.083 32.8 22.591 54.758-.508 21.95-8.033 40.2-22.591 54.75-14.542 14.55-32.8 22.084-54.75 22.584" fill="#595757" fill-rule="nonzero"/></svg>