<svg viewBox="0 0 164 164" xmlns="http://www.w3.org/2000/svg" fill-rule="evenodd" clip-rule="evenodd" stroke-linejoin="round" stroke-miterlimit="2"><path d="M56.91 84.227c-12.12-8.18-20.09-22.05-20.09-37.77 0-25.12 20.37-45.52 45.45-45.52 25.09 0 45.46 20.4 45.46 45.52 0 15.72-7.97 29.59-20.09 37.77 31.67 3.43 56.13 27.79 56.13 56.99v3.15c0 7.93-5.23 13.16-14.74 16.02-11.32 3.39-29.39 3.49-49.07 3.49H64.57c-20.5 0-38.42-.1-49.47-3.5-9.32-2.87-14.34-8.05-14.34-16.01v-3.15c0-29.21 24.47-53.57 56.15-56.99zm43.05 7.92c30.46 0 55.48 21.87 55.48 49.07v3.15c0 4.35-3.6 6.47-8.81 8.04-10.76 3.23-27.96 3.13-46.67 3.13H64.57c-19.48 0-36.52.1-47.02-3.13-5.06-1.55-8.46-3.72-8.46-8.04v-3.15c0-27.2 25.01-49.07 55.48-49.07h35.39zM82.27 9.267c20.5 0 37.13 16.67 37.13 37.19 0 20.52-16.63 37.19-37.13 37.19-20.49 0-37.12-16.67-37.12-37.19 0-20.52 16.63-37.19 37.12-37.19z" fill="#595757"/></svg>