<?xml version="1.0" standalone="no"?><!DOCTYPE svg PUBLIC "-//W3C//DTD SVG 1.1//EN" "http://www.w3.org/Graphics/SVG/1.1/DTD/svg11.dtd"><svg class="icon" width="48px" height="32.00px" viewBox="0 0 1536 1024" version="1.1" xmlns="http://www.w3.org/2000/svg"><path d="M0 0h1536v1024H0z" fill="#E94B35" /><path d="M768 754.368l-74.56 132.416-18.208-150.848-119.52 93.76 40.896-146.304-146.336 40.896 93.792-119.52-150.848-18.24L525.632 512l-132.416-74.56 150.848-18.208-93.76-119.52 146.304 40.896-40.896-146.336L675.2 288.064l18.24-150.848L768 269.632l74.56-132.416 18.208 150.848 119.52-93.76-40.896 146.304 146.336-40.896-93.792 119.52 150.848 18.24L1010.368 512l132.416 74.56-150.848 18.208 93.76 119.52-146.304-40.896 40.896 146.336-119.52-93.792-18.24 150.848z" fill="#F2C500" /><path d="M768 512m-192 0a192 192 0 1 0 384 0 192 192 0 1 0-384 0Z" fill="#E94B35" /><path d="M768 512m-160 0a160 160 0 1 0 320 0 160 160 0 1 0-320 0Z" fill="#F2C500" /></svg>