<?xml version="1.0" encoding="UTF-8" standalone="no"?><!DOCTYPE svg PUBLIC "-//W3C//DTD SVG 1.1//EN" "http://www.w3.org/Graphics/SVG/1.1/DTD/svg11.dtd"><svg width="100%" height="100%" viewBox="0 0 75 65" version="1.1" xmlns="http://www.w3.org/2000/svg" xmlns:xlink="http://www.w3.org/1999/xlink" xml:space="preserve" xmlns:serif="http://www.serif.com/" style="fill-rule:evenodd;clip-rule:evenodd;stroke-linejoin:round;stroke-miterlimit:2;"><path d="M52.278,61.778c-5.291,0 -10.088,-2.148 -13.568,-5.618c2.946,-3.663 4.731,-8.294 4.794,-13.335c8.116,-2.541 14.199,-9.719 15.138,-18.416c7.484,2.633 12.864,9.768 12.864,18.141c-0,10.602 -8.625,19.228 -19.228,19.228m-49.75,-19.228c-0,-8.373 5.381,-15.508 12.864,-18.141c0.939,8.697 7.022,15.875 15.138,18.416c0.063,5.041 1.849,9.672 4.795,13.335c-3.48,3.47 -8.278,5.618 -13.569,5.618c-10.602,0 -19.228,-8.626 -19.228,-19.228m34.489,-39.719c10.302,0 18.734,8.143 19.205,18.33c-1.28,-0.236 -2.597,-0.365 -3.944,-0.365c-5.941,0 -11.331,2.396 -15.261,6.269c-3.93,-3.873 -9.32,-6.269 -15.261,-6.269c-1.347,0 -2.664,0.129 -3.944,0.365c0.471,-10.187 8.904,-18.33 19.205,-18.33m-19.152,20.887c1.257,-0.259 2.559,-0.396 3.891,-0.396c5.291,0 10.089,2.148 13.569,5.618c-2.537,3.153 -4.215,7.026 -4.672,11.259c-6.983,-2.457 -12.13,-8.836 -12.788,-16.481m19.152,30.51c-2.315,-3.018 -3.758,-6.737 -3.945,-10.78c1.281,0.235 2.598,0.365 3.945,0.365c1.347,0 2.664,-0.13 3.945,-0.365c-0.187,4.043 -1.63,7.762 -3.945,10.78m6.365,-14.029c-0.458,-4.233 -2.135,-8.106 -4.672,-11.259c3.48,-3.47 8.277,-5.618 13.568,-5.618c1.333,0 2.634,0.137 3.891,0.396c-0.657,7.645 -5.804,14.024 -12.787,16.481m15.382,-18.415c-0.148,-11.869 -9.844,-21.48 -21.747,-21.48c-11.903,0 -21.599,9.611 -21.747,21.48c-8.837,2.766 -15.268,11.029 -15.268,20.766c-0,11.995 9.759,21.754 21.754,21.754c5.941,0 11.331,-2.396 15.261,-6.269c3.93,3.873 9.32,6.269 15.261,6.269c11.996,0 21.754,-9.759 21.754,-21.754c-0,-9.737 -6.43,-18 -15.268,-20.766" style="fill:#f9be00;fill-rule:nonzero;"/></svg>