<?xml version="1.0" encoding="UTF-8" standalone="no"?>
<!DOCTYPE svg PUBLIC "-//W3C//DTD SVG 1.1//EN" "http://www.w3.org/Graphics/SVG/1.1/DTD/svg11.dtd">
<svg width="100%" height="100%" viewBox="0 0 58 58" version="1.1" xmlns="http://www.w3.org/2000/svg" xmlns:xlink="http://www.w3.org/1999/xlink" xml:space="preserve" xmlns:serif="http://www.serif.com/" style="fill-rule:evenodd;clip-rule:evenodd;stroke-linejoin:round;stroke-miterlimit:2;">
    <g transform="matrix(1,0,0,1,-9,-10)">
        <g transform="matrix(1,0,0,1,0.0227586,0.043502)">
            <path d="M8.978,21.56L8.977,21.635L8.977,21.711L8.977,55.34C8.977,61.827 14.244,67.094 20.732,67.094C20.732,67.094 54.361,67.094 54.361,67.094C60.848,67.094 66.115,61.827 66.115,55.34C66.115,55.34 66.115,21.711 66.115,21.711C66.115,15.223 60.848,9.956 54.361,9.956L20.732,9.956C14.295,9.956 9.059,15.142 8.978,21.56ZM53.77,54.763C51.692,56.376 49.505,57.915 46.88,57.927C44.577,57.937 43.076,56.743 41.571,55.206C39.752,53.347 37.897,50.925 33.58,50.721C30.665,50.583 28.927,51.803 27.202,53.066C25.167,54.556 23.146,56.099 19.83,56.299C18.333,56.389 16.829,55.892 15.371,55.04C14.206,54.36 13.065,53.45 11.977,52.485L11.977,55.34C11.977,60.171 15.9,64.094 20.732,64.094L54.361,64.094C59.192,64.094 63.115,60.171 63.115,55.34L63.115,54.642C62.843,54.217 62.478,53.719 62.024,53.258C61.363,52.588 60.508,51.98 59.447,51.903C57.444,51.758 55.781,53.193 54.013,54.574C53.942,54.629 53.871,54.684 53.801,54.739C53.79,54.748 53.78,54.756 53.77,54.763ZM24.907,26.739L24.907,33.965C29.207,34.302 33.416,36.105 36.163,39.651C38.18,42.256 39.424,45.81 39.294,50.455C40.347,51.142 41.209,51.96 42.002,52.772C42.667,53.455 43.278,54.131 43.928,54.694C44.752,55.408 45.64,55.932 46.871,55.927C48.879,55.917 50.536,54.746 52.131,53.506C50.811,39.127 41.863,27.392 24.907,26.739ZM24.647,35.951C23.916,38.296 21.727,40 19.144,40L11.977,40L11.977,49.77C13.351,51.072 14.838,52.413 16.38,53.313C17.473,53.952 18.588,54.37 19.71,54.302C22.562,54.131 24.27,52.734 26.021,51.452C28.083,49.943 30.189,48.559 33.675,48.723C35.083,48.79 36.272,49.05 37.3,49.439C37.237,45.815 36.216,42.986 34.582,40.876C32.165,37.756 28.435,36.223 24.647,35.951ZM63.115,51.534L63.115,21.711C63.115,16.879 59.192,12.956 54.361,12.956C54.361,12.956 20.732,12.956 20.732,12.956C16.504,12.956 12.972,15.96 12.155,19.947L19.144,19.947C21.992,19.947 24.36,22.018 24.824,24.734C42.571,25.335 52.181,37.231 53.99,52.078C55.771,50.775 57.575,49.762 59.592,49.908C60.994,50.01 62.18,50.685 63.115,51.534ZM11.977,22.947L19.144,22.947C20.669,22.947 21.907,24.186 21.907,25.711L21.907,34.237C21.907,35.762 20.669,37 19.144,37C19.144,37 11.977,37 11.977,37L11.977,22.947Z" style="fill:rgb(229,94,3);"/>
        </g>
    </g>
</svg>
