<?xml version="1.0" encoding="UTF-8" standalone="no"?><!DOCTYPE svg PUBLIC "-//W3C//DTD SVG 1.1//EN" "http://www.w3.org/Graphics/SVG/1.1/DTD/svg11.dtd"><svg width="100%" height="100%" viewBox="0 0 66 65" version="1.1" xmlns="http://www.w3.org/2000/svg" xmlns:xlink="http://www.w3.org/1999/xlink" xml:space="preserve" xmlns:serif="http://www.serif.com/" style="fill-rule:evenodd;clip-rule:evenodd;stroke-linejoin:round;stroke-miterlimit:2;"><path d="M41.178,53.747l-2.24,-13.841l16.51,4.144c-0.011,0.136 -0.021,0.272 -0.021,0.41c0,0.748 0.157,1.458 0.438,2.103l-11.137,8.726c-0.915,-0.916 -2.165,-1.492 -3.55,-1.542m-30.616,-6.101l14.711,-7.895c0.969,1.129 2.404,1.848 4.008,1.848c2.071,0 3.859,-1.195 4.726,-2.931l2.54,0.638l2.402,14.84c-1.292,0.541 -2.32,1.58 -2.851,2.876l-25.351,-7.549c0.009,-0.128 0.019,-0.256 0.019,-0.386c0,-0.5 -0.074,-0.982 -0.204,-1.441m19.951,-37.096c0.036,0.013 0.07,0.027 0.105,0.038l-1.97,20.485c-2.619,0.313 -4.65,2.539 -4.65,5.242c0,0.5 0.074,0.982 0.204,1.441l-14.711,7.895c-0.108,-0.127 -0.222,-0.248 -0.342,-0.363l21.364,-34.738Zm3.669,-0.025c0.076,-0.028 0.151,-0.054 0.225,-0.086l22.438,30.429c-0.285,0.306 -0.536,0.644 -0.742,1.011l-17.559,-4.406l-4.362,-26.948Zm-3.28,20.762l1.62,-16.846l3.631,22.431l-1.596,-0.4c0.001,-0.053 0.008,-0.104 0.008,-0.157c0,-2.352 -1.538,-4.343 -3.663,-5.028m29.809,7.89c-0.711,0 -1.388,0.143 -2.007,0.397l-22.463,-30.462c0.841,-0.935 1.356,-2.168 1.356,-3.524c0,-2.918 -2.366,-5.283 -5.284,-5.283c-2.918,0 -5.283,2.365 -5.283,5.283c0,1.469 0.6,2.797 1.568,3.755l-21.378,34.759c-0.544,-0.19 -1.127,-0.298 -1.737,-0.298c-2.918,0 -5.284,2.365 -5.284,5.283c0,2.918 2.366,5.284 5.284,5.284c1.99,0 3.721,-1.102 4.622,-2.727l25.612,7.626c0.131,2.802 2.437,5.035 5.271,5.035c2.918,0 5.283,-2.366 5.283,-5.284c0,-0.637 -0.118,-1.244 -0.324,-1.81l11.248,-8.814c0.935,0.835 2.164,1.347 3.516,1.347c2.918,0 5.283,-2.366 5.283,-5.284c0,-2.918 -2.365,-5.283 -5.283,-5.283" style="fill:#00a23e;fill-rule:nonzero;"/></svg>