<?xml version="1.0" encoding="UTF-8" standalone="no"?><!DOCTYPE svg PUBLIC "-//W3C//DTD SVG 1.1//EN" "http://www.w3.org/Graphics/SVG/1.1/DTD/svg11.dtd"><svg width="100%" height="100%" viewBox="0 0 58 65" version="1.1" xmlns="http://www.w3.org/2000/svg" xmlns:xlink="http://www.w3.org/1999/xlink" xml:space="preserve" xmlns:serif="http://www.serif.com/" style="fill-rule:evenodd;clip-rule:evenodd;stroke-linejoin:round;stroke-miterlimit:2;"><path d="M28.549,36.544c-0.609,0 -1.103,0.494 -1.103,1.103l0,21.715c0,2.471 -3.908,2.737 -5.587,2.737c-2.652,0 -4.46,-1.134 -4.678,-2.231c-0.267,-1.344 -0.078,-4.209 0.016,-5.199c0.059,-0.607 -0.386,-1.145 -0.992,-1.203c-0.599,-0.056 -1.144,0.385 -1.203,0.992c-0.015,0.158 -0.368,3.902 0.016,5.838c0.468,2.36 3.281,4.008 6.841,4.008c4.952,0 7.793,-1.801 7.793,-4.942l0,-21.715c0,-0.609 -0.494,-1.103 -1.103,-1.103Zm29.173,1.35c0.042,-0.181 0.037,-0.372 -0.017,-0.555c-0.034,-0.62 -0.085,-1.24 -0.159,-1.853c-1.74,-14.444 -14.039,-25.336 -28.609,-25.336c-15.326,-0 -27.904,11.912 -28.765,27.168c-0.056,0.179 -0.061,0.363 -0.026,0.541c-0.014,0.368 -0.025,0.736 -0.025,1.108c0,0.609 0.493,1.103 1.102,1.103c0.609,-0 1.103,-0.494 1.103,-1.103c0,-0.358 0.01,0.229 0.024,-0.125c0.667,-1.111 3.428,-5.307 7.158,-5.489c2.617,-0.141 5.281,1.77 7.929,5.637c-0.022,0.642 -0.038,0.344 -0.038,0.986c0,0.609 0.494,1.102 1.103,1.102c0.609,-0 1.102,-0.493 1.102,-1.102c0,-0.681 0.015,0.18 0.041,-0.503c0.82,-1.159 4.041,-5.293 8.414,-5.514c3.125,-0.167 6.289,1.72 9.395,5.574c0.025,0.662 0.04,-0.219 0.04,0.443c0,0.609 0.493,1.102 1.102,1.102c0.609,-0 1.103,-0.493 1.103,-1.102c0,-0.653 -0.016,-0.714 -0.039,-1.365c0.559,-0.909 3.525,-5.41 7.579,-5.607c2.744,-0.132 5.524,1.739 8.28,5.553c0.013,0.334 0.03,0.077 0.03,0.41c0,0.609 0.493,1.103 1.103,1.103c0.609,-0 1.102,-0.494 1.102,-1.103c0,-0.357 -0.019,-0.715 -0.032,-1.073Zm-29.789,-6.137c-3.444,0.18 -6.2,2.184 -8.004,3.979c0.971,-8.638 4.111,-17.811 8.619,-22.523c4.537,4.747 7.7,14.046 8.643,22.734c-2.983,-2.944 -6.087,-4.355 -9.258,-4.19Zm-18.533,-0.607c-2.728,0.134 -4.959,1.764 -6.536,3.409c2.298,-11.332 11.735,-20.892 23.355,-22.066c-4.567,5.239 -7.679,14.209 -8.555,23.146c-2.64,-3.121 -5.407,-4.634 -8.264,-4.489Zm37.721,-0.348c-3.408,0.17 -6.066,2.5 -7.694,4.407c-0.889,-8.907 -4.035,-17.561 -8.616,-22.781c12.029,0.842 22.026,10.31 24.265,22.145c-2.559,-2.641 -5.225,-3.909 -7.955,-3.771Zm-40.739,-15.665c0.609,0 1.103,-0.494 1.103,-1.103l-0,-5.034c-0,-0.609 -0.494,-1.102 -1.103,-1.102c-0.609,0 -1.103,0.493 -1.103,1.102l-0,5.034c-0,0.609 0.494,1.103 1.103,1.103Zm45.111,0c0.609,0 1.103,-0.494 1.103,-1.103l-0,-5.034c-0,-0.609 -0.494,-1.102 -1.103,-1.102c-0.609,0 -1.103,0.493 -1.103,1.102l-0,5.034c-0,0.609 0.494,1.103 1.103,1.103Zm-33.834,-6.509c0.609,0 1.103,-0.494 1.103,-1.103l0,-5.034c0,-0.609 -0.494,-1.102 -1.103,-1.102c-0.609,0 -1.102,0.493 -1.102,1.102l0,5.034c0,0.609 0.493,1.103 1.102,1.103Zm22.556,0c0.609,0 1.103,-0.494 1.103,-1.103l-0,-5.034c-0,-0.609 -0.494,-1.102 -1.103,-1.102c-0.609,0 -1.103,0.493 -1.103,1.102l-0,5.034c-0,0.609 0.494,1.103 1.103,1.103Zm-11.278,-1.085c0.609,0 1.103,-0.494 1.103,-1.103l-0,-5.033c-0,-0.61 -0.494,-1.103 -1.103,-1.103c-0.609,0 -1.103,0.493 -1.103,1.103l-0,5.033c-0,0.609 0.494,1.103 1.103,1.103Z" style="fill:#e55e03;fill-rule:nonzero;"/></svg>