<svg viewBox="0 0 197 180" xmlns="http://www.w3.org/2000/svg" fill-rule="evenodd" clip-rule="evenodd" stroke-linejoin="round" stroke-miterlimit="2"><g transform="translate(-1838 -2334)"><clipPath id="_clip1"><path d="M1838.18 2334.55h195.971v178.975H1838.18z"/></clipPath><g clip-path="url(#_clip1)"><path d="M2028.67 2369.27h-29.69v-22.11h13.44c3.36 0 5.61-2.52 5.61-6.31 0-3.79-2.25-6.32-5.61-6.32h-151.85c-3.37 0-5.61 2.53-5.61 6.32 0 3.79 2.24 6.31 5.61 6.31h13.45v22.11h-29.7c-3.37 0-6.17 3.16-6.17 6.95 2.25 37.89 12.89 57.46 42.59 65.68 9.53 21.47 29.14 36.63 51.55 38.52v13.26h-3.92c-3.36 0-5.6 2.53-5.6 6.32v1.26h-19.62l-6.16 10.74v.63c0 .63 0 .63.56.63h77.89s.56-.63 0-.63l-6.16-10.11h-17.38v-1.26c0-3.79-2.24-6.32-5.6-6.32h-3.92v-14.52c21.29-2.53 39.78-17.68 48.75-37.89 29.7-8.21 40.34-27.79 42.58-65.68 1.12-4.42-1.68-7.58-5.04-7.58zm-40.9 41.05c0 32.21-22.98 57.47-50.99 57.47-28.02 0-51.56-25.26-51.56-57.47v-63.16h102.55v63.16zm8.96 17.05a88.065 88.065 0 001.68-17.05v-28.42h24.66c-2.24 25.26-8.97 38.52-26.34 45.47zm-147.37-45.47h24.66v28.42c0 5.68.56 11.36 1.68 17.05-17.37-6.95-24.1-20.21-26.34-45.47z" fill="#270900"/></g></g></svg>