<svg viewBox="0 0 196 180" xmlns="http://www.w3.org/2000/svg" fill-rule="evenodd" clip-rule="evenodd" stroke-linejoin="round" stroke-miterlimit="2"><path d="M190.6 35.36h-29.69v-22.1h13.44c3.36 0 5.61-2.53 5.61-6.32 0-3.78-2.25-6.31-5.61-6.31H22.5c-3.37 0-5.61 2.53-5.61 6.31 0 3.79 2.24 6.32 5.61 6.32h13.45v22.1H6.25c-3.37 0-6.17 3.16-6.17 6.95 2.25 37.89 12.89 57.47 42.59 65.68 9.53 21.47 29.14 36.63 51.55 38.52v13.26H90.3c-3.36 0-5.6 2.53-5.6 6.32v1.26H65.08l-6.16 10.74v.63c0 .63 0 .63.56.63h77.89s.56-.63 0-.63l-6.16-10.11h-17.38v-1.26c0-3.78-2.24-6.31-5.6-6.31h-3.92v-14.53c21.29-2.53 39.78-17.68 48.75-37.89 29.7-8.21 40.34-27.79 42.58-65.68 1.12-4.42-1.68-7.58-5.04-7.58zm-40.9 41.06c0 32.2-22.98 57.46-50.99 57.46-28.02 0-51.56-25.26-51.56-57.46V13.26H149.7v63.16zm8.96 17.04a87.887 87.887 0 001.68-17.04V47.99H185c-2.24 25.26-8.97 38.53-26.34 45.47zM11.29 47.99h24.66v28.43c0 5.68.56 11.36 1.68 17.04-17.37-6.94-24.1-20.21-26.34-45.47z"/></svg>