<svg xmlns="http://www.w3.org/2000/svg" width="291.037" height="313.8" viewBox="0 0 291.037 313.8"><g transform="translate(-1385.559 -1202.462)"><path d="M1531.092,1370.741l-.51,141.51a141.533,141.533,0,0,1-121.74-212.75.074.074,0,0,0,.021-.04Z" fill="#f9be00"/><path d="M1531.092,1370.741l-.51,141.51a141.533,141.533,0,0,1-121.74-212.75.074.074,0,0,0,.021-.04Z" fill="none" stroke="#fff" stroke-miterlimit="10" stroke-width="8"/><path d="M1653.922,1300.5l-122.83,70.241-122.23-71.28a141.517,141.517,0,0,1,245.06,1.039" fill="#00a23e"/><path d="M1653.922,1300.5l-122.83,70.241-122.23-71.28a141.517,141.517,0,0,1,245.06,1.039Z" fill="none" stroke="#fff" stroke-miterlimit="10" stroke-width="8"/><path d="M1653.332,1441.981a141.423,141.423,0,0,1-122.75,70.27l.51-141.509,122.83-70.241a141.4,141.4,0,0,1-.59,141.48" fill="#e55e03"/><path d="M1653.332,1441.981a141.423,141.423,0,0,1-122.75,70.27l.51-141.509,122.83-70.241A141.4,141.4,0,0,1,1653.332,1441.981Z" fill="none" stroke="#fff" stroke-miterlimit="10" stroke-width="8"/><line y1="1.24" transform="translate(1530.582 1512.252)" fill="none" stroke="#fff" stroke-miterlimit="10" stroke-width="8"/><line x1="1.17" y2="0.67" transform="translate(1653.922 1299.832)" fill="none" stroke="#fff" stroke-miterlimit="10" stroke-width="8"/><path d="M1569.374,1371.048a38.765,38.765,0,1,1-38.765-38.764,38.764,38.764,0,0,1,38.765,38.764" fill="#a1ce57"/><path d="M1569.374,1371.048a38.765,38.765,0,1,1-38.765-38.764A38.764,38.764,0,0,1,1569.374,1371.048Z" fill="none" stroke="#fff" stroke-miterlimit="10" stroke-width="8"/><path d="M1516.862,1363.88a11.813,11.813,0,0,1,0,14.364,9.961,9.961,0,0,1-13.958-.027,11.836,11.836,0,0,1,0-14.309,8.7,8.7,0,0,1,6.978-2.9,8.846,8.846,0,0,1,6.98,2.867m-11.632,1.948a9.52,9.52,0,0,0,0,10.468,6.467,6.467,0,0,0,9.278.081,8.051,8.051,0,0,0,1.6-5.3,8.263,8.263,0,0,0-1.6-5.356,6.437,6.437,0,0,0-9.278.108" fill="#fff"/><path d="M1525.537,1361.392l6.573,15.147h.109l6.546-15.147h3.706v19.313h-3.165V1367.4h-.109l-5.681,13.308h-2.731L1525.1,1367.4H1525v13.308h-3.164v-19.313Z" fill="#fff"/><path d="M1557.963,1362.419a6.2,6.2,0,0,1,2.327,4.681h-3.139a4.21,4.21,0,0,0-1.487-2.57,5.244,5.244,0,0,0-3.192-.784,5.953,5.953,0,0,0-2.786.513,2.062,2.062,0,0,0-1.19,2,2.191,2.191,0,0,0,1.353,1.974,26.893,26.893,0,0,0,3.3,1.191,30.248,30.248,0,0,1,5.057,1.893,4.63,4.63,0,0,1,2.517,4.166,4.851,4.851,0,0,1-2.03,4.112,11.871,11.871,0,0,1-11.306.108,6.587,6.587,0,0,1-2.651-5.383h3.137a4.541,4.541,0,0,0,1.569,3.137,6.063,6.063,0,0,0,3.517.839,6.878,6.878,0,0,0,3.355-.7,2.192,2.192,0,0,0,1.243-1.921,2.739,2.739,0,0,0-1.812-2.434,36.65,36.65,0,0,0-3.76-1.272,31.843,31.843,0,0,1-4.436-1.622,4.272,4.272,0,0,1-2.218-3.9,4.581,4.581,0,0,1,2.164-4.031,10.442,10.442,0,0,1,10.468,0" fill="#fff"/><text transform="translate(1476.357 1294.833)" fill="#fff" font-size="16" font-family="PingFangSC-Regular, PingFang SC"><tspan x="0" y="0" letter-spacing="0.075em">四</tspan><tspan y="0" letter-spacing="0.074em">大</tspan><tspan y="0" letter-spacing="0.075em">技术</tspan><tspan y="0" letter-spacing="0.074em">体</tspan><tspan y="0">系</tspan></text><text transform="translate(1411.367 1418.542)" fill="#fff" font-size="16" font-family="PingFangSC-Regular, PingFang SC"><tspan x="0" y="0" letter-spacing="0.075em">五</tspan><tspan y="0" letter-spacing="0.074em">大</tspan><tspan y="0" letter-spacing="0.075em">数据</tspan><tspan y="0">库</tspan></text><text transform="translate(1569.112 1415.537)" fill="#fff" font-size="16" font-family="PingFangSC-Regular, PingFang SC"><tspan x="0" y="0" letter-spacing="0.075em">六</tspan><tspan y="0" letter-spacing="0.074em">大</tspan><tspan y="0" letter-spacing="0.075em">应</tspan><tspan y="0">用</tspan></text><text transform="translate(1569.112 1443.75)" fill="#fff" font-size="16" font-family="PingFangSC-Regular, PingFang SC"><tspan x="0" y="0" letter-spacing="0.075em">评</tspan><tspan y="0" letter-spacing="0.074em">估</tspan><tspan y="0" letter-spacing="0.075em">体</tspan><tspan y="0">系</tspan></text><line x1="1.061" y1="0.62" transform="translate(1656.769 1205.917)" fill="none" stroke="#fff" stroke-miterlimit="10" stroke-width="8"/></g></svg>