<svg viewBox="0 0 199 199" xmlns="http://www.w3.org/2000/svg" fill-rule="evenodd" clip-rule="evenodd" stroke-linejoin="round" stroke-miterlimit="2"><path d="M140.741 174.132c-12.57 6.94-26.71 10.64-41.41 10.64-47.34 0-85.72-38.39-85.72-85.73 0-47.35 38.38-85.73 85.72-85.73 47.35 0 85.74 38.38 85.74 85.73 0 15.8-4.28 30.95-12.25 44.18-1.9 3.15-.89 7.24 2.26 9.13 3.15 1.9 7.24.89 9.13-2.26 9.22-15.29 14.16-32.81 14.16-51.05 0-54.7-44.34-99.04-99.04-99.04-54.69 0-99.03 44.34-99.03 99.04 0 54.69 44.34 99.04 99.03 99.04 16.96 0 33.32-4.28 47.84-12.3a6.659 6.659 0 002.61-9.05c-1.78-3.21-5.83-4.38-9.04-2.6zm29.08-10.44a5.83 5.83 0 01-5.83 5.83c-3.21 0-5.82-2.61-5.82-5.83a5.82 5.82 0 015.82-5.82c3.22 0 5.83 2.6 5.83 5.82zm-63.83-65.07l41.27 38.94c2.67 2.52 2.8 6.73.28 9.4-2.52 2.67-6.74 2.8-9.41.28l-43.36-40.91a6.674 6.674 0 01-2.09-4.84v-49.03c0-3.68 2.98-6.66 6.65-6.66 3.68 0 6.66 2.98 6.66 6.66v46.16z" fill="#f2a44d" fill-rule="nonzero"/></svg>