<?xml version="1.0" encoding="UTF-8" standalone="no"?>
<!DOCTYPE svg PUBLIC "-//W3C//DTD SVG 1.1//EN" "http://www.w3.org/Graphics/SVG/1.1/DTD/svg11.dtd">
<svg width="100%" height="100%" viewBox="0 0 79 69" version="1.1" xmlns="http://www.w3.org/2000/svg" xmlns:xlink="http://www.w3.org/1999/xlink" xml:space="preserve" xmlns:serif="http://www.serif.com/" style="fill-rule:evenodd;clip-rule:evenodd;stroke-linejoin:round;stroke-miterlimit:2;">
    <g transform="matrix(1,0,0,1,-425,-131)">
        <path d="M492.634,196.679C491.227,195.102 490.485,192.659 490.825,190.649C491.088,189.103 491.876,187.542 492.989,186.429C494.875,184.45 498.045,183.832 500.58,184.388L503.069,185.192L503.595,187.79C502.157,187.078 500.549,186.63 499.034,186.599C497.163,186.785 495.37,187.759 494.551,189.212C493.639,190.912 493.592,192.752 494.551,194.499C495.293,195.751 496.561,196.71 498.168,197.019C499.854,197.251 501.894,197.065 503.425,196.215L503.038,198.766C501.987,199.214 500.518,199.415 499.359,199.508C496.885,199.554 494.288,198.658 492.634,196.679ZM484.565,199.261C481.983,199.446 478.875,198.766 477.097,196.555C475.613,194.654 475.01,192.18 475.644,189.954C475.984,188.748 476.587,187.527 477.453,186.63C479.741,184.187 482.941,183.863 486.203,184.311L489.249,184.93L489.233,187.697L486.806,186.955C484.24,186.506 481.89,186.707 480.251,188.114C480.143,188.176 480.097,188.3 479.973,188.393C478.891,189.521 478.242,191.469 478.736,193.061C479.107,194.762 480.328,195.875 481.828,196.586C483.374,197.143 484.936,196.895 486.481,196.323L486.528,193.03L484.101,193.015L484.039,190.727L489.712,190.665L489.743,197.885C488.058,198.843 486.404,199.168 484.673,199.261L484.565,199.261ZM464.596,198.905L464.612,184.419L475.232,184.466L475.279,187.14L468.183,187.125L468.168,190.34L474.197,190.371L474.228,192.876L468.152,192.799L468.152,196.308L475.232,196.308L475.263,198.89L464.596,198.905ZM437.501,198.874L432.338,198.905L432.338,184.388L437.934,184.419C440.238,184.419 442.588,184.852 444.35,186.367C445.2,187.125 445.927,188.253 446.298,189.521C446.855,191.531 446.669,193.757 445.401,195.658C444.427,197.22 442.263,198.565 440.207,198.781L437.501,198.874ZM460.392,198.843L460.407,188.3L456.573,198.843L454.007,198.843L450.204,187.851L450.188,198.843L447.499,198.843L447.499,184.404L451.92,184.388L455.275,194.53L458.954,184.45L463.391,184.45L463.391,198.843C462.417,198.859 461.381,198.828 460.392,198.843ZM437.471,196.462L435.585,196.431L435.631,187.063C437.764,187.017 440.609,186.707 441.969,188.315C442.974,189.428 443.392,190.99 443.16,192.366C442.99,193.68 442.155,194.885 441.119,195.612C439.991,196.416 438.676,196.478 437.471,196.462ZM425.936,144.584L455.878,144.66L461.48,134.908C462.624,132.917 465.232,131.396 467.91,131.392C470.588,131.389 473.131,133.023 474.273,135.003L478.39,142.148L469.787,142.159C467.929,142.052 464.627,142.829 462.019,144.613L483.434,144.655C498.005,144.683 501.994,149.907 503.287,154.631C503.859,156.721 503.495,159.02 502.178,160.846C500.821,162.728 498.874,164.462 495.109,164.463L457.884,164.471C462.098,171.243 473.122,174.486 481.006,166.221L492.417,166.215C493.464,168.613 493.146,171.351 491.98,173.221C490.643,175.366 488.187,176.816 485.582,176.847L450.141,176.847C447.463,176.847 444.821,175.14 443.516,172.689C442.378,170.552 442.46,167.786 443.877,165.221L444.294,164.465L440.622,164.393L444.415,164.286L445.678,162.145L438.761,161.921L445.881,161.759L447.055,159.741L436.928,159.444L447.355,159.231L448.43,157.368L435.103,156.968L448.825,156.704L449.841,154.954L433.225,154.493L450.342,154.157L451.23,152.574L431.676,152.038L451.757,151.66L452.607,150.204L429.524,149.547L453.215,149.151L453.97,147.823L427.707,147.061L454.67,146.626L455.354,145.458L425.936,144.584ZM457.556,163.968L483.031,163.294L456.799,162.487C457.031,162.995 457.271,163.479 457.556,163.968ZM456.405,161.5L484.046,160.859L455.976,160.022C456.1,160.488 456.233,161.038 456.405,161.5ZM455.594,157.583L484.528,158.428L455.77,159.048C455.685,158.572 455.669,158.171 455.594,157.583ZM455.58,156.552C455.569,156.124 455.615,155.585 455.645,155.137L484.552,155.986L455.58,156.552ZM455.797,154.047C455.888,153.656 456,153.103 456.121,152.725L484.301,153.504L455.797,154.047ZM456.496,151.571L483.467,151.077L457.042,150.346C456.865,150.642 456.621,151.23 456.496,151.571ZM457.715,149.064L482.18,148.642L458.479,147.963C458.274,148.253 457.935,148.746 457.715,149.064ZM459.702,146.551L480.222,146.235L460.679,145.605C460.478,145.784 459.891,146.358 459.702,146.551Z" style="fill:rgb(230,0,19);"/>
    </g>
</svg>
