<?xml version="1.0" encoding="UTF-8" standalone="no"?><!DOCTYPE svg PUBLIC "-//W3C//DTD SVG 1.1//EN" "http://www.w3.org/Graphics/SVG/1.1/DTD/svg11.dtd"><svg width="100%" height="100%" viewBox="0 0 207 110" version="1.1" xmlns="http://www.w3.org/2000/svg" xmlns:xlink="http://www.w3.org/1999/xlink" xml:space="preserve" xmlns:serif="http://www.serif.com/" style="fill-rule:evenodd;clip-rule:evenodd;stroke-linejoin:round;stroke-miterlimit:2;"><g><path d="M74.924,0.184c0.179,0.004 0.415,0.025 0.619,0.062c3.191,0.582 9.493,5.028 15.799,11.337c7.795,7.795 12.884,15.723 11.004,17.604c-1.199,1.197 -4.174,-0.45 -9.02,-3.625c-5.281,-3.219 -11.82,-5.242 -18.401,-5.204c-6.579,-0.038 -13.061,1.993 -18.339,5.214c-4.923,3.165 -7.901,4.794 -9.099,3.596c-1.88,-1.881 3.229,-9.79 11.025,-17.585c6.306,-6.309 12.609,-10.755 15.798,-11.337c0.202,-0.037 0.436,-0.058 0.614,-0.062Z" style="fill:#005a23;fill-rule:nonzero;"/><path d="M54.3,9.599c0.179,0.007 0.417,0.027 0.621,0.063c3.188,0.585 9.491,5.029 15.796,11.336c7.797,7.795 12.887,15.725 11.005,17.605c-1.199,1.2 -4.172,-0.448 -9.021,-3.622c-5.279,-3.221 -11.82,-5.242 -18.398,-5.205c-6.58,-0.037 -13.063,1.993 -18.342,5.213c-4.919,3.166 -7.897,4.794 -9.097,3.595c-1.88,-1.879 3.229,-9.791 11.025,-17.586c6.306,-6.307 12.607,-10.751 15.798,-11.336c0.203,-0.036 0.436,-0.056 0.613,-0.063Z" style="fill:#c1d82e;fill-rule:nonzero;"/><path d="M55.734,59.857l-0,14.076c-0,1.933 1.566,3.499 3.539,3.499l7.503,0c1.914,-0.02 3.462,-1.579 3.462,-3.499l-0.001,-0.057l-0,-17.519l-11.004,-0c-1.933,-0 -3.499,1.567 -3.499,3.5Zm-6.308,41.101c0,-1.933 1.568,-3.499 3.498,-3.499l13.786,-0c1.298,-0 2.409,-0.677 3.024,-1.688c0.168,-0.268 0.293,-0.558 0.376,-0.869c0.083,-0.3 0.128,-0.616 0.128,-0.941l-0.001,-5.061l-11.244,-0c-2.177,-0 -4.227,-0.3 -6.09,-1.011c-1.94,-0.741 -3.677,-1.969 -5.235,-3.586c-1.494,-1.541 -2.634,-3.235 -3.315,-5.096c-0.657,-1.8 -0.945,-3.783 -0.924,-5.899l-0,-13.423c-0,-2.155 0.27,-4.157 0.938,-5.975c0.693,-1.884 1.892,-3.638 3.43,-5.22c1.576,-1.536 3.316,-2.741 5.179,-3.464c1.836,-0.711 3.854,-1.004 6.041,-1.004l17.042,-0c1.694,-0 3.208,0.556 4.344,1.784c1.195,1.158 1.657,2.645 1.657,4.318l-0.004,44.46c-0,8.159 -6.598,14.773 -14.753,14.785c-0.719,0 -14.285,-0.006 -14.33,-0.015l-0.049,0c-1.92,0 -3.477,-1.546 -3.498,-3.462l0,-5.134Z" style="fill:#01170c;fill-rule:nonzero;"/><path d="M26.656,59.746c-0,-0.232 -0.021,-0.471 -0.101,-0.73c-0.377,-1.525 -1.754,-2.659 -3.397,-2.659l-7.404,-0c-0.644,-0 -1.247,0.175 -1.764,0.48c-0.259,0.135 -0.508,0.308 -0.732,0.53c-1.073,1.073 -1.002,2.36 -1.002,2.36l-0,25.335l-0.003,0.38c-0,1.816 -1.406,3.3 -3.202,3.384l-5.55,0c-1.869,0 -3.353,-1.516 -3.353,-3.384l-0.002,-0.466l0,-53.893c0,-1.868 1.486,-3.381 3.355,-3.381l5.547,-0c1.796,0.082 3.208,1.566 3.208,3.381l-0,13.137l11.515,-0c8.233,-0 14.904,6.669 14.914,14.896c0.013,0.362 0.018,26.304 0.008,26.34c-0.007,1.808 -1.412,3.286 -3.203,3.37l-5.479,0c-1.869,0 -3.355,-1.516 -3.355,-3.384l-0,-25.696Z" style="fill:#01170c;fill-rule:nonzero;"/><path d="M140.235,79.124c-0.754,-0.913 -1.767,-1.487 -2.844,-1.705c-0.434,-0.094 -0.877,-0.338 -0.105,-0.626c1.383,-0.517 4.38,0.118 4.887,0.729l-1.938,1.602Z" style="fill:#01170c;fill-rule:nonzero;"/><path d="M100.398,88.919l-2.384,0l0,-5.111l-4.134,-0l0,5.111l-2.384,0l-0,-12.212l2.384,0l0,4.993l4.134,-0l0,-4.993l2.384,0l-0,12.212Z" style="fill:#01170c;"/><path d="M109.743,85.146l-5.591,-0c0.003,0.587 0.173,1.06 0.508,1.426c0.336,0.365 0.818,0.554 1.446,0.564c0.477,-0 0.868,-0.069 1.168,-0.208c0.301,-0.138 0.585,-0.35 0.857,-0.632l1.353,1.319c-0.438,0.457 -0.916,0.806 -1.432,1.045c-0.517,0.242 -1.173,0.361 -1.962,0.362c-0.715,0.012 -1.384,-0.117 -2.009,-0.382c-0.626,-0.267 -1.132,-0.733 -1.521,-1.4c-0.39,-0.669 -0.593,-1.6 -0.604,-2.798c0.017,-1.465 0.378,-2.589 1.078,-3.373c0.701,-0.785 1.64,-1.181 2.817,-1.189c0.828,0.008 1.534,0.194 2.113,0.563c0.579,0.368 1.021,0.871 1.321,1.511c0.304,0.641 0.455,1.373 0.458,2.197l-0,0.995Zm-2.137,-1.527c-0.009,-0.2 -0.026,-0.37 -0.059,-0.518c-0.032,-0.148 -0.082,-0.302 -0.151,-0.464c-0.122,-0.277 -0.31,-0.501 -0.564,-0.675c-0.254,-0.174 -0.572,-0.263 -0.958,-0.27c-0.385,0.007 -0.704,0.096 -0.958,0.27c-0.254,0.174 -0.442,0.398 -0.564,0.675c-0.07,0.162 -0.12,0.316 -0.15,0.464c-0.033,0.148 -0.053,0.318 -0.06,0.518l3.464,-0Z" style="fill:#01170c;"/><path d="M118.523,88.919l-2.23,0l0,-5.402c-0.018,-0.602 -0.175,-1.024 -0.473,-1.272c-0.298,-0.246 -0.632,-0.366 -1.003,-0.357c-0.37,-0.009 -0.705,0.111 -1.01,0.357c-0.302,0.248 -0.463,0.67 -0.48,1.272l-0,5.402l-2.232,0l0,-8.935l2.18,0l-0,0.822c0.296,-0.308 0.637,-0.54 1.025,-0.694c0.387,-0.155 0.787,-0.232 1.203,-0.232c0.901,0.016 1.606,0.276 2.111,0.79c0.353,0.361 0.595,0.751 0.723,1.172c0.131,0.424 0.192,0.879 0.186,1.366l-0,5.711Z" style="fill:#01170c;"/><path d="M127.292,88.588c-0.013,1.092 -0.369,1.978 -1.063,2.657c-0.697,0.678 -1.65,1.028 -2.866,1.048c-0.678,0.006 -1.273,-0.077 -1.787,-0.25c-0.514,-0.173 -1,-0.477 -1.453,-0.917l1.389,-1.407c0.243,0.24 0.501,0.414 0.778,0.524c0.275,0.11 0.6,0.165 0.971,0.162c0.66,-0.019 1.129,-0.214 1.402,-0.585c0.274,-0.368 0.408,-0.79 0.399,-1.265l-0,-0.911c-0.289,0.323 -0.607,0.553 -0.954,0.691c-0.347,0.139 -0.739,0.205 -1.173,0.202c-0.898,-0.014 -1.606,-0.277 -2.126,-0.789c-0.407,-0.418 -0.662,-0.919 -0.769,-1.505c-0.108,-0.586 -0.156,-1.266 -0.14,-2.046c-0.016,-0.778 0.032,-1.457 0.14,-2.036c0.107,-0.58 0.364,-1.078 0.769,-1.497c0.253,-0.251 0.561,-0.445 0.931,-0.582c0.367,-0.135 0.772,-0.206 1.213,-0.207c0.463,-0.003 0.868,0.069 1.211,0.214c0.343,0.148 0.665,0.391 0.966,0.729l-0,-0.839l2.162,-0l0,8.609Zm-2.23,-4.391c0.022,-0.615 -0.059,-1.148 -0.242,-1.601c-0.183,-0.453 -0.594,-0.691 -1.233,-0.714c-0.638,0.023 -1.046,0.261 -1.225,0.714c-0.176,0.453 -0.255,0.986 -0.233,1.601c-0.006,0.402 0.022,0.78 0.086,1.131c0.061,0.353 0.198,0.64 0.407,0.861c0.21,0.221 0.532,0.334 0.965,0.341c0.435,-0.007 0.757,-0.12 0.97,-0.341c0.212,-0.221 0.35,-0.508 0.417,-0.861c0.064,-0.351 0.094,-0.729 0.088,-1.131Z" style="fill:#01170c;"/><path d="M136.231,88.919l-2.178,0l0,-0.839c-0.304,0.338 -0.632,0.581 -0.985,0.728c-0.354,0.147 -0.761,0.218 -1.227,0.214c-0.445,-0.001 -0.858,-0.074 -1.24,-0.215c-0.382,-0.143 -0.701,-0.339 -0.956,-0.59c-0.429,-0.465 -0.692,-1.038 -0.791,-1.72c-0.096,-0.682 -0.137,-1.367 -0.118,-2.055c-0.019,-0.685 0.022,-1.367 0.118,-2.045c0.099,-0.677 0.362,-1.247 0.791,-1.71c0.255,-0.251 0.568,-0.447 0.947,-0.59c0.378,-0.142 0.788,-0.214 1.229,-0.217c0.454,-0.004 0.858,0.065 1.213,0.202c0.357,0.137 0.678,0.369 0.968,0.69l-0,-4.065l2.229,0l0,12.212Zm-2.229,-4.477c0.02,-0.743 -0.068,-1.352 -0.261,-1.824c-0.195,-0.472 -0.617,-0.715 -1.265,-0.73c-0.649,0.015 -1.068,0.258 -1.257,0.73c-0.19,0.472 -0.273,1.081 -0.253,1.824c-0.02,0.747 0.063,1.356 0.253,1.834c0.189,0.478 0.608,0.723 1.257,0.74c0.648,-0.017 1.07,-0.262 1.265,-0.74c0.193,-0.478 0.281,-1.087 0.261,-1.834Z" style="fill:#01170c;"/><rect x="138.001" y="79.984" width="2.23" height="8.935" style="fill:#01170c;"/><path d="M148.81,88.907l-2.18,0l-0,-0.772c-0.289,0.3 -0.601,0.516 -0.936,0.654c-0.335,0.137 -0.754,0.206 -1.259,0.204c-1,0.002 -1.76,-0.261 -2.281,-0.79c-0.238,-0.253 -0.423,-0.55 -0.548,-0.893c-0.125,-0.345 -0.188,-0.717 -0.188,-1.112c-0.003,-0.732 0.246,-1.342 0.749,-1.831c0.5,-0.488 1.268,-0.742 2.303,-0.761l2.111,-0l-0,-0.446c0.003,-0.484 -0.126,-0.843 -0.389,-1.067c-0.263,-0.228 -0.69,-0.339 -1.276,-0.338c-0.417,-0.001 -0.752,0.054 -1.006,0.17c-0.252,0.114 -0.488,0.303 -0.711,0.566l-1.423,-1.388c0.425,-0.472 0.885,-0.797 1.382,-0.979c0.497,-0.179 1.111,-0.265 1.843,-0.256c2.522,0.005 3.791,1.058 3.809,3.156l0,5.883Zm-2.221,-3.305l0,-0.489l-1.802,-0c-0.837,0.02 -1.262,0.365 -1.278,1.032c0,0.319 0.108,0.573 0.322,0.761c0.216,0.188 0.545,0.284 0.992,0.288c0.309,0.007 0.577,-0.018 0.801,-0.073c0.225,-0.056 0.437,-0.176 0.633,-0.364c0.233,-0.218 0.344,-0.603 0.332,-1.155Z" style="fill:#01170c;"/><path d="M157.929,88.919l-2.23,0l0,-5.402c-0.018,-0.602 -0.176,-1.024 -0.474,-1.272c-0.299,-0.246 -0.633,-0.366 -1.001,-0.357c-0.371,-0.009 -0.706,0.111 -1.01,0.357c-0.304,0.248 -0.465,0.67 -0.482,1.272l0,5.402l-2.23,0l-0,-8.935l2.178,0l-0,0.822c0.297,-0.308 0.638,-0.54 1.026,-0.694c0.386,-0.155 0.787,-0.232 1.203,-0.232c0.901,0.016 1.603,0.276 2.11,0.79c0.353,0.361 0.594,0.751 0.726,1.172c0.129,0.424 0.19,0.879 0.184,1.366l-0,5.711Z" style="fill:#01170c;"/><path d="M172.542,83.912c0.003,0.871 -0.082,1.602 -0.263,2.188c-0.179,0.588 -0.48,1.099 -0.905,1.534c-0.488,0.5 -1.022,0.857 -1.601,1.073c-0.577,0.215 -1.193,0.322 -1.844,0.315c-1.339,-0.018 -2.437,-0.463 -3.296,-1.338c-0.402,-0.408 -0.689,-0.858 -0.857,-1.342c-0.171,-0.486 -0.273,-1.02 -0.305,-1.602c-0.031,-0.584 -0.045,-1.226 -0.036,-1.925c-0.009,-0.704 0.005,-1.346 0.036,-1.927c0.032,-0.582 0.134,-1.116 0.305,-1.603c0.168,-0.485 0.455,-0.933 0.857,-1.342c0.843,-0.875 1.94,-1.32 3.296,-1.338c0.941,0.009 1.732,0.196 2.376,0.556c0.642,0.363 1.147,0.836 1.511,1.425c0.364,0.591 0.603,1.233 0.708,1.93l-2.4,-0c-0.26,-1.167 -0.993,-1.763 -2.195,-1.785c-0.664,0.022 -1.174,0.239 -1.527,0.652c-0.155,0.161 -0.272,0.36 -0.358,0.598c-0.085,0.234 -0.144,0.573 -0.176,1.013c-0.035,0.441 -0.052,1.048 -0.049,1.821c-0.003,0.77 0.014,1.379 0.049,1.823c0.032,0.443 0.091,0.783 0.176,1.022c0.086,0.24 0.203,0.44 0.358,0.601c0.353,0.408 0.863,0.619 1.527,0.636c0.728,-0.017 1.294,-0.245 1.696,-0.689c0.382,-0.448 0.564,-0.99 0.549,-1.626l-0,-0.464l-2.245,0l0,-1.99l4.613,0l0,1.784Z" style="fill:#01170c;"/><path d="M180.625,80.715l-1.682,1.698c-0.163,-0.173 -0.336,-0.303 -0.513,-0.395c-0.179,-0.089 -0.402,-0.136 -0.669,-0.136c-0.36,-0.001 -0.687,0.132 -0.979,0.399c-0.29,0.269 -0.445,0.682 -0.462,1.248l-0,5.385l-2.23,-0l0,-8.935l2.18,-0l-0,0.856c0.221,-0.263 0.527,-0.488 0.924,-0.673c0.393,-0.183 0.834,-0.279 1.321,-0.287c0.431,-0.003 0.816,0.06 1.151,0.189c0.336,0.129 0.657,0.346 0.959,0.651Z" style="fill:#01170c;"/><path d="M187.988,84.442c0.008,0.806 -0.06,1.486 -0.205,2.037c-0.144,0.553 -0.413,1.036 -0.807,1.447c-0.274,0.3 -0.64,0.555 -1.101,0.767c-0.459,0.21 -1.018,0.32 -1.678,0.329c-0.657,-0.009 -1.215,-0.119 -1.67,-0.329c-0.456,-0.212 -0.82,-0.467 -1.091,-0.767c-0.396,-0.411 -0.665,-0.894 -0.809,-1.446c-0.144,-0.552 -0.211,-1.232 -0.204,-2.038c-0.007,-0.796 0.06,-1.47 0.204,-2.02c0.144,-0.55 0.413,-1.034 0.809,-1.444c0.271,-0.301 0.635,-0.555 1.091,-0.767c0.455,-0.212 1.013,-0.321 1.67,-0.331c0.66,0.01 1.219,0.119 1.678,0.331c0.461,0.212 0.827,0.466 1.101,0.767c0.394,0.41 0.663,0.894 0.807,1.444c0.145,0.55 0.213,1.224 0.205,2.02Zm-2.229,0c0.006,-0.466 -0.021,-0.882 -0.086,-1.253c-0.062,-0.37 -0.208,-0.671 -0.431,-0.907c-0.253,-0.261 -0.602,-0.392 -1.045,-0.394c-0.438,0.002 -0.782,0.133 -1.031,0.394c-0.223,0.236 -0.367,0.537 -0.428,0.907c-0.065,0.371 -0.092,0.787 -0.085,1.253c-0.007,0.468 0.02,0.889 0.085,1.263c0.061,0.375 0.205,0.681 0.428,0.917c0.249,0.258 0.593,0.389 1.031,0.394c0.443,-0.005 0.792,-0.136 1.045,-0.394c0.223,-0.236 0.369,-0.542 0.431,-0.917c0.065,-0.374 0.092,-0.795 0.086,-1.263Z" style="fill:#01170c;"/><path d="M196.734,88.919l-2.178,0l-0,-0.823c-0.297,0.308 -0.64,0.54 -1.025,0.695c-0.389,0.155 -0.789,0.231 -1.206,0.231c-0.902,-0.014 -1.602,-0.277 -2.108,-0.789c-0.354,-0.359 -0.596,-0.75 -0.725,-1.172c-0.13,-0.423 -0.192,-0.876 -0.185,-1.365l-0,-5.712l2.23,0l0,5.403c0.017,0.6 0.175,1.025 0.473,1.271c0.299,0.247 0.632,0.367 1,0.358c0.372,0.009 0.707,-0.111 1.011,-0.358c0.303,-0.246 0.464,-0.671 0.482,-1.271l-0,-5.403l2.231,0l0,8.935Z" style="fill:#01170c;"/><path d="M206.018,84.438c0.02,0.685 -0.021,1.371 -0.119,2.054c-0.099,0.681 -0.36,1.256 -0.788,1.719c-0.256,0.251 -0.57,0.446 -0.949,0.59c-0.379,0.142 -0.789,0.214 -1.231,0.215c-0.451,0.005 -0.852,-0.063 -1.202,-0.201c-0.351,-0.137 -0.671,-0.368 -0.959,-0.69l0,4.066l-2.228,-0l-0,-12.212l2.16,-0l-0,0.839c0.302,-0.338 0.636,-0.581 0.992,-0.729c0.359,-0.145 0.771,-0.217 1.237,-0.214c0.442,0.002 0.852,0.076 1.231,0.217c0.379,0.142 0.693,0.339 0.949,0.589c0.428,0.464 0.689,1.035 0.788,1.712c0.098,0.678 0.139,1.358 0.119,2.045Zm-2.229,-0c0.02,-0.744 -0.063,-1.353 -0.252,-1.825c-0.191,-0.471 -0.61,-0.716 -1.259,-0.731c-0.646,0.015 -1.065,0.26 -1.256,0.731c-0.189,0.472 -0.272,1.081 -0.252,1.825c-0.02,0.745 0.063,1.356 0.252,1.833c0.191,0.477 0.61,0.725 1.256,0.74c0.649,-0.015 1.068,-0.263 1.259,-0.74c0.189,-0.477 0.272,-1.088 0.252,-1.833Z" style="fill:#01170c;"/><path d="M156.219,61.127l0,1.879l5.961,-0l-0,-1.879l-5.961,-0Zm0,-3.748l0,1.881l5.961,0l-0,-1.881l-5.961,-0Zm0,-3.739l0,1.871l5.961,0l-0,-1.871l-5.961,-0Zm0,-3.741l0,1.871l5.961,-0l-0,-1.871l-5.961,0Zm6.456,20.63c-0.244,0 -0.443,-0.197 -0.443,-0.442l-0,-4.784l-4.6,-0l1.1,0.557c-0.967,1.924 -2.578,3.422 -4.132,4.669c-0.378,-0.121 -2.049,-0.839 -2.827,-1.153c-0.097,-0.058 -0.137,-0.128 -0.137,-0.207c-0,-0.07 0.033,-0.133 0.084,-0.172c1.981,-1.481 2.852,-2.476 3.816,-3.694l-5.099,-0c-0.25,-0 -0.45,-0.199 -0.45,-0.444l0,-1.41c0,-0.246 0.2,-0.443 0.444,-0.443l2.628,-0l-0,-10.746l-0.272,0.189c-0.849,0.591 -1.643,0.983 -2.283,1.32l-0.389,-2.89c2.215,-1.287 4.552,-4.075 5.322,-6.187l3.307,0.332c-0.322,0.964 -0.704,1.709 -1.312,2.58l7.24,-0l1.962,-0.018l8.947,0.018c0.244,-0 0.441,0.198 0.441,0.443l0,1.408c0,0.247 -0.197,0.444 -0.441,0.444l-10.241,0l0,1.871l9.219,0.001c0.244,-0 0.442,0.198 0.442,0.442l0,0.986c0,0.243 -0.198,0.441 -0.442,0.441l-9.219,-0l0,1.871l9.219,0c0.245,0 0.442,0.2 0.442,0.444l0,0.982c0,0.243 -0.197,0.442 -0.442,0.442l-9.219,-0l0,1.881l9.219,0c0.245,0 0.442,0.198 0.442,0.442l0,0.984c-0.012,0.257 -0.206,0.441 -0.442,0.441l-9.219,-0l0,1.879l11.415,-0c0.244,-0 0.442,0.197 0.442,0.443l-0,1.413c-0,0.243 -0.198,0.441 -0.442,0.441l-5.163,-0c1.114,1.334 2.049,2.306 3.841,3.691c0.053,0.039 0.085,0.104 0.085,0.175c0,0.091 -0.056,0.169 -0.132,0.204l-2.875,1.156c-1.648,-1.247 -3.177,-2.759 -4.086,-4.669l1.072,-0.557l-4.157,-0.003l0,4.781c0,0.251 -0.199,0.448 -0.443,0.448l-2.222,0Z" style="fill:#01170c;fill-rule:nonzero;"/><path d="M164.565,47.837l-0.22,-0.21c-0.36,-0.342 -1.281,-1.109 -2.87,-1.699l2.393,-1.61c1.144,0.315 3.466,1.531 4.212,2.301l-1.446,1.096l-2.069,0.122Z" style="fill:#01170c;fill-rule:nonzero;"/><path d="M146.893,47.623c0.254,-0 0.453,0.197 0.453,0.442l0,1.386c0,0.252 -0.195,0.448 -0.439,0.448l-20.97,0l0,9.584c0,7.372 -0.974,9.327 -3.314,10.917l-1.66,-2.249c1.775,-1.379 2.011,-3.685 2.011,-9.312l0,-10.739c0,-0.28 0.198,-0.477 0.442,-0.477l23.477,-0Z" style="fill:#01170c;fill-rule:nonzero;"/><path d="M135.878,48.117c-1.146,-1.382 -2.679,-2.254 -4.312,-2.583c-0.655,-0.14 -1.325,-0.511 -0.155,-0.947c2.091,-0.785 6.633,0.179 7.399,1.102l-2.932,2.428Z" style="fill:#01170c;fill-rule:nonzero;"/><path d="M142.705,67.138l0,-5.123l-12.142,-0l-0,5.123l12.142,0Zm-14.664,2.363c-0.245,-0 -0.442,-0.198 -0.442,-0.441l0,-8.966c0,-0.243 0.197,-0.442 0.442,-0.442l5.498,-0l0,-7.768c0,-0.243 0.197,-0.443 0.442,-0.443l2.224,0c0.244,0 0.441,0.2 0.441,0.443l-0,2.524l9.484,0c0.244,0 0.442,0.199 0.442,0.443l0,1.395c0,0.244 -0.198,0.44 -0.442,0.44l-9.484,-0l-0,2.966l8.581,-0c0.246,-0 0.443,0.199 0.443,0.442l0,8.966c-0.002,0.248 -0.201,0.441 -0.445,0.441l-17.184,-0Z" style="fill:#01170c;fill-rule:nonzero;"/><path d="M191.509,64.291c-0,-0.242 0.195,-0.438 0.435,-0.442l0.94,0c1.451,0 1.526,-0.8 1.526,-1.814l-0,-6.178l-0.502,0c-1.333,4.209 -4.569,7.09 -6.457,8.487l-1.424,-1.93c3.554,-2.475 4.794,-6.557 4.785,-6.557l-4.786,0c-0.245,0 -0.443,-0.195 -0.443,-0.442l-0,-1.668c0.005,-0.251 0.201,-0.444 0.443,-0.444l8.384,0l-0,-2.65c-0,-0.242 0.196,-0.438 0.436,-0.442l2.193,-0c0.244,-0 0.442,0.198 0.442,0.442l-0,2.65l3,0c0.244,0 0.439,0.19 0.448,0.426l0,1.68c0,0.253 -0.197,0.448 -0.44,0.448l-3.008,0l-0,7.213c-0,2.168 -1.964,3.011 -3.453,3.011l-2.076,-0c-0.248,-0.005 -0.443,-0.201 -0.443,-0.442l-0,-1.348Z" style="fill:#01170c;fill-rule:nonzero;"/><path d="M183.936,67.631l18.442,0l0,-19.035l-18.442,-0l0,19.035Zm21.055,-21.612c0.243,-0 0.441,0.197 0.441,0.441l0,23.306c0,0.244 -0.198,0.441 -0.442,0.441l-23.835,-0c-0.245,-0 -0.442,-0.2 -0.442,-0.442l-0,-23.305c-0,-0.244 0.197,-0.441 0.442,-0.441l23.836,-0Z" style="fill:#01170c;fill-rule:nonzero;"/><path d="M103.536,65.37l1.199,-0l1.439,0.796c-0.094,1.188 -1.119,3.11 -2.414,4.05c-0,0 -2.592,-0.827 -2.961,-0.95c-0.108,-0.059 -0.149,-0.128 -0.149,-0.208c-0,-0.073 0.038,-0.138 0.091,-0.178c1.373,-1.038 2.183,-2.165 2.684,-3.265l0.111,-0.245Z" style="fill:#01170c;fill-rule:nonzero;"/><path d="M115.431,65.37l-1.199,-0l-1.438,0.796c0.093,1.188 1.117,3.11 2.414,4.05c0,0 2.593,-0.827 2.959,-0.95c0.109,-0.059 0.152,-0.128 0.152,-0.208c-0,-0.073 -0.038,-0.138 -0.092,-0.178c-1.374,-1.038 -2.184,-2.165 -2.683,-3.265l-0.113,-0.245Z" style="fill:#01170c;fill-rule:nonzero;"/><path d="M107.919,49.036l-0,2.307l2.927,-0l-0,-2.307l-2.927,0Zm-7.257,4.585c-0.242,0 -0.437,-0.202 -0.437,-0.447l-0,-1.106l-2.406,-0l-0,1.649c0.352,0.388 1.393,1.475 1.94,2.182c0.756,0.977 1.225,1.805 1.225,1.805l-0,-2.244c-0,-0.237 0.189,-0.431 0.442,-0.442l6.538,0l-0,-1.397l-7.302,0Zm3.113,9.741l4.189,0l-0,-2.161l-4.189,0l-0,2.161Zm-0,-6.229l-0,2.153l4.189,-0l-0,-2.153l-4.189,0Zm7.153,6.233l4.18,-0l-0,-2.116l-4.18,0l-0,2.116Zm4.18,-4.08l-0,-2.153l-4.18,0l-0,2.153l4.18,-0Zm3.086,-10.692c-0,0.245 -0.199,0.442 -0.443,0.442l-3.944,0l0,2.252l4.355,0c0.247,0.004 0.442,0.199 0.442,0.443l-0,1.441c-0,0.25 -0.198,0.449 -0.442,0.449l-7.234,0l-0,1.397l6.528,0c0.253,0.011 0.442,0.204 0.442,0.442l0,9.498c0,0.244 -0.198,0.441 -0.442,0.441l-16.03,-0c-0.25,-0.003 -0.442,-0.201 -0.442,-0.443l-0,-4.701l-1.217,1.314c-0.088,-0.215 -1.948,-3.722 -1.948,-3.722l-0,12.114c-0.003,0.254 -0.2,0.452 -0.444,0.452l-2.045,-0.002c-0.278,0.002 -0.475,-0.196 -0.475,-0.442l-0.005,-9.526c-0.221,0.762 -1.247,2.524 -2.277,3.771l-1.566,-2.387c1.745,-2.885 3.69,-6.591 3.843,-9.759l-3.034,-0c-0.246,-0 -0.443,-0.2 -0.443,-0.444l-0,-1.513c-0,-0.262 0.197,-0.459 0.443,-0.459l3.039,-0l-0,-4.654c-0,-0.279 0.197,-0.476 0.441,-0.476l2.079,-0c0.244,-0 0.441,0.197 0.441,0.441l0.003,4.689l2.288,0.006c0.244,0.007 0.432,0.203 0.432,0.441l-0,1.189l4.417,0l-0,-2.252l-3.559,0c-0.245,0 -0.443,-0.197 -0.443,-0.442l-0,-1.393c0.003,-0.248 0.201,-0.442 0.443,-0.442l3.559,-0l-0,-2.023c-0,-0.274 0.196,-0.472 0.441,-0.472l2.08,-0c0.242,-0 0.444,0.198 0.444,0.443l-0.002,2.052l2.927,-0l-0,-2.043c-0,-0.254 0.196,-0.452 0.44,-0.452l2.079,-0c0.244,-0 0.442,0.198 0.442,0.443l0,2.052l3.924,-0c0.264,-0 0.463,0.198 0.463,0.442l-0,1.393Z" style="fill:#01170c;fill-rule:nonzero;"/></g></svg>