<?xml version="1.0" encoding="UTF-8" standalone="no"?>
<!DOCTYPE svg PUBLIC "-//W3C//DTD SVG 1.1//EN" "http://www.w3.org/Graphics/SVG/1.1/DTD/svg11.dtd">
<svg width="100%" height="100%" viewBox="0 0 208 43" version="1.1" xmlns="http://www.w3.org/2000/svg" xmlns:xlink="http://www.w3.org/1999/xlink" xml:space="preserve" xmlns:serif="http://www.serif.com/" style="fill-rule:evenodd;clip-rule:evenodd;stroke-linejoin:round;stroke-miterlimit:2;">
    <g transform="matrix(1,0,0,1,-425,-614)">
        <g>
            <g transform="matrix(1,0,0,1,0,418.519)">
                <path d="M448.084,220.384L443.487,212.533C441.655,209.397 443.154,206.839 446.821,206.839L451.85,206.839L451.849,206.839L447.085,198.705C445.252,195.572 442.252,195.572 440.417,198.705L426.72,222.107C424.885,225.24 426.385,227.798 430.049,227.798L452.425,227.798L452.245,227.49L448.084,220.384Z" style="fill:rgb(230,0,19);fill-rule:nonzero;"/>
            </g>
            <g transform="matrix(1,0,0,1,0,429.787)">
                <path d="M456.189,202.986L452.028,195.883L451.849,195.572L446.82,195.572C443.155,195.572 441.655,198.131 443.487,201.265L448.085,209.117L452.244,216.222L452.425,216.532L457.452,216.532C461.119,216.532 462.62,213.972 460.785,210.841L456.189,202.986Z" style="fill:rgb(167,34,38);fill-rule:nonzero;"/>
            </g>
            <g transform="matrix(1,0,0,1,0,441.053)">
                <path d="M474.223,184.306L451.85,184.306L452.027,184.616L456.189,191.72L460.786,199.574C462.619,202.705 461.119,205.266 457.451,205.266L452.425,205.266L452.426,205.269L457.188,213.402C459.022,216.532 462.021,216.532 463.855,213.402L477.553,190C479.387,186.865 477.889,184.306 474.223,184.306" style="fill:rgb(170,171,171);fill-rule:nonzero;"/>
            </g>
            <g transform="matrix(1,0,0,1,0,427.059)">
                <path d="M498.716,206.496L495.914,216.248L495.82,216.573L491.983,216.573L492.146,216.004L494.949,206.251L495.042,205.927L498.879,205.927L498.716,206.496ZM606.997,216.004L611.988,198.583L612.081,198.258L629.82,198.258C629.982,198.258 630.153,198.275 630.331,198.307C630.506,198.339 630.679,198.385 630.848,198.445C631.022,198.506 631.189,198.581 631.348,198.668C631.504,198.754 631.656,198.854 631.802,198.969L631.804,198.971C631.95,199.086 632.083,199.212 632.205,199.349C632.327,199.488 632.438,199.637 632.535,199.796C632.641,199.969 632.721,200.153 632.774,200.347L632.774,200.349C632.828,200.545 632.855,200.745 632.855,200.95C632.855,201.065 632.847,201.182 632.83,201.3C632.813,201.414 632.789,201.525 632.757,201.633L632.757,201.633L628.567,216.248L628.474,216.573L624.557,216.573L624.72,216.004L628.826,201.655C628.757,201.634 628.697,201.617 628.647,201.604C628.576,201.586 628.51,201.57 628.448,201.556L614.969,201.556L610.764,216.248L610.671,216.573L606.834,216.573L606.997,216.004ZM588.853,198.4L605.188,215.821L605.893,216.573L600.349,216.573L600.215,216.43L587.273,202.601L584.21,213.275L592.216,213.275L592.052,213.843L591.358,216.248L591.265,216.573L579.395,216.573L579.558,216.004L584.55,198.583L584.643,198.259L584.979,198.258L588.529,198.258L588.721,198.259L588.853,198.4ZM561.291,198.258L581.006,198.258L580.842,198.827L580.148,201.232L580.055,201.556L560.339,201.556L560.503,200.988L561.197,198.583L561.291,198.258ZM577.106,206.497L576.411,208.875L576.317,209.198L561.96,209.198L559.945,216.248L559.852,216.573L556.041,216.573L556.204,216.004L559.007,206.251L559.1,205.927L577.272,205.927L577.106,206.497ZM537.589,198.258L557.571,198.258L557.407,198.827L556.713,201.232L556.62,201.556L536.637,201.556L536.801,200.988L537.495,198.583L537.589,198.258ZM553.67,206.497L552.977,208.875L552.883,209.198L538.286,209.198L537.125,213.275L553.274,213.275L553.11,213.843L552.416,216.248L552.322,216.573L532.339,216.573L532.502,216.004L535.305,206.251L535.399,205.927L553.837,205.927L553.67,206.497ZM518.166,209.225L513.276,209.225L511.26,216.248L511.167,216.573L507.33,216.573L507.493,216.004L510.296,206.251L510.389,205.927L527.273,205.927C527.37,205.927 527.462,205.915 527.548,205.891C527.641,205.866 527.734,205.826 527.826,205.774L527.826,205.773C527.921,205.719 527.993,205.668 528.042,205.622C528.062,205.603 528.075,205.59 528.081,205.582L529.199,201.626C529.12,201.601 529.054,201.583 529.001,201.573C528.947,201.562 528.895,201.556 528.848,201.556L511.628,201.556L511.792,200.988L512.486,198.583L512.58,198.258L530.049,198.258C530.211,198.258 530.383,198.275 530.564,198.307L530.564,198.305C530.735,198.336 530.909,198.382 531.088,198.443C531.265,198.504 531.435,198.578 531.598,198.667C531.761,198.755 531.916,198.856 532.059,198.969C532.201,199.081 532.335,199.208 532.46,199.349C532.583,199.488 532.694,199.637 532.791,199.796C532.896,199.967 532.976,200.152 533.03,200.349C533.084,200.544 533.111,200.745 533.111,200.949C533.111,201.065 533.103,201.182 533.086,201.3C533.07,201.414 533.045,201.525 533.013,201.633L533.013,201.633L531.733,206.095L531.729,206.102C531.657,206.338 531.561,206.564 531.442,206.777C531.322,206.992 531.179,207.195 531.013,207.386C530.851,207.573 530.676,207.746 530.489,207.907C530.304,208.066 530.103,208.214 529.887,208.352C529.675,208.487 529.456,208.608 529.23,208.714C529.002,208.82 528.769,208.912 528.53,208.988C528.286,209.067 528.049,209.126 527.821,209.164C527.585,209.205 527.357,209.225 527.139,209.225L523.66,209.225L529.866,215.821L530.574,216.573L525.053,216.573L524.92,216.432L518.166,209.225ZM489.305,198.259L509.021,198.259L508.857,198.829L508.163,201.233L508.069,201.556L488.353,201.556L488.517,200.986L489.212,198.581L489.305,198.259Z" style="fill:rgb(137,137,137);fill-rule:nonzero;"/>
            </g>
        </g>
    </g>
</svg>
