<?xml version="1.0" encoding="UTF-8" standalone="no"?>
<!DOCTYPE svg PUBLIC "-//W3C//DTD SVG 1.1//EN" "http://www.w3.org/Graphics/SVG/1.1/DTD/svg11.dtd">
<svg width="100%" height="100%" viewBox="0 0 192 28" version="1.1" xmlns="http://www.w3.org/2000/svg" xmlns:xlink="http://www.w3.org/1999/xlink" xml:space="preserve" xmlns:serif="http://www.serif.com/" style="fill-rule:evenodd;clip-rule:evenodd;stroke-linejoin:round;stroke-miterlimit:2;">
    <g transform="matrix(1,0,0,1,-1765,-540)">
        <g transform="matrix(1,0,0,1,1339.37,0)">
            <g transform="matrix(1,0,0,1,-1339.37,0)">
                <path d="M1863.01,558.527L1863.01,544.796L1868.27,544.796L1868.27,557.08C1868.27,559.027 1868.39,560.417 1868.66,561.257C1869.99,565.408 1881.35,565.408 1882.68,561.257C1882.94,560.417 1883.07,559.028 1883.07,557.08L1883.07,544.796L1888.33,544.796L1888.33,558.527C1888.33,566.152 1881.68,568.081 1874.84,567.96C1868.24,567.843 1863.01,565.514 1863.01,558.527ZM1784.55,550.814L1791.77,567.965L1796.19,567.965L1803.79,544.799L1798.3,544.799L1793.45,560.878L1786.57,544.799L1782.53,544.799L1775.65,560.878L1770.8,544.799L1765.31,544.799L1772.91,567.965L1777.33,567.965L1784.55,550.814ZM1898.66,567.965L1902.19,567.965L1902.19,565.797L1903.29,567.034C1906.67,564.84 1907.21,563.357 1907.62,558.998L1911.81,558.998L1911.81,563.661C1911.7,565.241 1913.28,565.357 1914.54,565.287C1914.18,565.509 1913.88,565.704 1913.67,565.87L1914.15,567.724C1915.06,567.235 1918.07,566.159 1920.7,564.006C1922.18,565.264 1924.83,566.879 1925.72,567.266L1926.47,565.416C1925.13,564.302 1923.78,563.376 1922.62,562.054C1924.07,560.627 1925.58,557.395 1925.58,553.53L1925.58,547.546L1926.99,547.546L1926.99,545.283L1920.11,545.283L1920.24,543.01L1916.68,542.985C1916.57,546.629 1916.36,550.114 1916.46,553.229C1916.58,556.76 1917.66,560.332 1919.09,561.976C1918.15,563.007 1916.85,563.868 1915.73,564.558L1915.73,562.868L1914.69,562.889L1914.69,557.156L1904.73,557.156C1904.73,561.928 1904.33,563.949 1902.19,565.539L1902.19,552.71L1903.8,549.452L1900.25,549.452C1899.16,551.796 1897.86,553.718 1895.69,555.475L1895.73,557.022C1896.42,556.881 1897.9,555.994 1898.66,555.387L1898.66,567.965ZM1855.53,540.855L1860.75,540.855L1860.75,556.74L1860.74,556.723C1860.77,557.196 1860.72,557.646 1860.59,558.077C1859.53,563.561 1853.53,567.764 1846.29,567.764C1838.31,567.764 1831.83,562.651 1831.83,556.347C1831.83,550.043 1838.31,544.93 1846.29,544.93C1847.5,544.93 1848.67,545.047 1849.79,545.268C1849.97,545.302 1850.18,545.334 1850.42,545.368L1850.42,545.368C1852.19,545.791 1853.96,546.56 1855.53,547.618C1855.53,544.957 1855.53,542.539 1855.53,540.855ZM1816.43,544.93C1824.41,544.93 1830.89,550.043 1830.89,556.347C1830.89,556.673 1830.87,556.996 1830.84,557.314L1807.46,557.314C1808,561.311 1811.81,564.409 1816.43,564.409C1819.37,564.409 1821.99,563.151 1823.64,561.204L1829.52,561.204C1827.2,565.081 1822.21,567.764 1816.43,567.764C1808.44,567.764 1801.97,562.651 1801.97,556.347C1801.97,550.043 1808.44,544.93 1816.43,544.93ZM1956.39,543.36L1956.39,545.392L1933.88,545.392L1933.88,548.73L1937.75,548.73L1937.75,545.845L1938.78,545.845C1939.43,545.845 1941.24,545.986 1941.27,546.786L1941.27,548.73L1947.03,548.73L1947.03,545.845L1948.71,545.845C1949.36,545.845 1950.65,545.986 1950.69,546.786L1950.69,548.73L1955.56,548.73L1955.56,550.895L1950.69,550.895L1950.69,554.663L1947.03,554.663L1947.03,554.662L1941.27,554.662L1941.27,554.663L1937.75,554.663L1937.75,550.895L1933.88,550.895L1933.88,555.839L1952.87,555.839C1952.09,559.169 1949.33,561.691 1946.81,563.245C1949.15,564.387 1950.73,564.816 1954.96,565.333L1954.93,567.704C1951.01,567.195 1947.58,566.486 1944.22,565.061C1940.85,566.486 1938.17,567.138 1934.17,567.758L1933.43,565.827C1937.43,565.151 1939.74,564.21 1941.66,563.184C1939.48,561.552 1938.37,560.046 1937,558.041L1933.88,557.978C1933.59,563.375 1930.88,566.159 1929.04,567.638L1927.5,566.403C1929.64,563.296 1930.16,561.24 1930.16,556.977L1930.16,543.36L1941.75,543.36L1941.75,541.093L1943.95,541.093C1944.6,541.093 1945.89,541.235 1945.92,542.035L1945.92,543.36L1956.39,543.36ZM1846.29,548.285C1841.3,548.285 1837.26,551.895 1837.26,556.347C1837.26,560.8 1841.3,564.409 1846.29,564.409C1851.28,564.409 1855.32,560.8 1855.32,556.347C1855.32,551.895 1851.28,548.285 1846.29,548.285ZM1941.13,557.978C1941.95,559.514 1942.63,560.217 1944.59,561.695C1945.66,561.103 1947.62,559.511 1948.3,557.978L1941.13,557.978ZM1922.44,547.546L1922.44,554.369C1922.44,557.167 1921.59,559.46 1920.97,559.965C1920.25,558.875 1919.86,556.787 1919.78,554.148C1919.69,551.339 1919.85,549.46 1919.98,547.546L1922.44,547.546ZM1903.88,553.947L1915.47,553.947L1915.47,555.957L1903.88,555.957L1903.88,553.947ZM1807.71,554.241L1825.15,554.241C1824.11,550.811 1820.6,548.285 1816.43,548.285C1812.26,548.285 1808.74,550.811 1807.71,554.241ZM1906.98,550.891L1908.23,550.891L1908.23,541.117L1909.26,541.117C1909.91,541.117 1910.94,541.258 1910.98,542.058L1910.98,550.891L1912.33,550.891L1912.33,543.484L1913.74,543.484C1914.39,543.484 1915.16,543.623 1915.2,544.424L1915.2,552.899L1904.24,552.899L1904.24,543.484L1905.26,543.484C1905.91,543.484 1906.94,543.623 1906.98,544.424L1906.98,550.891ZM1947.03,550.895L1941.27,550.895L1941.27,552.782L1947.03,552.782L1947.03,550.895ZM1895.64,551.327L1895.6,549.726C1897.52,548.551 1898.81,545.633 1900.15,541.896L1903.61,541.897C1902.42,545.424 1900.26,550.147 1895.64,551.327Z" style="fill:rgb(0,153,68);"/>
            </g>
        </g>
    </g>
</svg>
