<?xml version="1.0" encoding="UTF-8" standalone="no"?>
<!DOCTYPE svg PUBLIC "-//W3C//DTD SVG 1.1//EN" "http://www.w3.org/Graphics/SVG/1.1/DTD/svg11.dtd">
<svg width="100%" height="100%" viewBox="0 0 122 57" version="1.1" xmlns="http://www.w3.org/2000/svg" xmlns:xlink="http://www.w3.org/1999/xlink" xml:space="preserve" xmlns:serif="http://www.serif.com/" style="fill-rule:evenodd;clip-rule:evenodd;stroke-linejoin:round;stroke-miterlimit:2;">
    <g transform="matrix(1,0,0,1,-311,-1039)">
        <g transform="matrix(1,0,0,1,0,947.126)">
            <g transform="matrix(1,0,0,1,0,-606.915)">
                <path d="M422.035,724.286L422.035,723.689L422.427,723.689C422.628,723.689 422.839,723.733 422.839,723.974C422.839,724.269 422.623,724.286 422.381,724.286L422.035,724.286ZM422.035,724.53L422.368,724.53L422.868,725.366L423.19,725.366L422.65,724.52C422.926,724.486 423.143,724.334 423.143,723.988C423.143,723.61 422.92,723.443 422.472,723.443L421.749,723.443L421.749,725.366L422.035,725.366L422.035,724.53ZM422.383,726.07C423.282,726.07 424.045,725.366 424.045,724.401C424.045,723.443 423.282,722.735 422.383,722.735C421.48,722.735 420.712,723.443 420.712,724.401C420.712,725.366 421.48,726.07 422.383,726.07ZM421.04,724.401C421.04,723.61 421.63,723.016 422.383,723.016C423.132,723.016 423.717,723.61 423.717,724.401C423.717,725.2 423.132,725.793 422.383,725.793C421.63,725.793 421.04,725.2 421.04,724.401" style="fill:rgb(83,195,241);fill-rule:nonzero;"/>
            </g>
            <g transform="matrix(0,-1,1,0,-334.683,507.207)">
                <path d="M399.595,701.406C399.595,701.406 384.464,710.193 384.464,727.923C384.464,743.494 399.595,767.15 399.595,767.15C399.595,767.15 414.726,743.494 414.726,727.923C414.726,710.193 399.595,701.406 399.595,701.406Z" style="fill:url(#_Linear1);"/>
            </g>
            <g transform="matrix(0,-1,1,0,-332.962,508.928)">
                <path d="M401.316,704.452C401.316,704.452 387.992,712.175 387.992,728.341C387.992,742.538 401.316,764.105 401.316,764.105C401.316,764.105 414.641,742.538 414.641,728.341C414.641,712.175 401.316,704.452 401.316,704.452Z" style="fill:url(#_Linear2);"/>
            </g>
            <g transform="matrix(1,0,0,1,0,-623.973)">
                <path d="M419.884,727.838C418.688,726.392 416.337,726.392 414.635,727.838C414.407,728.03 414.153,728.347 414.153,728.347C414.153,728.347 414.009,728.03 413.852,727.838C412.66,726.392 410.306,726.392 408.601,727.838C407.439,728.827 406.799,730.317 406.784,731.877C407.186,731.469 407.703,731.147 408.291,730.949C408.41,730.133 408.766,729.375 409.412,728.823C410.479,727.92 411.944,727.959 412.685,728.86C413.205,729.489 413.528,730.234 413.672,731.105C414.127,730.234 414.698,729.489 415.436,728.86C416.498,727.959 417.979,727.92 418.725,728.823C419.911,730.261 418.768,733.279 416.869,734.89C414.468,736.934 412.133,738.076 404.836,738.076L387.371,738.076C385.339,738.076 384.183,737.997 382.902,736.707C384.417,739.373 385.662,739.471 388.151,739.471L404.59,739.471C411.907,739.471 415.151,738.058 417.678,735.911C420.647,733.388 421.396,729.674 419.884,727.838" style="fill:rgb(240,131,0);fill-rule:nonzero;"/>
            </g>
            <g transform="matrix(0,-1,-1,0,1114.31,495.449)">
                <path d="M383.934,728.542C383.934,728.542 383.086,730.011 383.086,730.875C383.086,731.866 383.934,732.206 383.934,732.206C383.934,732.206 384.779,731.566 384.779,730.578C384.779,729.71 383.934,728.542 383.934,728.542" style="fill:rgb(240,131,0);fill-rule:nonzero;"/>
            </g>
            <g transform="matrix(0,1,1,0,-350.452,-268.406)">
                <path d="M379.921,728.54C379.921,728.54 380.769,729.713 380.769,730.579C380.769,731.566 379.921,732.207 379.921,732.207C379.921,732.207 379.076,731.864 379.076,730.875C379.076,730.011 379.921,728.54 379.921,728.54" style="fill:rgb(240,131,0);fill-rule:nonzero;"/>
            </g>
            <g transform="matrix(0.984939,0.172901,0.172901,-0.984939,-120.148,764.942)">
                <path d="M381.533,726.077C381.533,726.077 382.451,727.712 382.451,728.679C382.453,729.783 381.533,730.165 381.533,730.165C381.533,730.165 380.615,729.461 380.615,728.356C380.615,727.389 381.533,726.077 381.533,726.077" style="fill:rgb(240,131,0);fill-rule:nonzero;"/>
            </g>
            <g transform="matrix(-0.984813,-0.173616,-0.173616,0.984813,885.696,-545.054)">
                <path d="M382.129,730.56C382.129,730.56 381.392,731.61 381.393,732.386C381.39,733.267 382.129,733.837 382.129,733.837C382.129,733.837 382.858,733.526 382.862,732.645C382.86,731.869 382.129,730.56 382.129,730.56" style="fill:rgb(240,131,0);fill-rule:nonzero;"/>
            </g>
            <g transform="matrix(1,0,0,1,0,-621.672)">
                <path d="M397.862,731.785C397.752,732.243 397.509,732.626 397.129,732.938C396.714,733.277 396.245,733.446 395.715,733.446C395.183,733.446 394.791,733.277 394.535,732.938C394.299,732.624 394.238,732.23 394.346,731.759C394.458,731.287 394.704,730.891 395.089,730.578C395.499,730.241 395.967,730.072 396.499,730.072C397.026,730.079 397.419,730.248 397.678,730.578C397.917,730.882 397.977,731.287 397.862,731.785ZM397.976,728.981L395.394,728.981L393.178,730.62L392.769,732.938L394.147,734.581L396.737,734.581L398.954,732.938L399.36,730.62L397.976,728.981Z" style="fill:white;fill-rule:nonzero;"/>
            </g>
            <g transform="matrix(1,0,0,1,0,-621.665)">
                <path d="M388.994,732.278L390.319,733.872C390.651,734.26 390.847,734.565 391.477,734.565L392.801,734.565C392.801,734.565 392.601,734.544 392.393,734.295L390.662,732.24C391.458,732.24 391.976,732.102 392.323,731.766C392.601,731.497 392.769,731.116 392.851,730.664C392.958,730.069 392.796,729.635 392.439,729.373C392.269,729.244 391.873,728.991 391.171,728.991L387.191,728.991C387.191,728.991 387.237,729.015 387.276,729.068C387.314,729.123 387.323,729.202 387.307,729.304L386.429,734.26C386.409,734.362 386.375,734.444 386.315,734.499C386.256,734.557 386.233,734.565 386.233,734.565L387.873,734.565C387.873,734.565 387.808,734.53 387.768,734.476C387.732,734.419 387.72,734.343 387.74,734.239L388.089,732.278L388.994,732.278ZM388.486,730.003L390.832,730.003C391.198,730.003 391.382,730.071 391.477,730.195C391.57,730.317 391.618,730.402 391.577,730.633C391.528,730.899 391.368,731.096 391.148,731.184C390.989,731.252 390.948,731.266 390.769,731.266L388.265,731.266L388.486,730.003Z" style="fill:white;fill-rule:nonzero;"/>
            </g>
            <g transform="matrix(1,0,0,1,0,-628.653)">
                <path d="M404.922,735.861C404.885,735.809 404.878,735.737 404.895,735.64L405.995,729.367C406.011,729.271 406.047,729.196 406.098,729.147C406.155,729.094 406.191,729.08 406.191,729.08L404.751,729.08C404.751,729.08 404.8,729.088 404.836,729.14C404.869,729.191 404.878,729.264 404.861,729.359L404.005,734.251L400.003,729.432C399.921,729.335 399.887,729.247 399.9,729.172C399.91,729.113 399.976,729.103 399.976,729.103L398.473,729.103C398.473,729.103 398.546,729.133 398.578,729.183C398.618,729.232 398.623,729.304 398.612,729.4L397.837,733.775L393.823,733.775L394.109,732.142L396.568,732.142C396.666,732.142 396.736,732.166 396.78,732.21C396.823,732.256 396.838,732.321 396.838,732.321L397.066,731.05C397.066,731.05 397.007,731.125 396.952,731.168C396.891,731.212 396.813,731.235 396.717,731.235L394.269,731.235L394.472,730.093L397.416,730.093C397.511,730.093 397.583,730.113 397.626,730.158C397.671,730.199 397.671,730.266 397.671,730.266L397.892,729.003C397.892,729.003 397.869,729.033 397.816,729.08C397.756,729.122 397.674,729.142 397.573,729.142L393.085,729.142L393.06,729.29C393.173,729.292 393.239,729.347 393.277,729.398C393.311,729.448 393.319,729.518 393.304,729.615L392.45,734.406C392.434,734.503 392.398,734.576 392.342,734.633C392.287,734.684 392.214,734.72 392.214,734.72L399.029,734.72C399.029,734.72 398.925,734.69 398.885,734.635C398.853,734.584 398.843,734.509 398.859,734.412L399.48,730.883L403.258,735.412C403.368,735.545 403.432,735.641 403.465,735.684C403.732,736.008 404.058,736.091 404.469,736.11C404.563,736.11 404.655,736.187 404.688,736.242C404.73,736.295 404.737,736.373 404.718,736.477L404.179,739.545L401.536,736.375C401.452,736.268 401.409,736.176 401.428,736.093C401.443,736.003 401.515,735.965 401.515,735.965L399.878,735.965C399.878,735.965 399.921,735.99 399.959,736.042C399.997,736.093 400.006,736.172 399.988,736.277L399.116,741.234C399.095,741.34 399.057,741.417 398.998,741.471C398.942,741.527 398.913,741.54 398.913,741.54L400.422,741.54C400.422,741.54 400.397,741.519 400.359,741.465C400.319,741.406 400.308,741.331 400.325,741.226L400.925,737.866L403.381,740.786C403.497,740.93 403.601,741.035 403.636,741.076C403.976,741.49 404.33,741.54 404.713,741.54L405.21,741.54C405.21,741.54 405.157,741.509 405.121,741.458C405.081,741.401 405.073,741.324 405.092,741.218L405.967,736.248C405.983,736.144 406.023,736.063 406.079,736.011C406.123,735.977 406.149,735.971 406.149,735.971L405.09,735.971C405.01,735.971 404.948,735.907 404.922,735.861" style="fill:white;fill-rule:nonzero;"/>
            </g>
            <g transform="matrix(1,0,0,1,0,-634.778)">
                <path d="M391.141,735.267C391.141,735.267 391.285,735.324 391.263,735.461C391.244,735.537 391.194,735.655 391.09,735.814L389.085,739.163L388.367,735.794C388.338,735.662 388.329,735.573 388.338,735.524C388.367,735.38 388.59,735.267 388.59,735.267L386.73,735.267C386.73,735.267 386.857,735.352 386.745,735.534C386.679,735.641 384.515,739.163 384.515,739.163L383.827,735.787C383.8,735.657 383.795,735.557 383.806,735.488C383.833,735.355 384.007,735.267 384.007,735.267L381.983,735.267C382.12,735.294 382.158,735.342 382.215,735.422C382.275,735.499 382.326,735.654 382.37,735.878L383.399,740.741C383.445,740.963 383.463,741.096 383.452,741.141C383.42,741.308 383.244,741.399 383.244,741.399L384.896,741.399C384.896,741.399 384.727,741.282 384.752,741.146C384.765,741.097 384.82,740.982 384.93,740.788L387.188,737.093L387.967,740.749C388.024,740.963 388.047,741.097 388.035,741.154C388.003,741.322 387.875,741.401 387.875,741.401L389.433,741.401C389.433,741.401 389.291,741.318 389.32,741.171C389.335,741.099 389.411,740.956 389.536,740.741L392.387,736.026C392.533,735.789 392.641,735.638 392.713,735.573C392.814,735.48 392.941,735.414 393.06,735.414L393.085,735.267L391.141,735.267Z" style="fill:white;fill-rule:nonzero;"/>
            </g>
            <g transform="matrix(1,0,0,1,0,-621.692)">
                <path d="M412.323,729.408L411.479,730.71C411.479,730.71 411.443,730.504 411.18,730.356C410.764,730.124 410.229,729.944 409.638,729.944C409.038,729.944 408.515,730.108 408.072,730.436C407.61,730.778 407.323,731.245 407.221,731.823C407.126,732.373 407.23,732.81 407.542,733.136C407.86,733.47 408.359,733.638 409.047,733.638C409.694,733.638 410.264,733.518 410.756,733.277L410.905,732.427L409.401,732.427C409.295,732.427 409.237,732.436 409.174,732.489C409.109,732.535 409.104,732.564 409.104,732.564L409.303,731.445C409.303,731.445 409.31,731.464 409.358,731.511C409.404,731.557 409.479,731.582 409.589,731.582L412.238,731.582L412.183,731.63C412.129,731.692 412.085,731.78 412.064,731.899L411.778,733.52C411.762,733.624 411.774,733.704 411.808,733.76C411.85,733.817 411.94,733.857 411.94,733.857C410.761,734.453 409.745,734.692 408.677,734.692C407.757,734.692 407.048,734.475 406.555,734.043C406.289,733.803 406.089,733.509 405.964,733.159C405.815,732.739 405.785,732.295 405.868,731.819C405.979,731.165 406.289,730.581 406.78,730.072C407.552,729.284 408.552,728.889 409.788,728.889C410.391,728.889 411.089,729.066 411.739,729.302C412.001,729.395 412.147,729.442 412.198,729.442C412.235,729.442 412.276,729.431 412.323,729.408" style="fill:white;fill-rule:nonzero;"/>
            </g>
            <g transform="matrix(1,0,0,1,0,-564.285)">
                <path d="M384.366,701.739C385.066,701.552 385.657,701.09 386.147,700.369C386.417,699.973 386.673,699.573 386.901,699.182L389.405,699.182L388.678,703.294L381.267,703.294L381.112,704.151L387.903,704.151C384.511,707.393 381.793,709.442 379.768,710.304C379.767,709.967 379.824,709.528 379.94,708.982L381.198,701.87C382.663,701.994 383.722,701.95 384.366,701.739ZM401.42,694.076L382.573,694.076L382.612,693.848L378.835,693.848L376.078,709.454C375.861,710.606 375.978,711.37 376.427,711.751C376.82,712.14 377.757,712.327 379.256,712.314L398.003,712.314L398.067,711.944L398.913,711.55L381.927,711.55C380.87,711.55 380.213,711.384 379.971,711.034C379.844,710.914 379.78,710.69 379.769,710.37C381.565,710.518 382.905,710.545 383.793,710.455C384.688,710.361 385.398,710.108 385.927,709.688C386.812,709.008 388.107,707.916 389.823,706.403C390.597,707.459 391.331,708.403 392.023,709.242C392.482,709.814 393.131,710.175 393.985,710.314C394.823,710.472 396.234,710.472 398.201,710.307C396.648,709.315 394.793,707.258 392.645,704.151L398.37,704.151L398.453,703.687L399.304,703.294L392.526,703.294L393.256,699.182L399.142,699.182L399.231,698.661L400.081,698.272L387.439,698.272C387.74,697.762 388.024,697.248 388.301,696.728L389.323,696.272L385.001,696.272C383.234,699.417 381.972,701.254 381.212,701.784L382.417,694.964L400.483,694.964L400.57,694.468L401.42,694.076Z" style="fill:rgb(137,137,137);fill-rule:nonzero;"/>
            </g>
            <g transform="matrix(1,0,0,1,0,-586.969)">
                <path d="M367.166,713.18L367.397,711.886L368.156,711.323L363.773,711.323L363.445,713.18L355.794,713.18L356.005,711.956L356.784,711.323L352.401,711.323L352.078,713.18L346.162,713.18L345.588,716.443L351.495,716.443L351.302,717.535L355.02,717.535L355.216,716.443L362.875,716.443L362.681,717.535L366.401,717.535L366.593,716.443L372.505,716.443L372.972,713.79L373.743,713.18L367.166,713.18Z" style="fill:rgb(137,137,137);fill-rule:nonzero;"/>
            </g>
            <g transform="matrix(1,0,0,1,0,-574.066)">
                <path d="M344.927,705.46L344.041,710.497L347.761,710.497C347.761,710.497 347.885,709.807 348.07,708.725L368.187,708.725C368.003,709.807 367.871,710.497 367.871,710.497L371.596,710.497L372.369,706.099L373.144,705.46L344.927,705.46Z" style="fill:rgb(137,137,137);fill-rule:nonzero;"/>
            </g>
            <g transform="matrix(1,0,0,1,0,-569.864)">
                <path d="M322.46,701.533L322.55,700.147L334.635,700.147L334.237,701.533C333.615,703.807 331.104,705.981 326.765,708.862C323.568,706.049 322.292,703.853 322.46,701.533ZM370.459,707.604L371.236,706.978L359.554,706.978L359.726,706.011L360.515,705.318L356.133,705.318L355.838,706.978L344.823,706.978L344.246,710.243L349.087,710.243C348.257,711.558 345.662,714.626 344.091,715.48C341.98,716.632 339.696,716.789 337.35,716.149C334.925,715.489 331.166,712.469 329.565,711.296C334.79,707.938 337.244,705.166 338.18,701.827L338.659,700.147L342.885,700.147L343.382,697.296L344.159,696.639L331.198,696.639L331.539,694.698L332.265,694.08L327.532,694.08L327.087,696.639L315.001,696.639L314.388,700.147L318.528,700.147L318.423,701.827C318.193,704.901 319.745,707.642 323.319,710.939C320.461,712.6 315.33,715.285 311.208,716.784L311.985,717.646L318.388,717.646C321.457,716.135 323.858,714.898 326.185,713.503C327.349,714.385 328.54,715.489 330.689,716.643C331.99,717.344 335.276,717.646 337.456,717.646C339.09,717.646 340.802,717.673 342.401,717.673C345.521,717.673 348.221,717.161 349.927,715.56C352.26,713.337 353.318,711.632 354.091,710.243L355.26,710.243L353.971,717.573L357.691,717.573L358.981,710.243L360.03,710.243C360.327,711.723 361.481,714.05 363.231,716.421C363.533,716.831 364.257,717.646 365.937,717.646L369.786,717.646L370.606,716.761C367.81,716.157 365.21,712.389 364.609,710.243L369.992,710.243L370.459,707.604Z" style="fill:rgb(137,137,137);fill-rule:nonzero;"/>
            </g>
            <g transform="matrix(1,0,0,1,0,-563.894)">
                <path d="M408.239,700.425C407.995,700.678 407.574,700.901 406.988,701.067L408.082,694.876L408.73,694.876C409.37,694.874 409.507,695.278 409.37,695.989L408.788,699.277C408.702,699.771 408.483,700.172 408.239,700.425ZM408.04,703.526L407.427,707.012C407.261,707.923 407.038,708.445 406.373,708.497C406.154,708.497 405.918,708.432 405.706,708.336L406.922,701.449C407.887,701.828 408.277,702.505 408.04,703.526ZM410.987,703.574C411.16,702.529 410.659,701.792 409.311,701.342C410.729,701.006 411.592,700.042 411.8,698.992L412.346,695.858C412.572,694.594 412.132,693.962 410.699,693.962L408.233,693.962L408.275,693.743L404.859,693.743L401.641,712.041L405.054,712.041L405.605,708.893C406.051,709.636 406.713,710.05 407.538,710.025C409.236,709.97 409.998,709.372 410.203,708.02L410.987,703.574Z" style="fill:rgb(137,137,137);fill-rule:nonzero;"/>
            </g>
            <g transform="matrix(1,0,0,1,0,-569.444)">
                <path d="M426.402,705.219L413.063,705.219L412.917,706.115L425.446,706.115L425.531,705.65L426.402,705.219Z" style="fill:rgb(137,137,137);fill-rule:nonzero;"/>
            </g>
            <g transform="matrix(1,0,0,1,0,-555.178)">
                <path d="M411.971,693.68L411.81,694.578L414.784,694.578C414.784,694.578 412.955,699.024 412.228,700.34C411.516,701.621 410.625,702.753 409.491,703.344C411.368,703.387 412.885,703.256 413.619,702.951C414.352,702.689 414.909,702.063 415.493,701.041C416.116,699.957 418.401,694.578 418.401,694.578L419.424,694.578L418.493,700.699C418.247,702.321 418.791,703.107 420.628,703.107C421.209,703.107 421.881,703.121 422.331,703.107C423.644,703.124 424.369,702.883 424.922,702.241C425.565,701.578 425.872,700.171 425.503,699.264C424.733,701.298 423.979,701.613 422.61,701.613C422.005,701.613 421.884,701.132 422.053,700.041L422.857,694.578L425.975,694.578L426.088,694.051L426.946,693.68L411.971,693.68Z" style="fill:rgb(137,137,137);fill-rule:nonzero;"/>
            </g>
            <g transform="matrix(1,0,0,1,0,-577.693)">
                <path d="M425.776,708.813L422.229,708.813L422.499,707.365L423.353,706.943L418.92,706.943L418.592,708.813L416.619,708.813L416.658,708.626L413.143,708.626L412.436,712.64L415.941,712.64L416.474,709.596L422.838,709.596C423.453,709.589 423.79,709.657 423.948,709.795C424.131,709.913 424.173,710.197 424.102,710.567C423.847,711.915 423.346,712.606 423.346,712.606C423.342,712.618 423.338,712.628 423.337,712.64L426.819,712.64C427.494,711.729 427.729,710.393 427.729,710.393C427.989,709.316 427.748,708.792 425.776,708.813" style="fill:rgb(137,137,137);fill-rule:nonzero;"/>
            </g>
        </g>
    </g>
    <defs>
        <linearGradient id="_Linear1" x1="0" y1="0" x2="1" y2="0" gradientUnits="userSpaceOnUse" gradientTransform="matrix(31.05,1.90126e-15,1.90126e-15,-31.05,383.657,734.283)"><stop offset="0" style="stop-color:rgb(0,161,233);stop-opacity:1"/><stop offset="0.49" style="stop-color:rgb(0,161,233);stop-opacity:1"/><stop offset="0.51" style="stop-color:rgb(0,161,233);stop-opacity:1"/><stop offset="1" style="stop-color:rgb(0,161,233);stop-opacity:1"/></linearGradient>
        <linearGradient id="_Linear2" x1="0" y1="0" x2="1" y2="0" gradientUnits="userSpaceOnUse" gradientTransform="matrix(7.40177e-15,-60.44,-60.44,-7.40177e-15,401.318,764.912)"><stop offset="0" style="stop-color:rgb(0,175,236);stop-opacity:1"/><stop offset="0.1" style="stop-color:rgb(0,175,236);stop-opacity:1"/><stop offset="1" style="stop-color:rgb(0,85,156);stop-opacity:1"/></linearGradient>
    </defs>
</svg>
