<?xml version="1.0" encoding="UTF-8" standalone="no"?>
<!DOCTYPE svg PUBLIC "-//W3C//DTD SVG 1.1//EN" "http://www.w3.org/Graphics/SVG/1.1/DTD/svg11.dtd">
<svg width="100%" height="100%" viewBox="0 0 185 45" version="1.1" xmlns="http://www.w3.org/2000/svg" xmlns:xlink="http://www.w3.org/1999/xlink" xml:space="preserve" xmlns:serif="http://www.serif.com/" style="fill-rule:evenodd;clip-rule:evenodd;stroke-linejoin:round;stroke-miterlimit:2;">
    <g transform="matrix(1,0,0,1,-1738,-1310)">
        <g transform="matrix(1,0,0,1,1339.37,947.126)">
            <g transform="matrix(1,0,0,1,0,-42.4068)">
                <path d="M460.299,438.684L460.299,436.89L459.066,436.89C458.914,436.89 458.784,436.837 458.676,436.732C458.568,436.624 458.526,436.502 458.554,436.358C458.571,436.244 458.629,436.15 458.729,436.073C458.828,435.997 458.942,435.959 459.066,435.959L460.299,435.959L460.299,434.87C460.299,434.716 460.357,434.582 460.476,434.474C460.592,434.366 460.734,434.319 460.9,434.336C461.033,434.352 461.147,434.413 461.238,434.518C461.332,434.624 461.379,434.743 461.379,434.87L461.379,435.959L465.185,435.959L465.185,434.903C465.185,434.746 465.237,434.613 465.345,434.499C465.453,434.386 465.583,434.328 465.733,434.325C465.882,434.322 466.015,434.377 466.129,434.494C466.243,434.61 466.298,434.746 466.298,434.903L466.298,435.959L467.929,435.959C468.084,435.959 468.22,436.006 468.33,436.1C468.442,436.191 468.497,436.302 468.499,436.427C468.503,436.554 468.45,436.662 468.342,436.753C468.234,436.845 468.095,436.89 467.929,436.89L466.298,436.89L466.298,438.684L468.151,438.684C468.283,438.684 468.403,438.729 468.503,438.82C468.602,438.911 468.655,439.022 468.657,439.149C468.66,439.277 468.611,439.388 468.511,439.479C468.411,439.57 468.289,439.614 468.151,439.614L463.96,439.614L463.968,440.39L463.96,441.177L466.054,441.177C466.628,441.177 467.015,441.262 467.212,441.434C467.408,441.606 467.547,441.789 467.625,441.977C467.705,442.168 467.744,442.386 467.744,442.628L467.744,445.001C467.744,445.198 467.71,445.392 467.644,445.58C467.575,445.771 467.453,445.971 467.27,446.181C467.09,446.389 466.68,446.494 466.04,446.494L460.734,446.494C460.182,446.494 459.814,446.424 459.626,446.289C459.438,446.15 459.299,445.971 459.208,445.749C459.116,445.524 459.069,445.278 459.069,445.001L459.069,442.628C459.069,442.386 459.116,442.163 459.211,441.963C459.304,441.761 459.421,441.612 459.56,441.509C459.698,441.409 459.884,441.329 460.116,441.268C460.349,441.207 460.581,441.177 460.814,441.177L462.858,441.177L462.858,439.614L458.856,439.614C458.703,439.614 458.573,439.564 458.468,439.462C458.363,439.362 458.319,439.249 458.332,439.119C458.344,438.991 458.402,438.886 458.501,438.806C458.601,438.725 458.72,438.684 458.856,438.684L460.299,438.684ZM460.149,444.317L460.149,444.826C460.149,445.173 460.216,445.383 460.346,445.455C460.479,445.527 460.631,445.563 460.803,445.563L462.858,445.563L462.858,444.317L460.149,444.317ZM462.858,443.386L462.858,442.107L460.85,442.107C460.382,442.107 460.149,442.326 460.149,442.764L460.149,443.386L462.858,443.386ZM463.971,444.317L463.971,445.563L465.882,445.563C466.168,445.563 466.347,445.538 466.42,445.489C466.494,445.442 466.547,445.372 466.58,445.286C466.614,445.2 466.63,445.039 466.63,444.81L466.63,444.317L463.971,444.317ZM466.63,443.386L466.63,442.62C466.63,442.503 466.616,442.409 466.589,442.342C466.561,442.276 466.5,442.22 466.4,442.173C466.301,442.129 466.134,442.107 465.899,442.107L463.971,442.107L463.971,443.386L466.63,443.386ZM465.185,436.89L461.379,436.89L461.379,438.684L465.185,438.684L465.185,436.89ZM456.776,438.517L456.776,439.426C457.186,439.806 457.574,440.188 457.931,440.578C458.291,440.969 458.529,441.293 458.643,441.556C458.756,441.82 458.756,442.01 458.646,442.132C458.535,442.254 458.408,442.32 458.26,442.331C458.114,442.342 457.939,442.246 457.734,442.038L457.238,441.454L456.776,440.944L456.776,449.294C456.776,449.482 456.715,449.643 456.593,449.77C456.471,449.901 456.333,449.959 456.175,449.941C456.039,449.936 455.92,449.872 455.818,449.751C455.715,449.628 455.663,449.476 455.663,449.294L455.663,441.675C455.413,442.149 455.197,442.559 455.017,442.902C454.837,443.248 454.677,443.528 454.538,443.744C454.4,443.96 454.261,444.137 454.117,444.276C453.973,444.411 453.829,444.483 453.688,444.489C453.544,444.494 453.425,444.442 453.333,444.328C453.242,444.215 453.203,444.068 453.22,443.887C453.237,443.71 453.419,443.339 453.768,442.777C454.117,442.215 454.389,441.647 454.588,441.077C454.785,440.507 454.926,440.083 455.009,439.809C455.092,439.532 455.153,439.312 455.192,439.149L455.33,438.517L453.868,438.517C453.713,438.517 453.58,438.474 453.472,438.382C453.364,438.293 453.308,438.186 453.306,438.061C453.303,437.933 453.355,437.822 453.466,437.729C453.58,437.634 453.713,437.587 453.868,437.587L455.663,437.587L455.663,434.959C455.663,434.784 455.721,434.64 455.837,434.524C455.953,434.407 456.092,434.352 456.247,434.358C456.388,434.369 456.513,434.433 456.618,434.549C456.723,434.665 456.776,434.801 456.776,434.959L456.776,437.587L458.319,437.587C458.432,437.587 458.538,437.629 458.637,437.711C458.739,437.792 458.792,437.9 458.8,438.033C458.809,438.169 458.764,438.282 458.668,438.377C458.568,438.471 458.451,438.517 458.319,438.517L456.776,438.517ZM468.438,449.172C468.452,449.307 468.411,449.421 468.311,449.515C468.212,449.612 468.095,449.662 467.96,449.668C467.774,449.676 467.447,449.537 466.976,449.249C466.506,448.959 466.065,448.707 465.656,448.49C465.243,448.274 464.979,448.122 464.863,448.037C464.747,447.948 464.672,447.862 464.639,447.777C464.608,447.69 464.597,447.601 464.608,447.516C464.619,447.43 464.675,447.347 464.777,447.264C464.88,447.184 465.026,447.147 465.215,447.158C465.39,447.175 465.672,447.286 466.065,447.488C466.455,447.69 466.935,447.925 467.5,448.189C468.065,448.455 468.378,448.781 468.438,449.172ZM458.31,449.764C458.025,449.806 457.831,449.737 457.734,449.557C457.637,449.377 457.651,449.191 457.776,449.001C457.845,448.887 457.961,448.793 458.125,448.717C458.286,448.641 458.607,448.49 459.083,448.264C459.556,448.037 460.014,447.798 460.448,447.551C460.883,447.308 461.21,447.142 461.426,447.061C461.643,446.981 461.816,447.029 461.95,447.208C462.082,447.385 462.096,447.587 461.986,447.809C461.866,448.053 461.324,448.425 460.357,448.928C459.388,449.433 458.706,449.709 458.31,449.764ZM481.2,435.942C481.18,435.834 481.158,435.745 481.139,435.673C481.122,435.604 481.083,435.504 481.025,435.377C480.97,435.252 480.934,435.136 480.917,435.034C480.9,434.931 480.953,434.799 481.075,434.64C481.196,434.479 481.369,434.4 481.59,434.4C481.773,434.405 481.922,434.466 482.036,434.582C482.149,434.699 482.255,434.848 482.349,435.029C482.443,435.211 482.554,435.516 482.679,435.942L488.04,435.942C488.226,435.942 488.387,436.003 488.522,436.128C488.661,436.25 488.733,436.399 488.735,436.571C488.738,436.742 488.672,436.892 488.536,437.019C488.4,437.15 488.234,437.211 488.04,437.205L477.078,437.205C476.813,437.205 476.602,437.244 476.441,437.322C476.281,437.402 476.203,437.606 476.203,437.936L476.178,441.074C476.167,441.794 476.151,442.442 476.126,443.018C476.101,443.594 476.054,444.229 475.984,444.921C475.912,445.613 475.788,446.198 475.605,446.674C475.425,447.151 475.267,447.543 475.131,447.853C474.996,448.166 474.871,448.385 474.755,448.513C474.638,448.637 474.491,448.712 474.32,448.734C474.19,448.756 474.043,448.726 473.883,448.646C473.719,448.566 473.639,448.432 473.639,448.247C473.639,448.064 473.663,447.903 473.71,447.771C473.716,447.748 473.81,447.551 473.99,447.181C474.173,446.809 474.325,446.411 474.453,445.984C474.58,445.558 474.672,445.159 474.73,444.787C474.785,444.416 474.826,443.951 474.852,443.392C474.877,442.833 474.899,441.963 474.921,440.783L474.968,437.595C474.968,437.308 475.004,437.055 475.07,436.834C475.137,436.615 475.292,436.41 475.53,436.224C475.765,436.037 476.173,435.942 476.746,435.942L481.2,435.942ZM482.584,439.714L488.508,439.714C488.686,439.714 488.844,439.783 488.982,439.919C489.12,440.055 489.187,440.21 489.181,440.382C489.17,440.548 489.101,440.689 488.971,440.806C488.841,440.919 488.686,440.977 488.508,440.977L482.584,440.977L482.584,442.638L486.149,442.638C486.409,442.638 486.769,442.716 487.229,442.868C487.689,443.023 487.918,443.536 487.918,444.408L487.918,447.768C487.918,447.94 487.893,448.244 487.847,448.682C487.796,449.117 487.323,449.335 486.42,449.335L479.081,449.335C478.239,449.335 477.704,449.224 477.477,449.001C477.253,448.776 477.114,448.546 477.07,448.311C477.023,448.072 477.001,447.812 477.001,447.527L477.001,444.358C477.001,443.718 477.114,443.292 477.341,443.081C477.571,442.875 477.779,442.746 477.967,442.703C478.159,442.661 478.43,442.638 478.782,442.638L481.205,442.638L481.205,438.351C481.205,438.085 481.269,437.892 481.393,437.767C481.518,437.643 481.748,437.571 482.083,437.548C482.418,437.526 482.584,437.795 482.584,438.351L482.584,439.714ZM486.622,447.219L486.622,444.779C486.622,444.466 486.6,444.264 486.556,444.173C486.514,444.084 486.436,444.018 486.323,443.97C486.213,443.923 486.054,443.902 485.855,443.902L479.194,443.902C478.884,443.902 478.668,443.918 478.544,443.954C478.422,443.99 478.33,444.062 478.269,444.173C478.211,444.284 478.181,444.491 478.181,444.796L478.181,447.219C478.181,447.51 478.203,447.704 478.247,447.796C478.289,447.887 478.38,447.956 478.516,448.003C478.652,448.051 478.892,448.072 479.236,448.072L485.739,448.072C486.035,448.072 486.229,448.059 486.329,448.028C486.426,447.998 486.5,447.931 486.548,447.824C486.597,447.718 486.622,447.516 486.622,447.219ZM496.431,438.867L494.866,438.867C494.752,438.867 494.645,438.82 494.542,438.722C494.436,438.629 494.378,438.493 494.367,438.319C494.354,438.144 494.398,437.994 494.503,437.873C494.608,437.748 494.73,437.687 494.866,437.687L496.561,437.687L496.561,435.131C496.561,434.989 496.616,434.865 496.727,434.757C496.835,434.649 496.979,434.596 497.151,434.596C497.32,434.602 497.458,434.66 497.572,434.773C497.685,434.887 497.741,435.006 497.741,435.131L497.741,437.687L499.38,437.687C499.535,437.687 499.674,437.748 499.79,437.873C499.906,437.994 499.965,438.138 499.965,438.302C499.959,438.465 499.898,438.601 499.782,438.706C499.666,438.814 499.53,438.867 499.38,438.867L497.741,438.867L497.741,439.119C498.167,439.72 498.619,440.357 499.092,441.033C499.566,441.708 499.829,442.11 499.887,442.234C499.943,442.36 499.976,442.503 499.981,442.67C499.987,442.833 499.904,442.973 499.737,443.089C499.569,443.207 499.391,443.22 499.2,443.131C499.012,443.04 498.832,442.825 498.658,442.481C498.486,442.138 498.178,441.592 497.741,440.847L497.741,449.067C497.741,449.227 497.688,449.369 497.58,449.488C497.472,449.607 497.333,449.668 497.167,449.67C496.998,449.673 496.854,449.615 496.738,449.496C496.619,449.377 496.561,449.233 496.561,449.067L496.561,441.675C496.367,442.08 496.179,442.489 496.001,442.899C495.821,443.311 495.719,443.544 495.694,443.597L495.173,444.53C495.01,444.826 494.849,445.026 494.686,445.123C494.525,445.22 494.351,445.217 494.168,445.115C493.982,445.012 493.899,444.863 493.91,444.668C493.924,444.472 494.149,444.012 494.58,443.284C495.013,442.559 495.378,441.811 495.677,441.041C495.974,440.274 496.226,439.548 496.431,438.867ZM500.632,440.999L500.632,437.072C500.632,436.776 500.685,436.521 500.79,436.302C500.893,436.086 501.045,435.912 501.244,435.779C501.444,435.643 501.781,435.576 502.258,435.576L504.593,435.576C505.473,435.576 505.986,435.784 506.132,436.203C506.276,436.62 506.349,436.948 506.349,437.185L506.349,446.242C506.349,447.09 506.418,447.657 506.559,447.942C506.7,448.224 507.055,448.283 507.623,448.116C507.719,448.089 507.808,448.045 507.891,447.981C507.971,447.92 508.032,447.718 508.077,447.377L508.127,446.923L508.19,446.314C508.213,446.064 508.259,445.884 508.332,445.774C508.406,445.663 508.536,445.588 508.725,445.547C508.916,445.508 509.066,445.541 509.179,445.649C509.295,445.757 509.367,445.903 509.401,446.092C509.431,446.277 509.412,446.663 509.334,447.247C509.265,447.782 509.207,448.15 509.165,448.352C509.121,448.551 508.977,448.779 508.733,449.036C508.489,449.294 507.988,449.421 507.224,449.421C506.36,449.427 505.822,449.277 505.614,448.967C505.407,448.659 505.28,448.343 505.235,448.017C505.191,447.693 505.169,447.364 505.169,447.029L505.169,437.966C505.169,437.64 505.138,437.398 505.08,437.238C505.019,437.08 504.922,436.958 504.789,436.878C504.654,436.798 504.407,436.756 504.045,436.756L502.776,436.756C502.435,436.756 502.21,436.789 502.1,436.859C501.989,436.925 501.912,437.019 501.873,437.142C501.831,437.263 501.812,437.515 501.812,437.9L501.812,441.828C501.812,442.121 501.795,442.498 501.759,442.962C501.723,443.428 501.676,443.929 501.615,444.469C501.554,445.007 501.458,445.519 501.324,446.001C501.192,446.485 501.045,446.865 500.89,447.139C500.735,447.411 500.546,447.712 500.325,448.042C500.103,448.372 499.906,448.627 499.74,448.806C499.571,448.984 499.383,449.086 499.173,449.114C498.959,449.141 498.793,449.086 498.671,448.951C498.552,448.817 498.516,448.643 498.571,448.432C498.593,448.324 498.76,448.078 499.073,447.698C499.388,447.316 499.646,446.909 499.845,446.477C500.045,446.045 500.197,445.574 500.3,445.068C500.402,444.563 500.482,443.937 500.543,443.195C500.602,442.451 500.632,441.72 500.632,440.999ZM516.453,444.608L516.453,439.382L515.09,439.382C514.932,439.382 514.794,439.338 514.672,439.246C514.55,439.158 514.475,439.033 514.445,438.877C514.414,438.722 514.464,438.57 514.592,438.424C514.719,438.277 514.885,438.203 515.09,438.203L516.453,438.203L516.453,434.989C516.453,434.831 516.502,434.69 516.605,434.565C516.705,434.444 516.835,434.374 516.996,434.36C517.154,434.347 517.3,434.402 517.433,434.527C517.566,434.652 517.632,434.804 517.632,434.989L517.632,438.203L518.89,438.203C519.054,438.203 519.195,438.26 519.316,438.379C519.438,438.498 519.499,438.634 519.502,438.792C519.505,438.95 519.447,439.085 519.328,439.204C519.208,439.324 519.064,439.382 518.89,439.382L517.632,439.382L517.632,443.893C518.012,443.616 518.353,443.37 518.66,443.146C518.965,442.924 519.228,442.841 519.45,442.897C519.541,442.921 519.621,442.976 519.685,443.057C519.751,443.137 519.782,443.248 519.782,443.381C519.776,443.511 519.735,443.641 519.651,443.768C519.572,443.893 519.358,444.089 519.009,444.35C518.66,444.613 518.372,444.824 518.145,444.982C517.918,445.137 517.406,445.444 516.608,445.907C515.813,446.366 515.334,446.615 515.171,446.66C515.01,446.704 514.874,446.721 514.766,446.716C514.489,446.706 514.331,446.613 514.29,446.441C514.251,446.267 514.254,446.12 514.304,445.995C514.362,445.854 514.511,445.705 514.75,445.55L515.918,444.916L516.453,444.608ZM521.809,441.642L520.754,441.642C520.566,441.642 520.408,441.586 520.283,441.476C520.161,441.368 520.092,441.24 520.078,441.096C520.064,440.949 520.123,440.808 520.255,440.67C520.389,440.531 520.554,440.462 520.754,440.462L520.884,440.462C522.092,439.709 523.094,439.046 523.895,438.477C524.695,437.903 525.194,437.529 525.387,437.355C525.584,437.18 525.703,437.045 525.753,436.945C525.803,436.847 525.822,436.773 525.811,436.72C525.8,436.668 525.601,436.64 525.219,436.64L520.472,436.64C520.297,436.64 520.147,436.587 520.017,436.479C519.887,436.371 519.818,436.238 519.81,436.084C519.801,435.925 519.862,435.784 519.992,435.654C520.123,435.524 520.283,435.46 520.472,435.46L526.792,435.46C527.415,435.46 527.728,435.61 527.736,435.912C527.744,436.211 527.714,436.443 527.645,436.61C527.293,437.402 525.7,438.687 522.864,440.462L527.661,440.462C528.434,440.462 528.869,440.717 528.963,441.224C529.057,441.731 529.088,442.257 529.054,442.802C529.002,443.63 528.96,444.2 528.93,444.513C528.899,444.826 528.838,445.347 528.744,446.073C528.647,446.795 528.547,447.38 528.442,447.824C528.337,448.269 528.201,448.629 528.033,448.912C527.866,449.194 527.589,449.385 527.207,449.488C526.822,449.59 526.326,449.635 525.72,449.618C525.407,449.612 525.174,449.571 525.022,449.496C524.872,449.421 524.764,449.319 524.703,449.191C524.64,449.064 524.634,448.923 524.687,448.77C524.737,448.616 524.906,448.51 525.194,448.449C525.302,448.427 525.587,448.438 526.052,448.477C526.518,448.519 526.836,448.421 527.002,448.189C527.171,447.956 527.276,447.735 527.324,447.525C527.371,447.314 527.428,447.011 527.501,446.615C527.576,446.219 527.642,445.79 527.7,445.322C527.761,444.855 527.805,444.408 527.836,443.982C527.863,443.558 527.888,443.159 527.902,442.786C527.919,442.412 527.911,442.154 527.88,442.007C527.858,441.922 527.814,441.839 527.744,441.759C527.678,441.681 527.509,441.642 527.237,441.642L526.046,441.642C525.941,442.199 525.798,442.899 525.607,443.744C525.418,444.586 525.052,445.408 524.512,446.208C523.972,447.009 523.512,447.599 523.136,447.975C522.762,448.349 522.28,448.785 521.693,449.277C521.106,449.77 520.698,449.978 520.474,449.906C520.25,449.831 520.086,449.712 519.981,449.541C519.876,449.372 519.918,449.191 520.106,449.006C520.294,448.817 520.651,448.519 521.178,448.108C521.701,447.695 522.236,447.169 522.776,446.521C523.316,445.876 523.748,445.184 524.069,444.444C524.391,443.708 524.595,443.093 524.681,442.608L524.861,441.642L522.978,441.642C522.831,442.16 522.64,442.78 522.402,443.5C522.164,444.22 521.74,444.951 521.128,445.698C520.515,446.444 520.025,446.956 519.651,447.233C519.278,447.508 518.99,447.646 518.785,447.646C518.513,447.651 518.355,447.577 518.314,447.422C518.27,447.269 518.27,447.133 518.314,447.019C518.344,446.923 518.405,446.824 518.491,446.718C518.577,446.61 518.879,446.324 519.391,445.857C519.906,445.389 520.358,444.824 520.745,444.165C521.136,443.505 521.385,442.993 521.493,442.631L521.809,441.642Z" style="fill:rgb(35,25,22);fill-rule:nonzero;"/>
            </g>
            <g transform="matrix(1,0,0,1,0,-92.654)">
                <path d="M412.333,473.633L412.333,455.659L409.607,455.659L409.607,463.334L402.311,463.334L402.311,455.659L399.585,455.659L399.585,473.633L402.311,473.633L402.311,465.783L409.607,465.783L409.607,473.633L412.333,473.633ZM426.46,467.979L426.46,466.843C426.46,463.207 424.466,460.683 421.033,460.683C417.751,460.683 415.605,463.081 415.605,467.221C415.605,472.093 418.155,473.785 421.361,473.785C423.608,473.785 424.845,473.103 426.158,471.791L424.516,470.251C423.608,471.159 422.85,471.563 421.411,471.563C419.316,471.563 418.155,470.175 418.155,467.979L426.46,467.979ZM423.911,466.186L418.155,466.186C418.181,465.404 418.231,465.025 418.483,464.444C418.887,463.485 419.821,462.829 421.033,462.829C422.245,462.829 423.153,463.485 423.557,464.444C423.81,465.025 423.885,465.404 423.911,466.186ZM439.78,473.633L439.78,465.454C439.78,464.015 439.477,462.804 438.492,461.844C437.735,461.112 436.649,460.683 435.337,460.683C434.049,460.683 432.813,461.163 431.929,462.122L431.929,460.834L429.405,460.834L429.405,473.633L431.98,473.633L431.98,465.833C431.98,463.864 433.191,462.98 434.63,462.98C436.069,462.98 437.205,463.838 437.205,465.833L437.205,473.633L439.78,473.633ZM453.049,473.558L453.049,460.834L450.55,460.834L450.55,462.198C449.59,461.037 448.555,460.683 447.193,460.683C445.905,460.683 444.819,461.087 444.112,461.793C442.875,463.03 442.674,464.823 442.674,466.994C442.674,469.165 442.875,470.957 444.112,472.194C444.819,472.901 445.88,473.33 447.167,473.33C448.479,473.33 449.54,472.977 450.474,471.866L450.474,473.507C450.474,475.223 449.641,476.763 447.47,476.763C446.208,476.763 445.501,476.385 444.693,475.628L443.052,477.268C444.39,478.505 445.627,478.96 447.571,478.96C450.979,478.96 453.049,476.688 453.049,473.558ZM450.474,466.994C450.474,469.013 450.196,471.008 447.874,471.008C445.552,471.008 445.249,469.013 445.249,466.994C445.249,464.975 445.552,462.98 447.874,462.98C450.196,462.98 450.474,464.975 450.474,466.994ZM466.545,473.633L466.545,455.659L463.97,455.659L463.97,462.122C463.036,461.011 461.976,460.683 460.613,460.683C459.325,460.683 458.215,461.112 457.508,461.819C456.22,463.107 456.069,465.278 456.069,467.221C456.069,469.165 456.22,471.362 457.508,472.648C458.215,473.356 459.351,473.785 460.638,473.785C462.026,473.785 463.061,473.431 464.021,472.27L464.021,473.633L466.545,473.633ZM463.97,467.221C463.97,469.493 463.642,471.488 461.319,471.488C458.997,471.488 458.644,469.493 458.644,467.221C458.644,464.949 458.997,462.98 461.319,462.98C463.642,462.98 463.97,464.949 463.97,467.221ZM472.746,473.633L472.746,460.834L470.171,460.834L470.171,473.633L472.746,473.633ZM472.822,458.31L472.822,455.583L470.095,455.583L470.095,458.31L472.822,458.31ZM485.787,473.633L485.787,465.075C485.787,462.172 484.02,460.683 480.512,460.683C478.391,460.683 477.129,461.112 475.917,462.526L477.608,464.116C478.315,463.207 478.997,462.879 480.41,462.879C482.404,462.879 483.212,463.662 483.212,465.278L483.212,466.186L479.83,466.186C476.901,466.186 475.412,467.726 475.412,469.872C475.412,470.957 475.765,471.942 476.422,472.623C477.204,473.406 478.265,473.785 479.855,473.785C481.445,473.785 482.329,473.406 483.263,472.472L483.263,473.633L485.787,473.633ZM483.212,469.013C483.212,469.922 483.035,470.528 482.657,470.907C481.975,471.563 481.243,471.639 480.259,471.639C478.643,471.639 477.911,470.982 477.911,469.821C477.911,468.66 478.694,467.979 480.208,467.979L483.212,467.979L483.212,469.013ZM499.662,473.633L499.662,465.454C499.662,464.015 499.359,462.804 498.375,461.844C497.617,461.112 496.532,460.683 495.219,460.683C493.931,460.683 492.695,461.163 491.811,462.122L491.811,460.834L489.287,460.834L489.287,473.633L491.862,473.633L491.862,465.833C491.862,463.864 493.074,462.98 494.512,462.98C495.951,462.98 497.087,463.838 497.087,465.833L497.087,473.633L499.662,473.633ZM521.54,473.633L514.951,455.659L512.755,455.659L506.166,473.633L509.069,473.633L510.306,470.024L517.4,470.024L518.637,473.633L521.54,473.633ZM516.642,467.701L511.114,467.701L513.916,459.724L516.642,467.701ZM525.898,473.633L525.898,460.834L523.323,460.834L523.323,473.633L525.898,473.633ZM525.973,458.31L525.973,455.583L523.247,455.583L523.247,458.31L525.973,458.31ZM538.51,461.895C537.626,461.011 536.692,460.683 535.455,460.683C534.016,460.683 532.704,461.314 532.047,462.223L532.047,460.834L529.523,460.834L529.523,473.633L532.098,473.633L532.098,465.858C532.098,464.091 533.259,462.98 534.647,462.98C535.531,462.98 535.985,463.258 536.566,463.838L538.51,461.895ZM550.617,467.221C550.617,465.278 550.466,463.107 549.179,461.819C548.472,461.112 547.336,460.683 546.048,460.683C544.66,460.683 543.625,461.037 542.666,462.198L542.666,460.834L540.141,460.834L540.141,478.809L542.716,478.809L542.716,472.321C543.65,473.431 544.71,473.785 546.074,473.785C547.361,473.785 548.472,473.356 549.179,472.648C550.466,471.362 550.617,469.165 550.617,467.221ZM548.042,467.221C548.042,469.493 547.715,471.488 545.392,471.488C543.07,471.488 542.716,469.493 542.716,467.221C542.716,464.949 543.07,462.98 545.392,462.98C547.715,462.98 548.042,464.949 548.042,467.221ZM563.71,467.221C563.71,465.075 563.407,463.46 562.195,462.198C561.362,461.34 560.1,460.683 558.358,460.683C556.616,460.683 555.379,461.34 554.546,462.198C553.334,463.46 553.031,465.075 553.031,467.221C553.031,469.392 553.334,471.008 554.546,472.27C555.379,473.128 556.616,473.785 558.358,473.785C560.1,473.785 561.362,473.128 562.195,472.27C563.407,471.008 563.71,469.392 563.71,467.221ZM561.135,467.221C561.135,468.61 561.034,469.948 560.251,470.73C559.772,471.21 559.115,471.488 558.358,471.488C557.601,471.488 556.97,471.21 556.49,470.73C555.708,469.948 555.606,468.61 555.606,467.221C555.606,465.833 555.708,464.495 556.49,463.712C556.97,463.233 557.601,462.98 558.358,462.98C559.115,462.98 559.772,463.233 560.251,463.712C561.034,464.495 561.135,465.833 561.135,467.221ZM575.717,461.895C574.833,461.011 573.899,460.683 572.662,460.683C571.223,460.683 569.911,461.314 569.254,462.223L569.254,460.834L566.73,460.834L566.73,473.633L569.305,473.633L569.305,465.858C569.305,464.091 570.466,462.98 571.854,462.98C572.738,462.98 573.192,463.258 573.773,463.838L575.717,461.895ZM582.699,473.633L582.699,471.437L581.639,471.437C580.68,471.437 580.226,470.882 580.226,469.948L580.226,463.03L582.699,463.03L582.699,461.061L580.226,461.061L580.226,457.174L577.651,457.174L577.651,461.061L576.187,461.061L576.187,463.03L577.651,463.03L577.651,470.074C577.651,471.917 578.762,473.633 581.16,473.633L582.699,473.633Z" style="fill:rgb(35,25,22);fill-rule:nonzero;"/>
            </g>
        </g>
    </g>
</svg>
