<?xml version="1.0" encoding="UTF-8" standalone="no"?>
<!DOCTYPE svg PUBLIC "-//W3C//DTD SVG 1.1//EN" "http://www.w3.org/Graphics/SVG/1.1/DTD/svg11.dtd">
<svg width="100%" height="100%" viewBox="0 0 202 59" version="1.1" xmlns="http://www.w3.org/2000/svg" xmlns:xlink="http://www.w3.org/1999/xlink" xml:space="preserve" xmlns:serif="http://www.serif.com/" style="fill-rule:evenodd;clip-rule:evenodd;stroke-linejoin:round;stroke-miterlimit:2;">
    <g transform="matrix(1,0,0,1,-4412,-107)">
        <g transform="matrix(1,0,0,1,4018.11,0)">
            <g transform="matrix(1,0,0,1,0,-613.077)">
                <path d="M441.72,720.703C441.8,720.704 441.906,720.714 441.997,720.731C443.43,720.992 446.26,722.989 449.091,725.821C452.592,729.322 454.877,732.882 454.033,733.727C453.495,734.264 452.159,733.525 449.982,732.099C447.611,730.653 444.675,729.745 441.72,729.762C438.766,729.745 435.855,730.657 433.485,732.103C431.274,733.525 429.937,734.256 429.399,733.718C428.555,732.873 430.849,729.322 434.35,725.821C437.181,722.989 440.012,720.992 441.443,720.731C441.535,720.714 441.64,720.704 441.72,720.703" style="fill:rgb(0,89,29);"/>
            </g>
            <g transform="matrix(1,0,0,1,0,-604.619)">
                <path d="M432.459,716.473C432.539,716.476 432.646,716.485 432.738,716.502C434.169,716.764 436.999,718.76 439.83,721.592C443.332,725.092 445.617,728.653 444.772,729.497C444.233,730.036 442.898,729.296 440.721,727.87C438.351,726.424 435.413,725.517 432.46,725.533C429.505,725.517 426.594,726.428 424.223,727.874C422.014,729.296 420.677,730.027 420.139,729.488C419.295,728.644 421.589,725.092 425.089,721.592C427.921,718.76 430.751,716.764 432.183,716.502C432.274,716.485 432.379,716.476 432.459,716.473" style="fill:rgb(198,216,0);"/>
            </g>
            <g transform="matrix(1,0,0,1,0,-556.425)">
                <path d="M452.965,687.752C453.073,687.758 453.225,687.808 453.419,687.899C453.615,687.99 453.855,688.141 454.136,688.345C454.415,688.547 454.625,688.727 454.768,688.885C454.909,689.039 454.978,689.219 454.98,689.429C454.982,689.639 454.903,689.811 454.74,689.946C454.577,690.081 454.411,690.142 454.234,690.128C454.099,690.126 453.944,690.071 453.781,689.965L453.084,689.446C452.697,689.189 452.469,689.025 452.403,688.962C452.332,688.898 452.272,688.76 452.219,688.547C452.168,688.334 452.23,688.149 452.407,687.987C452.585,687.827 452.77,687.749 452.965,687.752ZM442.179,683.691L434.598,683.691C433.651,683.691 432.751,683.833 431.946,684.164C431.093,684.448 430.335,685.017 429.624,685.68C428.961,686.391 428.392,687.149 428.108,688.002C427.824,688.807 427.682,689.707 427.682,690.655L427.682,696.576C427.682,697.524 427.824,698.424 428.108,699.229C428.392,700.035 428.913,700.793 429.577,701.456C430.288,702.167 431.045,702.736 431.898,703.067C432.751,703.399 433.651,703.493 434.598,703.493L439.62,703.493L439.62,705.767C439.62,705.909 439.573,706.051 439.526,706.146C439.526,706.288 439.478,706.43 439.383,706.573C439.099,706.999 438.625,707.283 438.057,707.283L431.898,707.283C431.045,707.283 430.335,707.994 430.335,708.847L430.335,711.121C430.382,711.974 431.045,712.684 431.898,712.684L438.294,712.684C441.942,712.684 444.879,709.747 444.879,706.099L444.879,686.391C444.879,685.68 444.642,685.017 444.121,684.496C443.6,683.975 442.937,683.691 442.179,683.691ZM439.62,689.091L439.62,696.861C439.62,697.714 438.91,698.424 438.057,698.424L434.741,698.424C433.841,698.424 433.178,697.714 433.178,696.861L433.178,690.655C433.178,689.802 433.841,689.091 434.693,689.091L439.62,689.091ZM418.965,683.691L413.848,683.691L413.848,677.863C413.848,677.058 413.185,676.442 412.427,676.395L409.963,676.395C409.111,676.395 408.447,677.058 408.447,677.863L408.447,701.977C408.447,702.783 409.111,703.493 409.963,703.493L412.427,703.493C413.185,703.446 413.848,702.783 413.848,701.977L413.848,690.56C413.848,690.56 413.801,689.991 414.274,689.518C414.369,689.423 414.464,689.376 414.606,689.281C414.843,689.186 415.08,689.091 415.412,689.091L418.68,689.091C419.391,689.091 420.007,689.565 420.196,690.276C420.244,690.37 420.244,690.465 420.244,690.56L420.244,701.977C420.244,702.783 420.907,703.493 421.712,703.493L424.176,703.493C424.934,703.446 425.597,702.783 425.597,701.977L425.597,690.323C425.597,686.675 422.613,683.691 418.965,683.691ZM407.252,706.071L410.385,706.071L410.412,706.099L410.439,706.153L410.467,706.208L410.467,706.617L410.439,706.671L410.385,706.726L404.166,706.726L404.166,710.299L404.111,710.9L404.056,711.391L403.947,711.772L403.811,712.1L403.647,712.345L403.456,712.564L403.21,712.755L402.72,712.1L402.883,711.936L403.02,711.718L403.129,711.473L403.21,711.199L403.265,710.845L403.293,710.436L403.32,709.372L403.32,706.153L403.347,706.099L403.401,706.071L406.948,706.071L406.811,705.935L406.511,705.717L406.184,705.553L405.829,705.471L405.693,705.417L405.611,705.362L405.584,705.307L405.611,705.28L405.666,705.225L405.775,705.171L406.048,705.117L406.348,705.089L406.675,705.117L407.002,705.144L407.33,705.225L407.603,705.307L407.821,705.389L407.957,705.498L407.252,706.071ZM397.973,711.281L398.383,711.5L398.355,711.636L398.328,711.8L398.164,712.127L398.055,712.291L397.946,712.454L397.81,712.591L397.673,712.7L396.8,712.427L396.773,712.4L396.773,712.345L396.8,712.291L397.073,712.072L397.291,711.827L397.455,711.581L397.564,711.336L397.619,711.281L396.937,711.281L396.909,711.254L396.882,711.199L396.855,711.145L396.855,709.781L396.5,710.163L395.927,709.072L395.927,712.673L395.9,712.727L395.846,712.755L395.136,712.755L395.109,712.727L395.082,712.673L395.054,712.618L395.054,709.836L394.973,710.054L394.809,710.327L394.618,710.627L394.4,710.927L393.936,710.245L394.318,709.563L394.509,709.208L394.673,708.826L394.809,708.472L394.946,708.09L395.027,707.735L395.054,707.381L394.182,707.381L394.127,707.353L394.072,707.326L394.045,707.299L394.045,706.753L394.072,706.699L394.127,706.671L395.054,706.671L395.054,705.307L395.082,705.253L395.109,705.198L395.136,705.171L395.846,705.171L395.9,705.198L395.927,705.253L395.927,706.671L396.664,706.671L396.691,706.699L396.719,706.753L396.719,707.135L398.028,707.135L398.028,706.48L396.937,706.48L396.882,706.453L396.855,706.398L396.855,705.907L396.882,705.853L396.937,705.826L398.028,705.826L398.028,705.171L398.055,705.117L398.11,705.089L398.819,705.089L398.846,705.117L398.901,705.225L398.901,705.826L399.746,705.826L399.746,705.225L399.801,705.117L399.828,705.089L400.537,705.089L400.592,705.117L400.619,705.171L400.619,705.826L401.82,705.826L401.874,705.853L401.901,705.907L401.901,706.398L401.874,706.453L401.82,706.48L400.619,706.48L400.619,707.135L401.901,707.135L401.956,707.162L401.983,707.19L402.011,707.217L402.038,707.272L402.038,707.708L402.011,707.762L401.983,707.79L401.956,707.817L399.773,707.817L399.773,708.226L401.683,708.226L401.738,708.253L401.792,708.281L401.82,708.308L401.82,711.199L401.792,711.254L401.738,711.281L401.11,711.281L401.138,711.336L401.247,711.581L401.438,711.827L401.656,712.072L401.929,712.291L401.956,712.345L401.929,712.4L401.901,712.427L401.028,712.7L400.892,712.591L400.756,712.454L400.647,712.291L400.537,712.127L400.401,711.8L400.346,711.636L400.319,711.5L400.756,711.281L397.973,711.281ZM415.623,716.082L415.486,715.946L415.35,715.809L415.05,715.591L414.722,715.428L414.368,715.319L414.231,715.291L414.122,715.209L414.122,715.182L414.149,715.128L414.204,715.101L414.313,715.046L414.559,714.991L414.886,714.964L415.213,714.991L415.541,715.018L415.868,715.101L416.141,715.182L416.359,715.264L416.468,715.373L415.623,716.082ZM397.919,720.447L396.882,720.447L396.882,718.155L395.027,718.155L395.027,720.447L393.963,720.447L393.963,715.018L395.027,715.018L395.027,717.228L396.882,717.228L396.882,715.018L397.919,715.018L397.919,720.447ZM402.065,718.756L399.583,718.756L399.61,718.947L399.665,719.11L399.719,719.247L399.828,719.383L399.937,719.492L400.101,719.574L400.264,719.629L400.756,719.629L400.974,719.547L401.165,719.438L401.356,719.274L401.956,719.847L401.82,720.01L401.656,720.12L401.492,720.229L401.329,720.311L401.138,720.392L400.947,720.447L400.701,720.474L400.21,720.474L399.992,720.447L399.773,720.392L399.555,720.311L399.364,720.201L399.173,720.065L399.037,719.901L398.901,719.683L398.764,719.438L398.682,719.165L398.628,718.81L398.628,718.456L398.655,717.992L398.682,717.774L398.737,717.583L398.819,717.392L398.901,717.228L398.983,717.092L399.092,716.955L399.228,716.819L399.364,716.71L399.501,716.628L399.637,716.546L399.801,716.491L399.965,716.464L400.156,716.437L400.346,716.41L400.619,716.437L400.865,716.491L401.083,716.573L401.301,716.655L401.465,716.791L401.628,716.955L401.765,717.146L401.874,717.337L401.956,717.555L402.038,717.801L402.065,718.046L402.065,718.756ZM401.138,718.074L401.11,717.855L401.028,717.637L400.947,717.474L400.783,717.337L400.701,717.283L400.592,717.255L400.374,717.228L400.128,717.255L400.019,717.283L399.937,717.337L399.801,717.474L399.692,717.637L399.61,717.855L399.583,718.074L401.138,718.074ZM405.966,720.447L404.984,720.447L404.984,717.855L404.929,717.692L404.875,717.555L404.766,717.474L404.684,717.392L404.575,717.337L404.465,717.31L404.22,717.31L404.084,717.337L403.974,717.392L403.893,717.474L403.784,717.555L403.729,717.692L403.702,717.855L403.674,718.046L403.674,720.447L402.692,720.447L402.692,716.464L403.647,716.464L403.647,716.819L403.865,716.655L404.111,716.519L404.357,716.437L404.629,716.41L404.929,716.437L405.175,716.519L405.393,716.628L405.584,716.764L405.693,716.901L405.775,717.01L405.857,717.146L405.884,717.283L405.966,717.583L405.966,720.447ZM409.866,720.283L409.839,720.638L409.757,720.938L409.676,721.102L409.594,721.211L409.512,721.347L409.403,721.456L409.266,721.565L409.157,721.674L408.994,721.756L408.857,721.811L408.503,721.893L408.121,721.92L407.712,721.893L407.521,721.865L407.33,721.811L407.166,721.756L407.002,721.674L406.839,721.538L406.703,721.402L407.303,720.802L407.466,720.938L407.657,721.02L407.848,721.074L408.093,721.102L408.285,721.074L408.448,721.02L408.584,720.938L408.693,720.829L408.775,720.72L408.83,720.583L408.885,720.419L408.885,719.874L408.693,720.065L408.448,720.174L408.203,720.229L407.93,720.256L407.657,720.229L407.411,720.174L407.193,720.065L407.002,719.901L406.866,719.765L406.784,719.601L406.703,719.438L406.648,719.247L406.593,718.81L406.593,717.855L406.648,717.419L406.703,717.255L406.784,717.064L406.866,716.901L407.002,716.764L407.193,716.628L407.411,716.519L407.657,716.437L407.957,716.41L408.23,716.437L408.475,716.519L408.693,716.655L408.912,716.846L408.912,716.464L409.866,716.464L409.866,720.283ZM408.885,718.592L408.885,718.128L408.857,717.965L408.83,717.774L408.775,717.637L408.693,717.501L408.584,717.392L408.421,717.337L408.23,717.31L408.039,717.337L407.875,717.392L407.766,717.501L407.684,717.637L407.63,717.774L407.603,717.965L407.575,718.128L407.575,718.592L407.63,718.837L407.684,719.056L407.793,719.219L407.875,719.274L407.985,719.328L408.093,719.356L408.23,719.383L408.366,719.356L408.475,719.328L408.584,719.274L408.666,719.219L408.775,719.056L408.83,718.837L408.885,718.592ZM413.849,720.447L412.867,720.447L412.867,720.065L412.676,720.256L412.431,720.392L412.185,720.447L411.885,720.474L411.612,720.447L411.34,720.392L411.121,720.283L410.93,720.12L410.794,719.956L410.685,719.765L410.603,719.574L410.576,719.356L410.521,718.892L410.521,717.992L410.576,717.528L410.603,717.31L410.685,717.119L410.794,716.928L410.93,716.764L411.094,716.628L411.34,716.519L411.612,716.437L411.885,716.41L412.158,716.437L412.431,716.519L412.649,716.628L412.84,716.819L412.84,715.018L413.849,715.018L413.849,720.447ZM412.84,718.892L412.84,717.992L412.785,717.801L412.731,717.637L412.649,717.501L412.54,717.392L412.376,717.337L412.185,717.31L411.967,717.337L411.831,717.392L411.694,717.501L411.612,717.637L411.558,717.801L411.53,717.992L411.503,718.21L411.503,718.674L411.53,718.892L411.558,719.083L411.612,719.247L411.694,719.41L411.831,719.492L411.967,719.574L412.185,719.601L412.376,719.574L412.54,719.492L412.649,719.41L412.731,719.247L412.785,719.083L412.84,718.892ZM415.623,720.447L414.64,720.447L414.64,716.464L415.623,716.464L415.623,720.447ZM419.441,720.419L418.46,720.419L418.46,720.092L418.268,720.256L418.05,720.365L417.805,720.447L417.477,720.474L417.177,720.447L416.904,720.392L416.659,720.256L416.468,720.12L416.331,719.928L416.222,719.71L416.168,719.492L416.141,719.219L416.168,719.001L416.222,718.783L416.331,718.592L416.468,718.401L416.659,718.265L416.904,718.155L417.177,718.101L417.505,718.074L418.432,718.074L418.432,717.719L418.405,717.583L418.35,717.501L418.268,717.392L418.159,717.337L418.05,717.283L417.886,717.255L417.696,717.255L417.45,717.283L417.259,717.337L417.095,717.419L416.932,717.583L416.304,716.955L416.441,716.819L416.605,716.71L416.768,716.601L416.932,716.519L417.095,716.464L417.286,716.437L417.505,716.41L417.75,716.41L418.132,716.437L418.487,716.491L418.759,716.601L419.005,716.764L419.087,716.846L419.196,716.955L419.25,717.064L419.332,717.201L419.387,717.501L419.441,717.828L419.441,720.419ZM418.432,719.138L418.432,718.756L417.641,718.756L417.396,718.783L417.313,718.81L417.232,718.865L417.15,718.919L417.123,719.001L417.095,719.11L417.068,719.192L417.095,719.301L417.123,719.383L417.15,719.465L417.205,719.547L417.286,719.601L417.396,719.629L417.532,719.656L417.859,719.656L418.023,719.629L418.159,719.574L418.296,719.465L418.35,719.383L418.405,719.274L418.432,719.138ZM423.478,720.447L422.497,720.447L422.497,718.046L422.469,717.855L422.442,717.692L422.36,717.555L422.278,717.474L422.169,717.392L422.06,717.337L421.951,717.31L421.705,717.31L421.596,717.337L421.487,717.392L421.378,717.474L421.296,717.555L421.242,717.692L421.187,717.855L421.16,718.046L421.16,720.447L420.178,720.447L420.178,716.464L421.16,716.464L421.16,716.819L421.351,716.655L421.596,716.519L421.869,716.437L422.142,716.41L422.415,716.437L422.66,716.519L422.878,716.628L423.069,716.764L423.179,716.901L423.26,717.01L423.342,717.146L423.397,717.283L423.451,717.583L423.478,717.91L423.478,720.447ZM429.971,718.21L429.943,718.756L429.916,718.974L429.861,719.192L429.78,719.383L429.698,719.547L429.589,719.71L429.453,719.874L429.289,720.01L429.098,720.147L428.934,720.256L428.743,720.338L428.552,720.392L428.334,720.447L428.143,720.474L427.707,720.474L427.488,720.447L427.297,720.392L427.107,720.338L426.943,720.229L426.752,720.147L426.616,720.01L426.452,719.874L426.343,719.738L426.233,719.601L426.152,719.438L426.07,719.301L425.988,718.947L425.934,718.565L425.934,716.873L425.988,716.491L426.07,716.164L426.152,716.001L426.233,715.837L426.343,715.7L426.452,715.564L426.588,715.428L426.752,715.291L426.915,715.209L427.107,715.128L427.297,715.046L427.488,715.018L427.707,714.964L427.925,714.964L428.225,714.991L428.498,715.018L428.743,715.101L428.961,715.209L429.18,715.346L429.343,715.482L429.507,715.646L429.643,715.837L429.753,716.055L429.834,716.246L429.916,716.464L429.971,716.71L428.907,716.71L428.852,716.519L428.77,716.355L428.689,716.219L428.552,716.11L428.443,716.028L428.28,715.973L428.116,715.919L427.707,715.919L427.516,716.001L427.38,716.082L427.243,716.192L427.161,716.328L427.079,716.464L427.025,716.655L426.997,716.901L426.97,717.719L426.997,718.538L427.025,718.783L427.079,718.974L427.161,719.138L427.243,719.247L427.38,719.383L427.516,719.465L427.707,719.519L427.925,719.547L428.143,719.519L428.361,719.465L428.525,719.356L428.662,719.219L428.77,719.083L428.852,718.892L428.907,718.701L428.907,718.292L427.925,718.292L427.925,717.419L429.971,717.419L429.971,718.21ZM433.544,716.791L432.808,717.555L432.699,717.446L432.59,717.364L432.453,717.31L432.18,717.31L432.071,717.364L431.962,717.419L431.853,717.474L431.771,717.583L431.716,717.719L431.662,717.855L431.635,718.046L431.635,720.419L430.653,720.419L430.653,716.464L431.635,716.464L431.635,716.846L431.798,716.683L432.044,716.546L432.18,716.491L432.317,716.464L432.617,716.41L432.89,716.437L433.135,716.491L433.353,716.628L433.544,716.791ZM436.818,717.965L436.818,718.947L436.791,719.165L436.736,719.356L436.681,719.519L436.599,719.683L436.49,719.847L436.381,719.983L436.163,720.174L435.89,720.338L435.727,720.392L435.563,720.447L435.345,720.474L434.936,720.474L434.745,720.447L434.553,720.392L434.39,720.338L434.117,720.174L433.926,719.983L433.79,719.847L433.708,719.683L433.626,719.519L433.571,719.356L433.49,718.947L433.462,718.456L433.49,717.965L433.571,717.555L433.626,717.364L433.708,717.201L433.79,717.037L434.117,716.71L434.39,716.573L434.553,716.491L434.936,716.437L435.154,716.41L435.345,716.437L435.563,716.464L435.727,716.491L435.89,716.573L436.163,716.71L436.381,716.901L436.49,717.037L436.599,717.201L436.681,717.364L436.736,717.555L436.818,717.965ZM435.836,718.728L435.836,718.155L435.808,717.883L435.781,717.774L435.727,717.664L435.672,717.583L435.617,717.474L435.508,717.419L435.29,717.31L435.017,717.31L434.881,717.364L434.772,717.419L434.69,717.474L434.608,717.583L434.553,717.664L434.526,717.774L434.499,717.883L434.472,718.155L434.472,718.728L434.499,719.001L434.526,719.138L434.553,719.219L434.608,719.328L434.69,719.41L434.772,719.492L434.881,719.547L435.017,719.574L435.154,719.601L435.29,719.574L435.399,719.547L435.508,719.492L435.617,719.41L435.672,719.328L435.727,719.219L435.808,719.001L435.836,718.728ZM440.718,720.447L439.736,720.447L439.736,720.065L439.546,720.256L439.3,720.365L439.027,720.447L438.754,720.474L438.482,720.447L438.209,720.392L437.99,720.283L437.718,720.01L437.609,719.874L437.554,719.738L437.499,719.601L437.445,719.328L437.418,719.001L437.418,716.464L438.4,716.464L438.4,718.865L438.427,719.056L438.454,719.192L438.536,719.328L438.618,719.438L438.727,719.492L438.836,719.547L438.945,719.574L439.054,719.601L439.191,719.574L439.3,719.547L439.409,719.492L439.518,719.438L439.6,719.328L439.655,719.192L439.709,719.056L439.709,716.464L440.718,716.464L440.718,720.447ZM444.837,717.992L444.837,718.892L444.783,719.356L444.728,719.574L444.674,719.765L444.565,719.956L444.428,720.12L444.237,720.256L444.019,720.392L443.746,720.447L443.473,720.474L443.174,720.447L442.928,720.392L442.819,720.338L442.71,720.256L442.492,720.092L442.492,721.893L441.51,721.893L441.51,716.464L442.464,716.464L442.464,716.846L442.682,716.655L442.928,716.519L443.174,716.437L443.473,716.41L443.746,716.437L444.019,716.519L444.237,716.628L444.428,716.764L444.565,716.928L444.674,717.119L444.728,717.31L444.783,717.528L444.837,717.992ZM443.856,718.674L443.856,718.21L443.828,717.992L443.773,717.801L443.746,717.637L443.637,717.501L443.528,717.392L443.364,717.337L443.174,717.31L442.983,717.337L442.819,717.392L442.71,717.501L442.628,717.637L442.573,717.801L442.519,717.992L442.519,718.21L442.492,718.456L442.519,718.674L442.519,718.892L442.573,719.083L442.628,719.247L442.71,719.41L442.819,719.492L442.983,719.574L443.364,719.574L443.528,719.492L443.637,719.41L443.746,719.247L443.773,719.083L443.828,718.892L443.856,718.674ZM413.058,710.027L413.058,710.572L414.804,710.572L414.804,710.027L413.058,710.027ZM413.058,708.935L413.058,709.481L414.804,709.481L414.804,708.935L413.058,708.935ZM413.058,707.844L413.058,708.39L414.804,708.39L414.804,707.844L413.058,707.844ZM413.058,706.726L413.058,707.299L414.804,707.299L414.804,706.726L413.058,706.726ZM415.65,712.782L414.886,712.782L414.859,712.755L414.831,712.7L414.831,711.254L413.467,711.254L413.795,711.418L413.686,711.636L413.549,711.827L413.249,712.182L412.922,712.509L412.594,712.782L411.749,712.454L411.721,712.427L411.721,712.4L411.749,712.345L412.131,712.045L412.403,711.772L412.649,711.527L412.867,711.254L411.312,711.254L411.258,711.227L411.231,711.172L411.231,710.654L411.258,710.627L411.312,710.599L411.367,710.572L412.131,710.572L412.131,707.435L412.049,707.49L411.694,707.708L411.394,707.872L411.258,707.026L411.503,706.862L411.749,706.671L411.994,706.453L412.213,706.208L412.403,705.962L412.567,705.69L412.731,705.444L412.84,705.198L413.795,705.307L413.631,705.69L413.413,706.071L415.431,706.071L415.322,705.962L415.159,705.853L414.913,705.717L414.586,705.58L415.295,705.089L415.595,705.225L415.95,705.389L416.304,705.58L416.523,705.771L416.148,706.071L418.787,706.071L418.814,706.099L418.841,706.153L418.869,706.208L418.869,706.617L418.841,706.671L418.814,706.699L418.787,706.726L415.731,706.726L415.731,707.299L418.487,707.299L418.541,707.353L418.568,707.408L418.568,707.708L418.541,707.762L418.514,707.79L418.487,707.817L418.432,707.844L415.731,707.844L415.731,708.39L418.487,708.39L418.514,708.417L418.568,708.526L418.568,708.799L418.541,708.854L418.514,708.881L418.487,708.908L418.432,708.935L415.731,708.935L415.731,709.481L418.487,709.481L418.514,709.508L418.568,709.617L418.568,709.89L418.541,709.945L418.514,709.999L418.487,710.027L415.731,710.027L415.731,710.572L419.087,710.572L419.141,710.599L419.168,710.627L419.196,710.654L419.196,711.172L419.168,711.227L419.141,711.254L417.559,711.254L417.805,711.527L418.05,711.8L418.35,712.045L418.677,712.345L418.705,712.4L418.705,712.427L418.677,712.454L417.832,712.782L417.477,712.509L417.15,712.182L416.877,711.827L416.741,711.609L416.632,711.418L416.959,711.254L415.731,711.254L415.731,712.7L415.704,712.755L415.65,712.782ZM409.103,711.8L409.103,710.299L405.529,710.299L405.529,711.8L409.103,711.8ZM409.894,712.482L404.738,712.482L404.711,712.454L404.684,712.4L404.656,712.345L404.656,709.727L404.684,709.672L404.711,709.645L404.738,709.617L404.793,709.59L406.402,709.59L406.402,707.326L406.429,707.272L406.457,707.217L406.484,707.19L407.248,707.19L407.275,707.217L407.303,707.272L407.33,707.326L407.33,708.063L410.14,708.063L410.194,708.09L410.221,708.144L410.221,708.663L410.194,708.69L410.14,708.717L407.33,708.717L407.33,709.59L409.839,709.59L409.894,709.617L409.921,709.645L409.948,709.672L409.976,709.727L409.976,712.345L409.948,712.4L409.921,712.454L409.894,712.482ZM423.397,710.954L423.424,710.9L423.451,710.872L423.478,710.845L423.533,710.818L423.942,710.818L424.051,710.79L424.133,710.736L424.188,710.681L424.215,710.599L424.242,710.517L424.242,708.499L424.106,708.499L423.942,708.935L423.724,709.345L423.478,709.699L423.233,710.027L422.96,710.327L422.688,710.572L422.442,710.79L422.224,710.981L421.787,710.409L421.978,710.272L422.169,710.108L422.469,709.808L422.688,709.481L422.878,709.181L423.042,708.908L423.124,708.69L423.206,708.499L421.787,708.499L421.733,708.472L421.705,708.444L421.678,708.417L421.678,707.817L421.705,707.762L421.76,707.735L424.242,707.735L424.242,706.972L424.27,706.917L424.297,706.862L424.324,706.835L425.088,706.835L425.115,706.862L425.142,706.917L425.142,707.735L426.097,707.735L426.125,707.762L426.152,707.817L426.179,707.872L426.179,708.363L426.152,708.417L426.125,708.444L426.097,708.472L426.043,708.499L425.142,708.499L425.142,710.818L425.061,711.008L424.951,711.145L424.815,711.281L424.652,711.363L424.488,711.445L424.324,711.473L423.478,711.473L423.451,711.445L423.424,711.391L423.397,711.363L423.397,710.954ZM398.901,706.48L398.901,707.162L399.746,707.162L399.746,706.48L398.901,706.48ZM398.901,707.817L396.719,707.817L396.664,707.79L396.636,707.762L396.636,707.381L395.927,707.381L395.927,707.844L396.2,708.144L396.5,708.499L396.773,708.881L396.855,709.017L396.855,708.363L396.882,708.308L396.909,708.281L396.937,708.253L396.991,708.226L398.901,708.226L398.901,707.817ZM397.673,710.681L398.901,710.681L398.901,710.054L397.673,710.054L397.673,710.681ZM397.673,708.854L397.673,709.481L398.901,709.481L398.901,708.854L397.673,708.854ZM399.773,710.681L401.001,710.681L401.001,710.054L399.773,710.054L399.773,710.681ZM401.001,709.481L401.001,708.854L399.773,708.854L399.773,709.481L401.001,709.481ZM421.187,711.936L426.588,711.936L426.588,706.344L421.187,706.344L421.187,711.936ZM420.314,705.607L427.407,705.607L427.461,705.635L427.488,705.69L427.488,712.618L427.461,712.645L427.407,712.673L427.352,712.7L420.369,712.7L420.314,712.673L420.287,712.645L420.26,712.618L420.232,712.564L420.232,705.744L420.26,705.69L420.287,705.635L420.314,705.607ZM594.012,706.538L594.012,705.234L595.171,705.234L595.171,706.538L594.012,706.538ZM593.303,706.538L592.22,706.538L592.22,705.813C592.04,706.095 591.83,706.305 591.587,706.441C591.347,706.579 591.099,706.646 590.857,706.646C590.353,706.646 589.923,706.419 589.566,705.963C589.21,705.505 589.033,704.869 589.033,704.054C589.033,703.219 589.202,702.581 589.552,702.147C589.901,701.714 590.34,701.495 590.872,701.495C591.36,701.495 591.783,701.724 592.14,702.18L592.14,699.736L593.303,699.736L593.303,706.538ZM590.22,703.965C590.22,704.49 590.286,704.872 590.414,705.107C590.602,705.447 590.864,705.617 591.2,705.617C591.465,705.617 591.692,705.489 591.877,705.234C592.065,704.98 592.162,704.598 592.162,704.092C592.162,703.526 592.068,703.119 591.889,702.869C591.706,702.62 591.474,702.496 591.192,702.496C590.916,702.496 590.683,702.618 590.498,702.864C590.313,703.111 590.22,703.479 590.22,703.965ZM588.911,701.606L588.911,702.645L588.122,702.645L588.122,704.631C588.122,705.035 588.13,705.27 588.145,705.336C588.158,705.403 588.192,705.458 588.245,705.503C588.296,705.545 588.362,705.568 588.435,705.568C588.543,705.568 588.696,705.526 588.897,705.441L588.994,706.452C588.726,706.582 588.422,706.646 588.084,706.646C587.877,706.646 587.689,706.607 587.526,706.529C587.358,706.452 587.236,706.35 587.158,706.223C587.081,706.098 587.025,705.93 586.998,705.717C586.973,705.562 586.962,705.253 586.962,704.795L586.962,702.645L586.431,702.645L586.431,701.606L586.962,701.606L586.962,700.627L588.122,699.854L588.122,701.606L588.911,701.606ZM582.207,706.538L582.207,699.793L583.428,699.793L583.428,705.386L586.459,705.386L586.459,706.538L582.207,706.538ZM578.292,705.234L579.45,705.234L579.45,706.17C579.45,706.546 579.423,706.845 579.368,707.063C579.31,707.279 579.199,707.478 579.039,707.649C578.876,707.821 578.674,707.959 578.426,708.058L578.201,707.516C578.433,707.43 578.599,707.311 578.696,707.16C578.795,707.008 578.848,706.8 578.851,706.538L578.292,706.538L578.292,705.234ZM576.387,706.538L576.387,705.234L577.549,705.234L577.549,706.538L576.387,706.538ZM571.386,704.001C571.386,703.57 571.48,703.15 571.668,702.745C571.859,702.338 572.127,702.029 572.477,701.815C572.825,701.603 573.211,701.495 573.642,701.495C574.306,701.495 574.849,701.739 575.272,702.222C575.695,702.706 575.908,703.319 575.908,704.056C575.908,704.803 575.693,705.419 575.265,705.913C574.838,706.402 574.3,706.646 573.651,706.646C573.25,706.646 572.867,706.546 572.503,706.341C572.136,706.137 571.859,705.838 571.668,705.441C571.48,705.046 571.386,704.568 571.386,704.001ZM572.577,704.071C572.577,704.562 572.68,704.935 572.885,705.195C573.092,705.455 573.344,705.587 573.648,705.587C573.949,705.587 574.203,705.455 574.408,705.195C574.615,704.935 574.718,704.557 574.718,704.062C574.718,703.578 574.615,703.208 574.408,702.944C574.203,702.687 573.949,702.557 573.648,702.557C573.344,702.557 573.092,702.687 572.885,702.944C572.68,703.208 572.577,703.584 572.577,704.071ZM569.883,704.037L571.063,704.447C570.883,705.193 570.58,705.75 570.156,706.115C569.733,706.477 569.194,706.656 568.544,706.656C567.74,706.656 567.079,706.35 566.559,705.73C566.042,705.113 565.781,704.267 565.781,703.197C565.781,702.062 566.042,701.183 566.565,700.555C567.085,699.929 567.77,699.614 568.619,699.614C569.36,699.614 569.96,699.86 570.423,700.352C570.701,700.644 570.905,701.061 571.043,701.606L569.832,701.926C569.762,701.572 569.612,701.296 569.385,701.091C569.158,700.887 568.882,700.785 568.555,700.785C568.106,700.785 567.743,700.967 567.462,701.329C567.181,701.694 567.04,702.28 567.04,703.094C567.04,703.957 567.181,704.571 567.458,704.938C567.736,705.303 568.092,705.486 568.536,705.486C568.862,705.486 569.144,705.37 569.376,705.137C569.612,704.905 569.781,704.538 569.883,704.037ZM562.136,706.538L562.136,705.234L563.297,705.234L563.297,706.538L562.136,706.538ZM557.374,701.606L558.454,701.606L558.454,702.33C558.594,702.081 558.785,701.882 559.023,701.727C559.263,701.572 559.529,701.495 559.822,701.495C560.332,701.495 560.765,701.719 561.121,702.167C561.478,702.618 561.655,703.243 561.655,704.043C561.655,704.866 561.475,705.505 561.118,705.963C560.759,706.419 560.325,706.646 559.815,706.646C559.571,706.646 559.352,706.593 559.156,706.482C558.959,706.374 558.752,706.192 558.534,705.93L558.534,708.408L557.374,708.408L557.374,701.606ZM558.515,703.99C558.515,704.546 558.611,704.953 558.807,705.218C559.001,705.483 559.242,705.617 559.521,705.617C559.792,705.617 560.018,705.497 560.195,705.251C560.375,705.007 560.465,704.609 560.465,704.056C560.465,703.54 560.372,703.155 560.187,702.902C560.002,702.651 559.774,702.526 559.502,702.526C559.217,702.526 558.981,702.651 558.794,702.894C558.606,703.144 558.515,703.506 558.515,703.99ZM552.572,706.538L554.146,703.998L552.642,701.606L554.058,701.606L554.822,702.96L555.63,701.606L556.983,701.606L555.515,703.943L557.132,706.538L555.714,706.538L554.822,705.007L553.925,706.538L552.572,706.538ZM547.945,706.538L547.945,699.736L552.417,699.736L552.417,700.884L549.164,700.884L549.164,702.396L552.188,702.396L552.188,703.548L549.164,703.548L549.164,705.386L552.537,705.386L552.537,706.538L547.945,706.538ZM545.688,705.714L544.986,706.717C544.643,706.529 544.31,706.273 543.995,705.941C543.751,706.19 543.491,706.374 543.215,706.491C542.94,706.607 542.617,706.668 542.235,706.668C541.482,706.668 540.918,706.43 540.54,705.951C540.245,705.581 540.097,705.157 540.097,704.676C540.097,704.242 540.216,703.846 540.444,703.498C540.677,703.15 541.023,702.847 541.482,702.59C541.274,702.313 541.119,702.051 541.015,701.802C540.91,701.553 540.857,701.315 540.857,701.094C540.857,700.683 541.006,700.33 541.296,700.045C541.59,699.758 542.004,699.614 542.546,699.614C543.067,699.614 543.478,699.766 543.768,700.064C544.064,700.363 544.208,700.732 544.208,701.163C544.208,701.44 544.136,701.7 543.995,701.946C543.848,702.195 543.555,702.474 543.117,702.783L543.947,704.043C544.05,703.846 544.133,703.589 544.202,703.274L545.257,703.54C545.152,703.954 545.062,704.261 544.984,704.454C544.906,704.648 544.824,704.808 544.734,704.941C544.864,705.076 545.031,705.226 545.236,705.389C545.442,705.553 545.594,705.659 545.688,705.714ZM542.083,703.426C541.816,703.578 541.617,703.761 541.485,703.976C541.354,704.189 541.288,704.407 541.288,704.631C541.288,704.911 541.371,705.14 541.531,705.317C541.695,705.497 541.913,705.587 542.188,705.587C542.368,705.587 542.544,705.548 542.709,705.464C542.875,705.386 543.058,705.253 543.257,705.066L542.083,703.426ZM542.532,702.006L542.845,701.739C543.075,701.539 543.188,701.337 543.188,701.138C543.188,700.973 543.134,700.829 543.023,700.712C542.914,700.594 542.763,700.536 542.575,700.536C542.391,700.536 542.248,700.588 542.145,700.693C542.04,700.795 541.988,700.914 541.988,701.053C541.988,701.21 542.076,701.407 542.25,701.636L542.532,702.006ZM536.484,706.538L536.484,705.234L537.643,705.234L537.643,706.538L536.484,706.538ZM531.717,701.606L532.798,701.606L532.798,702.33C532.939,702.081 533.13,701.882 533.37,701.727C533.611,701.572 533.876,701.495 534.167,701.495C534.678,701.495 535.109,701.719 535.469,702.167C535.823,702.618 536.002,703.243 536.002,704.043C536.002,704.866 535.82,705.505 535.463,705.963C535.105,706.419 534.67,706.646 534.161,706.646C533.918,706.646 533.699,706.593 533.503,706.482C533.304,706.374 533.095,706.192 532.88,705.93L532.88,708.408L531.717,708.408L531.717,701.606ZM532.86,703.99C532.86,704.546 532.957,704.953 533.152,705.218C533.351,705.483 533.586,705.617 533.868,705.617C534.139,705.617 534.363,705.497 534.544,705.251C534.721,705.007 534.81,704.609 534.81,704.056C534.81,703.54 534.718,703.155 534.533,702.902C534.346,702.651 534.12,702.526 533.848,702.526C533.564,702.526 533.326,702.651 533.14,702.894C532.951,703.144 532.86,703.506 532.86,703.99ZM524.587,701.606L525.656,701.606L525.656,702.277C526.039,701.758 526.495,701.495 527.023,701.495C527.305,701.495 527.547,701.561 527.756,701.689C527.959,701.821 528.13,702.018 528.263,702.283C528.455,702.018 528.663,701.821 528.887,701.689C529.108,701.561 529.348,701.495 529.601,701.495C529.924,701.495 530.196,701.57 530.418,701.714C530.64,701.863 530.807,702.078 530.918,702.363C530.999,702.576 531.037,702.916 531.037,703.385L531.037,706.538L529.879,706.538L529.879,703.722C529.879,703.233 529.839,702.916 529.758,702.772C529.651,702.587 529.486,702.496 529.262,702.496C529.102,702.496 528.944,702.554 528.803,702.662C528.659,702.772 528.555,702.935 528.491,703.152C528.43,703.368 528.397,703.708 528.397,704.17L528.397,706.538L527.237,706.538L527.237,703.835C527.237,703.357 527.218,703.049 527.175,702.908C527.135,702.77 527.07,702.665 526.984,702.598C526.899,702.529 526.78,702.496 526.63,702.496C526.45,702.496 526.291,702.548 526.146,702.659C526.006,702.767 525.903,702.922 525.839,703.128C525.776,703.332 525.747,703.669 525.747,704.142L525.747,706.538L524.587,706.538L524.587,701.606ZM522.723,706.538L522.723,699.736L523.943,699.736L523.943,706.538L522.723,706.538ZM520.07,706.538L518.909,706.538L518.909,704.023C518.909,703.492 518.884,703.147 518.834,702.988C518.787,702.833 518.707,702.711 518.596,702.626C518.486,702.54 518.35,702.496 518.196,702.496C517.995,702.496 517.818,702.557 517.662,702.681C517.505,702.806 517.392,702.969 517.336,703.171C517.276,703.379 517.249,703.755 517.249,704.305L517.249,706.538L516.089,706.538L516.089,701.606L517.168,701.606L517.168,702.33C517.549,701.774 518.025,701.495 518.605,701.495C518.859,701.495 519.091,701.548 519.301,701.65C519.513,701.755 519.672,701.885 519.78,702.048C519.886,702.209 519.964,702.394 520.005,702.595C520.047,702.797 520.07,703.094 520.07,703.476L520.07,706.538ZM512.677,703.128L511.635,702.916C511.754,702.432 511.96,702.076 512.248,701.843C512.536,701.611 512.966,701.495 513.537,701.495C514.057,701.495 514.443,701.565 514.696,701.702C514.95,701.838 515.128,702.015 515.232,702.228C515.335,702.438 515.387,702.828 515.387,703.396L515.368,704.916C515.368,705.35 515.385,705.67 515.423,705.877C515.458,706.082 515.526,706.303 515.629,706.538L514.479,706.538C514.446,706.452 514.41,706.319 514.364,706.15C514.344,706.073 514.333,706.021 514.325,705.998C514.129,706.214 513.916,706.374 513.689,706.482C513.465,706.593 513.225,706.646 512.971,706.646C512.518,706.646 512.164,706.51 511.905,706.236C511.643,705.963 511.516,705.617 511.516,705.195C511.516,704.919 511.572,704.67 511.693,704.457C511.812,704.239 511.978,704.073 512.19,703.957C512.402,703.843 512.709,703.742 513.111,703.656C513.653,703.54 514.027,703.435 514.237,703.335L514.237,703.205C514.237,702.95 514.179,702.767 514.071,702.659C513.96,702.548 513.75,702.496 513.446,702.496C513.236,702.496 513.074,702.54 512.957,702.634C512.843,702.728 512.746,702.891 512.677,703.128ZM514.237,704.186C514.087,704.242 513.853,704.308 513.532,704.382C513.214,704.46 513.003,704.535 512.901,704.607C512.752,704.728 512.677,704.877 512.677,705.06C512.677,705.242 512.737,705.397 512.857,705.531C512.978,705.661 513.132,705.728 513.316,705.728C513.526,705.728 513.725,705.65 513.916,705.497C514.054,705.381 514.148,705.24 514.19,705.071C514.223,704.96 514.237,704.753 514.237,704.444L514.237,704.186ZM509.894,700.945L509.894,699.736L511.055,699.736L511.055,700.945L509.894,700.945ZM509.894,706.538L509.894,701.606L511.055,701.606L511.055,706.538L509.894,706.538ZM509.18,706.538L508.101,706.538L508.101,705.813C507.922,706.095 507.714,706.305 507.47,706.441C507.227,706.579 506.983,706.646 506.733,706.646C506.23,706.646 505.805,706.419 505.446,705.963C505.09,705.505 504.907,704.869 504.907,704.054C504.907,703.219 505.085,702.581 505.431,702.147C505.78,701.714 506.22,701.495 506.753,701.495C507.239,701.495 507.662,701.724 508.019,702.18L508.019,699.736L509.18,699.736L509.18,706.538ZM506.101,703.965C506.101,704.49 506.164,704.872 506.294,705.107C506.479,705.447 506.742,705.617 507.078,705.617C507.345,705.617 507.573,705.489 507.76,705.234C507.947,704.98 508.04,704.598 508.04,704.092C508.04,703.526 507.949,703.119 507.768,702.869C507.585,702.62 507.351,702.496 507.071,702.496C506.794,702.496 506.565,702.618 506.377,702.864C506.192,703.111 506.101,703.479 506.101,703.965ZM500.325,706.855L501.644,707.038C501.666,707.212 501.719,707.331 501.799,707.398C501.909,707.491 502.084,707.538 502.321,707.538C502.624,707.538 502.851,707.486 503.002,707.386C503.102,707.317 503.181,707.207 503.233,707.055C503.27,706.947 503.286,706.751 503.286,706.458L503.294,705.742C502.945,706.273 502.508,706.538 501.98,706.538C501.39,706.538 500.925,706.256 500.58,705.697C500.309,705.253 500.175,704.704 500.175,704.043C500.175,703.219 500.353,702.587 500.707,702.15C501.061,701.714 501.5,701.495 502.025,701.495C502.568,701.495 503.015,701.766 503.366,702.302L503.366,701.606L504.446,701.606L504.446,706.032C504.446,706.612 504.405,707.046 504.317,707.334C504.232,707.624 504.113,707.848 503.961,708.014C503.806,708.178 503.601,708.306 503.344,708.4C503.086,708.491 502.761,708.538 502.368,708.538C501.625,708.538 501.096,708.394 500.787,708.105C500.477,707.817 500.322,707.456 500.322,707.016C500.322,706.972 500.322,706.919 500.325,706.855ZM501.365,703.973C501.365,704.496 501.456,704.877 501.636,705.124C501.816,705.364 502.037,705.486 502.301,705.486C502.581,705.486 502.822,705.361 503.015,705.113C503.209,704.864 503.306,704.494 503.306,704.007C503.306,703.495 503.214,703.117 503.029,702.866C502.84,702.62 502.605,702.496 502.321,702.496C502.044,702.496 501.816,702.618 501.636,702.861C501.456,703.105 501.365,703.476 501.365,703.973ZM499.676,706.538L498.514,706.538L498.514,704.023C498.514,703.492 498.49,703.147 498.44,702.988C498.39,702.833 498.313,702.711 498.202,702.626C498.089,702.54 497.956,702.496 497.801,702.496C497.604,702.496 497.424,702.557 497.266,702.681C497.109,702.806 496.998,702.969 496.941,703.171C496.882,703.379 496.854,703.755 496.854,704.305L496.854,706.538L495.695,706.538L495.695,701.606L496.773,701.606L496.773,702.33C497.154,701.774 497.631,701.495 498.21,701.495C498.465,701.495 498.697,701.548 498.907,701.65C499.117,701.755 499.278,701.885 499.385,702.048C499.493,702.209 499.568,702.394 499.609,702.595C499.652,702.797 499.676,703.094 499.676,703.476L499.676,706.538ZM493.961,704.966L495.113,705.187C494.963,705.664 494.731,706.026 494.41,706.273C494.091,706.524 493.69,706.646 493.212,706.646C492.45,706.646 491.888,706.366 491.52,705.808C491.235,705.356 491.092,704.792 491.092,704.109C491.092,703.293 491.28,702.651 491.658,702.189C492.037,701.727 492.514,701.495 493.096,701.495C493.745,701.495 494.257,701.739 494.633,702.222C495.008,702.706 495.187,703.448 495.172,704.447L492.282,704.447C492.29,704.833 492.381,705.137 492.559,705.353C492.736,705.57 492.96,705.678 493.226,705.678C493.408,705.678 493.561,705.622 493.682,705.508C493.806,705.395 493.898,705.215 493.961,704.966ZM494.022,703.647C494.013,703.271 493.928,702.983 493.762,702.789C493.602,702.593 493.4,702.496 493.165,702.496C492.913,702.496 492.708,702.598 492.543,702.806C492.38,703.01 492.3,703.293 492.301,703.647L494.022,703.647ZM485.767,706.538L485.767,699.736L486.987,699.736L486.987,702.416L489.379,702.416L489.379,699.736L490.599,699.736L490.599,706.538L489.379,706.538L489.379,703.567L486.987,703.567L486.987,706.538L485.767,706.538ZM478.991,706.855L480.313,707.038C480.335,707.212 480.384,707.331 480.465,707.398C480.575,707.491 480.747,707.538 480.984,707.538C481.288,707.538 481.515,707.486 481.667,707.386C481.769,707.317 481.846,707.207 481.898,707.055C481.935,706.947 481.953,706.751 481.953,706.458L481.959,705.742C481.609,706.273 481.175,706.538 480.647,706.538C480.057,706.538 479.589,706.256 479.248,705.697C478.977,705.253 478.842,704.704 478.842,704.043C478.842,703.219 479.016,702.587 479.373,702.15C479.725,701.714 480.165,701.495 480.691,701.495C481.233,701.495 481.681,701.766 482.033,702.302L482.033,701.606L483.113,701.606L483.113,706.032C483.113,706.612 483.071,707.046 482.986,707.334C482.899,707.624 482.78,707.848 482.626,708.014C482.471,708.178 482.266,708.306 482.008,708.4C481.753,708.491 481.429,708.538 481.031,708.538C480.29,708.538 479.765,708.394 479.453,708.105C479.14,707.817 478.986,707.456 478.986,707.016C478.986,706.972 478.991,706.919 478.991,706.855ZM480.032,703.973C480.032,704.496 480.121,704.877 480.298,705.124C480.481,705.364 480.703,705.486 480.965,705.486C481.247,705.486 481.485,705.361 481.681,705.113C481.876,704.864 481.972,704.494 481.972,704.007C481.972,703.495 481.879,703.117 481.692,702.866C481.507,702.62 481.272,702.496 480.984,702.496C480.708,702.496 480.481,702.618 480.298,702.861C480.121,703.105 480.032,703.476 480.032,703.973ZM478.338,706.538L477.179,706.538L477.179,704.023C477.179,703.492 477.154,703.147 477.107,702.988C477.056,702.833 476.975,702.711 476.866,702.626C476.757,702.54 476.624,702.496 476.467,702.496C476.268,702.496 476.088,702.557 475.931,702.681C475.773,702.806 475.665,702.969 475.607,703.171C475.549,703.379 475.519,703.755 475.519,704.305L475.519,706.538L474.357,706.538L474.357,701.606L475.438,701.606L475.438,702.33C475.817,701.774 476.296,701.495 476.874,701.495C477.129,701.495 477.361,701.548 477.571,701.65C477.781,701.755 477.941,701.885 478.049,702.048C478.159,702.209 478.233,702.394 478.275,702.595C478.319,702.797 478.338,703.094 478.338,703.476L478.338,706.538ZM470.946,703.128L469.905,702.916C470.024,702.432 470.229,702.076 470.521,701.843C470.808,701.611 471.237,701.495 471.81,701.495C472.327,701.495 472.711,701.565 472.967,701.702C473.221,701.838 473.398,702.015 473.503,702.228C473.606,702.438 473.658,702.828 473.658,703.396L473.636,704.916C473.636,705.35 473.655,705.67 473.691,705.877C473.727,706.082 473.797,706.303 473.899,706.538L472.746,706.538C472.717,706.452 472.679,706.319 472.633,706.15C472.617,706.073 472.602,706.021 472.595,705.998C472.397,706.214 472.185,706.374 471.959,706.482C471.735,706.593 471.493,706.646 471.239,706.646C470.788,706.646 470.435,706.51 470.176,706.236C469.916,705.963 469.786,705.617 469.786,705.195C469.786,704.919 469.846,704.67 469.963,704.457C470.081,704.239 470.245,704.073 470.46,703.957C470.675,703.843 470.979,703.742 471.383,703.656C471.922,703.54 472.298,703.435 472.508,703.335L472.508,703.205C472.508,702.95 472.453,702.767 472.341,702.659C472.229,702.548 472.021,702.496 471.715,702.496C471.507,702.496 471.344,702.54 471.228,702.634C471.112,702.728 471.018,702.891 470.946,703.128ZM472.508,704.186C472.36,704.242 472.125,704.308 471.802,704.382C471.483,704.46 471.272,704.535 471.173,704.607C471.021,704.728 470.946,704.877 470.946,705.06C470.946,705.242 471.007,705.397 471.126,705.531C471.248,705.661 471.402,705.728 471.587,705.728C471.798,705.728 471.997,705.65 472.185,705.497C472.325,705.381 472.418,705.24 472.462,705.071C472.492,704.96 472.508,704.753 472.508,704.444L472.508,704.186ZM468.162,700.945L468.162,699.736L469.323,699.736L469.323,700.945L468.162,700.945ZM468.162,706.538L468.162,701.606L469.323,701.606L469.323,706.538L468.162,706.538ZM467.37,701.606L467.37,706.383C467.37,707.01 467.335,707.456 467.262,707.713C467.19,707.973 467.051,708.176 466.842,708.319C466.635,708.466 466.373,708.538 466.053,708.538C465.937,708.538 465.812,708.527 465.679,708.504C465.547,708.48 465.406,708.447 465.25,708.4L465.456,707.287C465.508,707.298 465.561,707.309 465.608,707.317C465.655,707.326 465.699,707.326 465.741,707.326C465.854,707.326 465.953,707.298 466.025,707.24C466.1,707.184 466.149,707.115 466.174,707.035C466.197,706.952 466.21,706.712 466.21,706.311L466.21,701.606L467.37,701.606ZM466.21,700.945L466.21,699.736L467.37,699.736L467.37,700.945L466.21,700.945ZM464.51,704.966L465.66,705.187C465.514,705.664 465.278,706.026 464.956,706.273C464.639,706.524 464.239,706.646 463.758,706.646C462.998,706.646 462.435,706.366 462.072,705.808C461.782,705.356 461.639,704.792 461.639,704.109C461.639,703.293 461.828,702.651 462.206,702.189C462.583,701.727 463.064,701.495 463.642,701.495C464.292,701.495 464.805,701.739 465.182,702.222C465.555,702.706 465.738,703.448 465.718,704.447L462.828,704.447C462.836,704.833 462.931,705.137 463.108,705.353C463.288,705.57 463.509,705.678 463.775,705.678C463.955,705.678 464.106,705.622 464.229,705.508C464.354,705.395 464.446,705.215 464.51,704.966ZM464.568,703.647C464.561,703.271 464.474,702.983 464.311,702.789C464.148,702.593 463.949,702.496 463.714,702.496C463.462,702.496 463.252,702.598 463.092,702.806C462.926,703.01 462.846,703.293 462.849,703.647L464.568,703.647ZM458.395,699.736L458.395,702.233C458.768,701.741 459.216,701.495 459.732,701.495C459.997,701.495 460.238,701.553 460.452,701.664C460.665,701.774 460.825,701.915 460.935,702.09C461.043,702.264 461.118,702.454 461.157,702.665C461.195,702.875 461.214,703.202 461.214,703.645L461.214,706.538L460.055,706.538L460.055,703.935C460.055,703.418 460.034,703.092 459.99,702.952C459.949,702.811 459.87,702.7 459.76,702.618C459.649,702.537 459.509,702.496 459.343,702.496C459.152,702.496 458.981,702.548 458.829,702.653C458.679,702.758 458.569,702.916 458.5,703.13C458.428,703.343 458.395,703.656 458.395,704.068L458.395,706.538L457.234,706.538L457.234,699.736L458.395,699.736ZM451.992,706.538L451.992,705.295L455.187,700.884L452.362,700.884L452.362,699.736L456.784,699.736L456.784,700.807L453.465,705.386L456.903,705.386L456.903,706.538L451.992,706.538ZM592.487,689.028L584.997,689.028C584.844,689.028 584.709,688.962 584.593,688.832C584.476,688.702 584.416,688.528 584.413,688.315C584.407,688.102 584.457,687.929 584.568,687.794C584.679,687.661 584.819,687.592 584.997,687.592L592.487,687.592C592.667,687.592 592.809,687.714 592.914,687.951C593.019,688.193 593.072,688.359 593.072,688.456C593.072,688.553 593.019,688.671 592.914,688.815C592.809,688.959 592.667,689.028 592.487,689.028ZM593.342,686.356L585.419,686.356C585.238,686.356 585.094,686.279 584.984,686.121C584.875,685.963 584.825,685.789 584.833,685.599C584.836,685.433 584.894,685.274 585.003,685.128C585.114,684.984 585.252,684.906 585.419,684.904L593.624,684.889C594.708,684.889 595.293,685.133 595.383,685.621C595.47,686.108 595.513,686.47 595.513,686.713L595.513,694.925C595.513,695.279 595.473,695.551 595.392,695.736C595.31,695.919 595.14,696.099 594.877,696.273C594.617,696.444 594.236,696.538 593.738,696.549C593.529,696.558 593.309,696.541 593.072,696.497C592.834,696.447 592.639,696.35 592.487,696.198C592.331,696.046 592.267,695.842 592.287,695.587C592.311,695.329 592.39,695.152 592.527,695.055C592.662,694.958 592.832,694.917 593.04,694.925L593.455,694.972C593.672,694.975 593.81,694.911 593.862,694.784C593.915,694.654 593.94,694.507 593.94,694.345L593.94,686.937C593.94,686.879 593.923,686.768 593.885,686.602C593.845,686.439 593.666,686.356 593.342,686.356ZM587.319,689.954L590.281,689.954C590.884,689.954 591.333,690.096 591.631,690.374C591.93,690.653 592.082,691.114 592.085,691.752L592.093,692.978C592.093,693.178 592.068,693.396 592.021,693.631C591.977,693.866 591.858,694.068 591.67,694.237C591.482,694.406 591.286,694.505 591.081,694.53C590.875,694.557 590.632,694.568 590.34,694.568L587.319,694.568C587.084,694.568 586.766,694.549 586.362,694.505C585.961,694.463 585.727,694.259 585.662,693.888C585.596,693.518 585.565,693.214 585.565,692.978L585.565,691.554C585.565,691.344 585.594,691.125 585.659,690.898C585.721,690.669 585.861,690.456 586.078,690.255C586.296,690.054 586.71,689.954 587.319,689.954ZM587.602,693.137L590.05,693.137C590.241,693.137 590.369,693.087 590.436,692.983C590.504,692.88 590.538,692.781 590.538,692.687L590.538,691.891C590.538,691.783 590.506,691.667 590.442,691.551C590.377,691.435 590.249,691.38 590.05,691.38L587.602,691.38C587.37,691.38 587.227,691.429 587.175,691.537C587.12,691.639 587.097,691.758 587.097,691.891L587.097,692.668C587.097,692.767 587.128,692.872 587.199,692.978C587.266,693.084 587.401,693.137 587.602,693.137ZM576.094,686.069C575.997,686.254 575.821,686.555 575.559,686.973C575.298,687.39 575.055,687.744 574.834,688.03C574.607,688.315 574.32,688.661 573.968,689.064C573.615,689.471 573.356,689.75 573.194,689.91C573.031,690.068 572.719,690.33 572.259,690.694C571.798,691.059 571.45,691.1 571.207,690.821C570.965,690.539 570.848,690.295 570.858,690.09C570.866,689.935 570.916,689.794 571.006,689.667C571.096,689.54 571.215,689.413 571.358,689.28L572.363,688.451C572.702,688.152 573.044,687.772 573.392,687.313C573.739,686.857 574.027,686.395 574.261,685.933C574.497,685.469 574.676,685.18 574.799,685.058C574.922,684.942 575.084,684.87 575.29,684.842C575.492,684.818 575.7,684.882 575.909,685.034C576.122,685.188 576.227,685.357 576.221,685.541C576.221,685.726 576.177,685.9 576.094,686.069ZM579.23,693.728C579.119,693.557 579.033,693.429 578.978,693.346L578.564,692.765C578.453,692.587 578.399,692.411 578.401,692.234C578.403,692.057 578.5,691.902 578.684,691.758C578.87,691.62 579.061,691.559 579.254,691.576C579.448,691.598 579.638,691.695 579.826,691.866C580.015,692.038 580.356,692.491 580.853,693.233L581.67,694.377C581.781,694.546 581.864,694.698 581.925,694.836C581.989,694.975 582.022,695.155 582.027,695.378C582.035,695.604 581.941,695.786 581.754,695.928C581.56,696.071 581.38,696.146 581.209,696.151C581.032,696.157 580.872,696.115 580.723,696.021C580.571,695.928 580.434,695.764 580.302,695.532L580.078,695.149C578.997,695.298 577.963,695.433 576.979,695.559C575.991,695.684 574.776,695.77 573.331,695.814C573.037,695.828 572.789,695.795 572.589,695.714C572.387,695.637 572.257,695.507 572.196,695.326C572.136,695.146 572.119,694.983 572.141,694.839C572.163,694.685 572.213,694.546 572.292,694.419C572.372,694.292 572.553,694.09 572.832,693.817C573.112,693.543 573.501,693.142 573.999,692.612C574.497,692.084 574.93,691.451 575.295,690.716C575.663,689.982 575.925,689.554 576.083,689.437C576.241,689.318 576.409,689.255 576.584,689.246C576.758,689.241 576.938,689.299 577.125,689.421C577.312,689.54 577.434,689.672 577.493,689.816C577.554,689.957 577.562,690.128 577.515,690.33C577.457,690.581 577.214,690.965 576.786,691.482L575.937,692.577C575.559,693.042 575.24,693.402 574.978,693.656C574.715,693.91 574.585,694.071 574.59,694.134C574.59,694.179 574.941,694.203 575.645,694.203C576.348,694.207 577.543,694.049 579.23,693.728ZM581.67,691.023C581.209,690.896 580.707,690.594 580.167,690.123C579.625,689.648 579.202,689.192 578.9,688.752C578.596,688.315 578.339,687.824 578.128,687.28C577.917,686.74 577.778,686.29 577.709,685.925C577.638,685.557 577.606,685.327 577.608,685.224C577.608,685.036 577.662,684.867 577.763,684.721C577.865,684.575 578.034,684.486 578.266,684.456C578.5,684.425 578.707,684.467 578.887,684.58C579.031,684.674 579.124,684.776 579.168,684.882C579.213,684.984 579.254,685.196 579.29,685.53C579.326,685.858 579.417,686.187 579.553,686.525C579.691,686.862 579.897,687.246 580.167,687.68C580.435,688.119 580.779,688.481 581.195,688.766C581.612,689.05 581.941,689.255 582.174,689.376C582.413,689.501 582.595,689.617 582.722,689.73C582.85,689.841 582.92,689.993 582.934,690.184C582.947,690.374 582.887,690.567 582.764,690.752C582.636,690.943 582.46,691.045 582.234,691.064C582.013,691.087 581.823,691.07 581.67,691.023ZM558.243,695.736L558.243,686.326C558.243,686.047 558.257,685.776 558.285,685.518C558.315,685.257 558.412,685.058 558.578,684.917C558.741,684.776 558.918,684.696 559.098,684.671C559.283,684.646 559.51,684.635 559.778,684.635L560.771,684.635C561.533,684.635 562.025,684.73 562.244,684.912C562.458,685.094 562.573,685.302 562.585,685.532C562.595,685.764 562.541,686.035 562.415,686.345C562.316,686.594 562.186,686.898 562.028,687.26C561.87,687.625 561.744,687.904 561.646,688.105C561.55,688.301 561.489,688.437 561.456,688.506C561.425,688.575 561.412,688.633 561.417,688.677C561.42,688.746 561.484,688.843 561.611,688.962C561.735,689.084 561.868,689.23 562.006,689.404C562.142,689.581 562.262,689.75 562.353,689.922C562.448,690.084 562.53,690.292 562.598,690.539C562.665,690.782 562.7,691.087 562.705,691.443C562.711,691.8 562.628,692.148 562.455,692.485C562.292,692.795 562.064,693.059 561.774,693.264C561.478,693.47 561.177,693.584 560.863,693.612C560.454,693.651 560.184,693.576 560.053,693.377C559.917,693.183 559.845,692.991 559.835,692.809C559.822,692.624 559.855,692.466 559.93,692.342C560.04,692.162 560.187,692.065 560.378,692.051L560.528,692.051C560.816,692.035 560.989,691.88 561.041,691.59C561.093,691.302 561.116,691.092 561.108,690.965C561.091,690.782 561.03,690.583 560.924,690.369C560.823,690.156 560.674,689.94 560.481,689.717C560.291,689.498 560.165,689.349 560.112,689.274C560.06,689.2 560.029,689.119 560.022,689.031C560.012,688.945 560.041,688.799 560.107,688.592L560.732,686.658C560.831,686.345 560.864,686.155 560.829,686.083C560.795,686.013 560.694,685.978 560.528,685.972L560.107,685.963C559.984,685.963 559.89,686 559.825,686.069C559.757,686.135 559.72,686.196 559.706,686.248C559.692,686.304 559.685,686.362 559.685,686.431L559.685,695.736C559.685,695.902 559.617,696.063 559.479,696.212C559.338,696.358 559.15,696.43 558.91,696.422C558.686,696.419 558.52,696.347 558.409,696.218C558.299,696.088 558.243,695.928 558.243,695.736ZM566.736,690.391C566.772,690.583 566.822,690.793 566.877,691.028C566.935,691.263 566.999,691.441 567.068,691.559L567.206,691.822C567.33,691.758 567.458,691.692 567.585,691.617C567.715,691.543 567.879,691.421 568.08,691.25C568.277,691.078 568.485,690.926 568.696,690.788C568.909,690.653 569.133,690.696 569.363,690.918C569.592,691.139 569.705,691.346 569.697,691.545C569.692,691.744 569.634,691.905 569.52,692.032C569.407,692.159 569.1,692.366 568.597,692.657L567.877,693.053C568.005,693.258 568.142,693.46 568.29,693.659C568.438,693.855 568.646,694.046 568.926,694.231L569.675,694.704C569.939,694.925 570.081,695.168 570.098,695.426C570.117,695.687 570.004,695.919 569.751,696.129C569.498,696.336 569.235,696.375 568.965,696.239C568.693,696.107 568.372,695.88 568.002,695.559C567.636,695.237 567.274,694.87 566.919,694.45C566.562,694.032 566.255,693.499 565.997,692.848C565.737,692.198 565.543,691.689 565.413,691.318C565.285,690.948 565.237,690.702 565.271,690.586L565.319,690.388L564.436,690.391L564.436,694.276C564.674,694.052 564.851,693.866 564.974,693.714C565.094,693.562 565.202,693.443 565.299,693.355C565.394,693.269 565.539,693.22 565.726,693.211C565.841,693.205 565.975,693.247 566.126,693.335C566.277,693.424 566.344,693.62 566.324,693.922C566.316,694.065 566.255,694.231 566.136,694.419C566.023,694.605 565.719,694.914 565.23,695.348C564.742,695.784 564.397,696.046 564.201,696.132C564.005,696.22 563.814,696.267 563.632,696.273C563.448,696.281 563.288,696.226 563.148,696.112C563.005,695.996 562.946,695.792 562.963,695.493L563.027,695.066C563.033,695.013 563.04,694.889 563.05,694.693C563.064,694.499 563.068,694.345 563.068,694.231L563.061,686.32C563.058,686.019 563.07,685.754 563.101,685.524C563.13,685.296 563.25,685.083 563.454,684.884C563.665,684.688 564.085,684.588 564.728,684.588L567.018,684.588C567.36,684.588 567.662,684.611 567.928,684.655C568.192,684.699 568.399,684.798 568.55,684.95C568.696,685.105 568.796,685.29 568.84,685.507C568.885,685.726 568.907,685.997 568.907,686.32L568.907,688.835C568.907,689.053 568.885,689.285 568.835,689.528C568.79,689.772 568.691,689.965 568.538,690.109C568.382,690.255 568.184,690.336 567.935,690.352C567.687,690.369 567.416,690.38 567.126,690.388L566.736,690.391ZM567.446,686.879L567.439,686.61C567.43,686.359 567.415,686.212 567.397,686.171C567.381,686.132 567.346,686.094 567.289,686.061C567.235,686.027 567.106,686.011 566.905,686.011L565.129,686.011C564.844,686.011 564.668,686.027 564.602,686.063C564.541,686.099 564.497,686.141 564.475,686.193C564.447,686.243 564.436,686.381 564.436,686.61L564.436,686.879L567.446,686.879ZM564.436,689.07L566.905,689.078C567.165,689.081 567.315,689.044 567.363,688.97C567.408,688.893 567.431,688.774 567.439,688.61L567.446,688.158L564.436,688.158L564.436,689.07ZM545.314,687.183C545.098,687.183 544.921,687.106 544.784,686.951C544.643,686.793 544.582,686.602 544.596,686.381C544.603,686.187 544.676,686.025 544.809,685.884C544.944,685.745 545.111,685.676 545.314,685.676L549.104,685.676C549.22,685.293 549.319,685.008 549.391,684.823C549.463,684.638 549.552,684.489 549.664,684.378C549.774,684.268 549.956,684.21 550.215,684.21C550.483,684.212 550.693,684.295 550.844,684.458C550.995,684.622 551.078,684.782 551.083,684.94C551.089,685.034 551.061,685.174 551,685.36L550.894,685.676L555.887,685.676C556.051,685.676 556.209,685.745 556.358,685.88C556.51,686.016 556.579,686.207 556.574,686.453C556.557,686.677 556.48,686.854 556.328,686.987C556.181,687.117 556.032,687.183 555.887,687.183L550.276,687.183C550.113,687.523 549.948,687.827 549.781,688.099L553.133,688.099C554.163,688.099 554.739,688.334 554.857,688.807C554.978,689.277 555.039,689.648 555.039,689.916L555.039,695.199C555.039,695.453 554.967,695.761 554.825,696.127C554.683,696.488 554.193,696.679 553.354,696.693C552.884,696.701 552.554,696.616 552.365,696.433C552.175,696.248 552.087,696.024 552.103,695.753C552.109,695.634 552.155,695.507 552.24,695.373C552.325,695.237 552.481,695.16 552.709,695.132L553.04,695.132C553.213,695.124 553.325,695.083 553.372,695.011C553.416,694.939 553.439,694.845 553.439,694.731L553.439,693.739L549.104,693.739L549.104,695.916C549.104,696.052 549.026,696.198 548.872,696.353C548.714,696.51 548.496,696.577 548.215,696.555C547.973,696.541 547.796,696.466 547.683,696.333C547.568,696.201 547.51,696.06 547.51,695.916L547.51,690.724C547.375,690.857 547.241,690.979 547.11,691.094C546.978,691.211 546.79,691.346 546.547,691.504C546.306,691.659 546.074,691.789 545.861,691.891C545.649,691.996 545.446,692.048 545.253,692.054C545.054,692.057 544.882,691.971 544.727,691.792C544.572,691.615 544.492,691.448 544.492,691.288C544.487,691.128 544.512,690.992 544.57,690.882C544.628,690.774 544.7,690.683 544.788,690.616C544.878,690.55 545.132,690.391 545.546,690.148C545.963,689.904 546.433,689.545 546.961,689.067C547.491,688.594 547.905,688.097 548.208,687.578L548.446,687.183L545.314,687.183ZM549.104,690.302L553.439,690.289L553.439,689.979C553.439,689.796 553.391,689.672 553.299,689.615C553.205,689.548 553.075,689.518 552.906,689.518L549.617,689.518C549.507,689.518 549.394,689.548 549.278,689.615C549.162,689.672 549.104,689.796 549.104,689.979L549.104,690.302ZM553.439,691.617L549.104,691.617L549.104,692.38L553.439,692.38L553.439,691.617ZM542.348,687.741L542.348,693.322C542.348,693.678 542.315,693.993 542.254,694.27C542.188,694.546 542.021,694.801 541.758,695.033C541.493,695.265 540.926,695.381 540.065,695.381L534.773,695.381C534.338,695.381 533.973,695.359 533.677,695.315C533.382,695.271 533.123,695.152 532.896,694.956C532.675,694.762 532.54,694.519 532.491,694.231C532.447,693.941 532.424,693.637 532.424,693.322L532.424,687.741C532.424,687.523 532.443,687.255 532.477,686.94C532.512,686.627 532.67,686.342 532.954,686.079C533.236,685.82 533.541,685.674 533.868,685.637C534.194,685.607 534.496,685.59 534.773,685.59L540.065,685.59C540.826,685.59 541.366,685.721 541.675,685.98C541.988,686.243 542.177,686.517 542.246,686.801C542.313,687.086 542.348,687.398 542.348,687.741ZM540.662,692.919L540.662,688.343C540.662,687.994 540.633,687.714 540.569,687.498C540.51,687.282 540.38,687.155 540.185,687.117C539.99,687.078 539.799,687.056 539.617,687.056L535.108,687.056C534.758,687.056 534.526,687.111 534.415,687.218C534.302,687.326 534.222,687.445 534.178,687.578C534.131,687.708 534.106,687.963 534.106,688.343L534.106,692.919C534.106,693.109 534.125,693.28 534.153,693.427C534.183,693.576 534.247,693.706 534.344,693.819C534.443,693.933 534.696,693.988 535.108,693.988L539.617,693.988C540.012,693.988 540.263,693.927 540.37,693.814C540.477,693.7 540.552,693.576 540.598,693.443C540.64,693.305 540.662,693.131 540.662,692.919ZM523.501,694.579L523.501,690.242L521.538,690.242C521.228,690.242 520.949,690.228 520.707,690.197C520.461,690.167 520.235,690.051 520.025,689.844C519.814,689.642 519.677,689.404 519.615,689.133C519.55,688.865 519.52,688.639 519.52,688.448L519.52,685.762C519.52,685.543 519.602,685.37 519.77,685.252C519.935,685.13 520.128,685.064 520.345,685.056C520.561,685.044 520.764,685.105 520.949,685.238C521.134,685.37 521.228,685.546 521.228,685.762L521.228,688.204C521.228,688.423 521.256,688.564 521.306,688.625C521.356,688.688 521.499,688.718 521.734,688.718L523.501,688.718L523.501,684.94C523.501,684.768 523.57,684.616 523.717,684.478C523.86,684.342 524.043,684.268 524.255,684.248C524.454,684.234 524.657,684.295 524.861,684.422C525.068,684.552 525.172,684.726 525.172,684.94L525.172,688.718L527.028,688.718C527.233,688.718 527.37,688.677 527.438,688.597C527.507,688.519 527.54,688.389 527.54,688.204L527.54,685.85C527.54,685.668 527.61,685.51 527.75,685.37C527.89,685.232 528.064,685.155 528.275,685.144C528.483,685.13 528.685,685.188 528.872,685.313C529.063,685.441 529.157,685.621 529.157,685.85L529.157,688.448C529.157,689.025 529.011,689.471 528.715,689.78C528.419,690.09 527.923,690.242 527.225,690.242L525.172,690.242L525.172,694.579L527.271,694.579C527.442,694.579 527.562,694.563 527.634,694.53C527.708,694.497 527.763,694.447 527.797,694.375C527.832,694.306 527.85,694.173 527.85,693.982L527.85,691.512C527.85,691.293 527.928,691.125 528.087,691.003C528.245,690.882 528.425,690.815 528.627,690.804C528.823,690.793 529.022,690.846 529.218,690.965C529.414,691.081 529.517,691.263 529.517,691.512L529.517,694.336C529.517,694.574 529.475,694.823 529.395,695.08C529.318,695.34 529.141,695.59 528.867,695.83C528.593,696.074 528.114,696.193 527.426,696.193L521.137,696.193C520.049,696.193 519.445,695.947 519.323,695.45C519.205,694.958 519.144,694.593 519.144,694.355L519.144,691.335C519.144,691.153 519.21,690.99 519.343,690.849C519.477,690.71 519.662,690.628 519.894,690.606C520.099,690.592 520.306,690.653 520.514,690.782C520.725,690.915 520.828,691.1 520.828,691.335L520.828,694.001C520.828,694.181 520.844,694.306 520.877,694.375C520.91,694.447 520.963,694.497 521.035,694.53C521.107,694.563 521.236,694.579 521.427,694.579L523.501,694.579ZM506.792,693.606L506.792,690.666C506.792,690.525 506.761,690.413 506.698,690.325C506.634,690.239 506.549,690.197 506.446,690.197L505.819,690.197C505.631,690.197 505.462,690.131 505.31,689.998C505.159,689.863 505.085,689.686 505.09,689.468C505.095,689.227 505.177,689.048 505.34,688.931C505.502,688.815 505.661,688.757 505.819,688.757L506.643,688.757C507.248,688.757 507.649,688.843 507.841,689.009C508.033,689.18 508.158,689.401 508.218,689.675C508.279,689.949 508.31,690.197 508.31,690.419L508.301,693.515C508.423,693.612 508.516,693.684 508.583,693.731L509.147,694.203C509.443,694.419 509.816,694.588 510.271,694.707C510.726,694.823 511.741,694.9 513.322,694.936C514.567,694.967 515.437,694.944 515.929,694.872C516.418,694.801 516.714,694.767 516.816,694.773C517.127,694.798 517.314,694.936 517.377,695.187C517.435,695.442 517.441,695.673 517.392,695.883C517.341,696.088 517.225,696.245 517.039,696.345C516.929,696.406 516.797,696.436 516.648,696.433C516.495,696.433 515.998,696.441 515.149,696.469C514.306,696.497 513.311,696.488 512.169,696.453C511.024,696.414 510.249,696.339 509.843,696.226C509.432,696.112 509.136,695.985 508.951,695.844C508.768,695.703 508.589,695.54 508.417,695.354C508.244,695.165 508.092,695.033 507.969,694.956C507.848,694.875 507.718,694.839 507.578,694.845C507.458,694.854 507.341,694.895 507.22,694.969C507.103,695.041 506.962,695.152 506.803,695.301C506.643,695.448 506.493,695.601 506.36,695.755C506.222,695.911 506.089,696.013 505.957,696.063C505.827,696.11 505.655,696.071 505.444,695.941C505.187,695.8 505.054,695.628 505.049,695.439C505.043,695.248 505.049,695.113 505.061,695.033C505.095,694.875 505.172,694.723 505.296,694.577C505.422,694.431 505.918,694.107 506.792,693.606ZM507.578,687.269C507.498,687.23 507.363,687.117 507.168,686.926L506.504,686.251C506.167,685.986 505.965,685.795 505.902,685.674C505.838,685.555 505.841,685.379 505.912,685.155C505.943,685.047 506.012,684.931 506.12,684.807C506.228,684.679 506.363,684.597 506.529,684.558C506.648,684.533 506.803,684.547 506.994,684.608C507.184,684.666 507.495,684.895 507.922,685.296C508.351,685.696 508.592,685.972 508.644,686.132C508.702,686.29 508.702,686.467 508.647,686.663C508.577,686.901 508.436,687.091 508.226,687.233C508.012,687.376 507.795,687.387 507.578,687.269ZM510.676,689.606L510.676,687.727L509.689,687.727C509.504,687.727 509.349,687.664 509.224,687.531C509.1,687.401 509.031,687.249 509.015,687.078C508.998,686.907 509.05,686.74 509.175,686.575C509.294,686.411 509.466,686.329 509.689,686.329L510.676,686.329C510.69,685.963 510.687,685.676 510.671,685.463C510.651,685.249 510.648,685.102 510.665,685.025C510.701,684.688 510.797,684.489 510.947,684.431C511.093,684.37 511.245,684.34 511.395,684.336C511.679,684.331 511.867,684.378 511.961,684.478C512.057,684.58 512.114,684.69 512.137,684.812C512.161,684.931 512.171,685.149 512.177,685.466L512.177,686.329L513.546,686.329L513.546,684.887C513.546,684.751 513.615,684.622 513.755,684.5C513.897,684.378 514.087,684.304 514.333,684.281C514.577,684.259 514.761,684.328 514.89,684.486C515.02,684.644 515.086,684.785 515.086,684.912L515.086,686.329L516.105,686.329C516.263,686.329 516.407,686.386 516.542,686.505C516.675,686.619 516.752,686.801 516.777,687.047C516.797,687.296 516.711,687.471 516.515,687.575C516.321,687.678 516.161,687.727 516.039,687.727L515.086,687.727L515.086,689.606L516.349,689.6C516.471,689.6 516.609,689.65 516.764,689.753C516.917,689.858 516.994,690.029 516.994,690.27C516.987,690.616 516.894,690.827 516.705,690.896C516.52,690.965 516.387,691.001 516.307,691.001L515.086,691.001L515.086,693.844C515.086,694.386 514.827,694.629 514.314,694.579C513.803,694.53 513.546,694.295 513.546,693.863L513.546,691.001L512.124,691.001C512.108,691.136 512.091,691.327 512.064,691.573C512.04,691.819 511.948,692.112 511.79,692.455C511.635,692.795 511.434,693.122 511.188,693.427C510.944,693.731 510.748,693.954 510.597,694.104C510.448,694.251 510.295,694.348 510.138,694.389C509.984,694.433 509.795,694.394 509.574,694.273C509.354,694.148 509.222,693.993 509.186,693.802C509.147,693.618 509.155,693.46 509.208,693.333C509.26,693.208 509.482,692.955 509.866,692.577C510.253,692.195 510.477,691.789 510.537,691.349L510.597,691.001L509.332,691.001C509.222,691.001 509.086,690.951 508.923,690.854C508.757,690.755 508.68,690.583 508.685,690.338C508.691,690.096 508.757,689.913 508.876,689.789C508.995,689.661 509.142,689.6 509.307,689.6L510.676,689.606ZM512.177,689.606L513.546,689.606L513.546,687.727L512.177,687.727L512.177,689.606ZM497.973,686.002C497.823,685.806 497.693,685.635 497.58,685.494C497.465,685.351 497.374,685.224 497.303,685.119C497.233,685.008 497.193,684.901 497.189,684.79C497.182,684.677 497.204,684.572 497.257,684.469C497.326,684.334 497.438,684.229 497.587,684.157C497.736,684.085 497.879,684.049 498.014,684.049C498.177,684.057 498.324,684.107 498.459,684.201C498.592,684.292 498.788,684.497 499.051,684.815C499.313,685.133 499.478,685.365 499.549,685.507C499.622,685.651 499.652,685.751 499.64,685.806L499.606,686.002L503.358,686.002C503.51,686.002 503.656,686.069 503.8,686.202C503.944,686.331 504.019,686.514 504.027,686.746C504.033,686.981 503.966,687.155 503.831,687.274C503.698,687.39 503.535,687.451 503.358,687.451L495.138,687.451C494.941,687.451 494.809,687.484 494.739,687.556C494.673,687.625 494.64,687.749 494.645,687.921C494.647,688.097 494.647,688.251 494.645,688.384C494.63,688.622 494.621,689.343 494.612,690.545C494.603,691.744 494.561,692.681 494.482,693.355C494.406,694.024 494.263,694.629 494.055,695.165C493.848,695.703 493.61,696.096 493.342,696.339C493.077,696.583 492.822,696.724 492.584,696.762C492.347,696.801 492.15,696.74 491.987,696.574C491.825,696.411 491.765,696.195 491.811,695.928C491.83,695.784 491.903,695.628 492.025,695.46L492.269,695.149C492.584,694.734 492.799,694.225 492.911,693.628C493.021,693.029 493.088,692.419 493.107,691.794C493.126,691.172 493.137,689.965 493.137,688.182L493.137,687.891C493.137,687.564 493.157,687.265 493.201,687C493.243,686.735 493.342,686.525 493.502,686.37C493.663,686.212 493.876,686.113 494.138,686.069C494.399,686.027 494.713,686.002 495.073,686.002L497.973,686.002ZM497.973,691.717L497.973,688.406C497.973,688.279 498.015,688.124 498.1,687.943C498.183,687.763 498.39,687.667 498.725,687.65C499.056,687.636 499.288,687.719 499.421,687.899C499.556,688.086 499.621,688.251 499.621,688.406L499.606,689.103L502.949,689.103C503.129,689.103 503.294,689.158 503.447,689.266C503.599,689.376 503.671,689.57 503.662,689.847C503.645,690.109 503.563,690.295 503.405,690.405C503.248,690.517 503.094,690.569 502.949,690.569L499.606,690.569L499.606,691.717L501.088,691.717C501.864,691.717 502.403,691.816 502.703,692.015C503.003,692.214 503.201,692.477 503.289,692.801C503.38,693.125 503.424,693.523 503.424,693.993L503.424,694.475C503.424,695.276 503.284,695.786 503.006,696.005C502.725,696.226 502.437,696.356 502.142,696.394C501.841,696.433 501.489,696.455 501.088,696.455L497.362,696.455C496.593,696.455 496.082,696.353 495.819,696.154C495.558,695.955 495.391,695.712 495.314,695.426C495.241,695.141 495.202,694.817 495.202,694.453L495.202,694.06C495.202,693.598 495.229,693.211 495.273,692.892C495.319,692.577 495.455,692.317 495.683,692.112C495.913,691.91 496.159,691.792 496.422,691.764C496.684,691.731 496.994,691.717 497.349,691.717L497.973,691.717ZM501.839,694.433L501.851,693.902C501.856,693.643 501.801,693.451 501.693,693.333C501.589,693.211 501.395,693.15 501.114,693.15L497.474,693.15C497.211,693.15 497.034,693.205 496.941,693.316C496.849,693.427 496.805,693.584 496.805,693.794L496.805,694.394C496.805,694.557 496.824,694.676 496.863,694.754C496.901,694.829 496.964,694.897 497.049,694.958C497.138,695.022 497.247,695.052 497.381,695.052L501.213,695.052C501.492,695.052 501.666,694.986 501.733,694.854C501.799,694.723 501.833,694.582 501.839,694.433ZM479.547,688.243C479.361,688.243 479.202,688.18 479.063,688.052C478.925,687.926 478.856,687.744 478.853,687.509C478.85,687.274 478.911,687.097 479.03,686.981C479.148,686.862 479.317,686.801 479.527,686.801L480.337,686.801L480.322,685.025C480.316,684.848 480.387,684.685 480.531,684.527C480.672,684.373 480.86,684.287 481.089,684.27C481.322,684.256 481.507,684.326 481.645,684.483C481.786,684.638 481.857,684.81 481.857,685L481.857,686.801L482.231,686.801C482.416,686.801 482.572,686.867 482.707,686.992C482.835,687.119 482.904,687.299 482.904,687.531C482.899,687.774 482.828,687.951 482.696,688.069C482.56,688.188 482.405,688.243 482.231,688.243L481.857,688.243L481.857,689.711C481.959,689.623 482.082,689.554 482.226,689.498C482.371,689.443 482.495,689.435 482.603,689.468C482.711,689.507 482.823,689.617 482.941,689.802C483.061,689.988 483.232,690.336 483.456,690.849C483.486,690.696 483.525,690.556 483.574,690.424C483.622,690.295 483.716,690.151 483.856,689.998C483.995,689.841 484.147,689.733 484.304,689.67C484.462,689.609 484.654,689.578 484.877,689.578L486.115,689.578L486.115,689.092L483.417,689.092C483.24,689.092 483.094,689.025 482.971,688.898C482.85,688.768 482.788,688.603 482.788,688.395C482.785,688.188 482.843,688.022 482.958,687.899C483.077,687.772 483.204,687.711 483.345,687.711L484.759,687.716L484.759,686.696L483.832,686.691C483.68,686.691 483.525,686.644 483.362,686.547C483.196,686.45 483.119,686.26 483.127,685.98C483.133,685.809 483.198,685.656 483.331,685.527C483.462,685.393 483.627,685.329 483.832,685.329L484.759,685.329L484.763,684.867C484.763,684.713 484.841,684.577 484.991,684.464C485.143,684.345 485.315,684.284 485.51,684.27C485.703,684.259 485.88,684.312 486.041,684.422C486.204,684.536 486.284,684.683 486.284,684.867L486.284,685.329L487.337,685.329L487.337,684.867C487.337,684.705 487.423,684.558 487.596,684.428C487.766,684.295 487.971,684.243 488.208,684.268C488.418,684.298 488.578,684.378 488.686,684.503C488.797,684.627 488.85,684.737 488.85,684.84L488.85,685.329L490.141,685.329C490.286,685.329 490.424,685.382 490.552,685.496C490.683,685.61 490.744,685.781 490.74,686.019C490.732,686.268 490.66,686.445 490.525,686.541C490.394,686.641 490.264,686.691 490.141,686.691L488.85,686.696L488.85,687.716L490.298,687.711C490.474,687.711 490.63,687.777 490.76,687.913C490.893,688.05 490.959,688.226 490.962,688.439C490.965,688.655 490.895,688.818 490.754,688.929C490.613,689.039 490.461,689.092 490.298,689.092L487.575,689.092L487.575,689.578L488.833,689.578C489.225,689.578 489.525,689.672 489.726,689.86C489.928,690.051 490.063,690.226 490.131,690.388C490.198,690.553 490.233,690.71 490.233,690.863L490.233,692.731C490.233,692.95 490.213,693.142 490.171,693.308C490.128,693.474 490.024,693.648 489.856,693.839C489.686,694.032 489.538,694.143 489.411,694.173L488.943,694.317C489.16,694.436 489.428,694.582 489.754,694.759C490.078,694.933 490.344,695.083 490.55,695.212C490.757,695.34 490.887,695.498 490.943,695.689C490.997,695.88 490.967,696.071 490.851,696.259C490.704,696.497 490.489,696.605 490.205,696.588C490.077,696.583 489.919,696.532 489.734,696.436L488.838,695.916C488.225,695.601 487.874,695.406 487.782,695.334C487.692,695.268 487.627,695.177 487.593,695.074C487.555,694.969 487.548,694.85 487.568,694.726C487.582,694.618 487.602,694.546 487.635,694.502L487.745,694.311L485.831,694.311C485.958,694.416 486.055,694.513 486.118,694.607C486.187,694.698 486.22,694.814 486.229,694.956C486.234,695.094 486.198,695.224 486.118,695.345C486.055,695.439 485.955,695.529 485.822,695.606C485.686,695.687 485.332,695.847 484.753,696.09C484.175,696.333 483.738,696.488 483.447,696.558C483.16,696.627 482.921,696.53 482.736,696.276C482.549,696.019 482.545,695.767 482.726,695.523C482.791,695.433 482.899,695.359 483.049,695.293C483.196,695.229 483.472,695.121 483.873,694.972C484.274,694.82 484.549,694.69 484.698,694.579L485.087,694.317L484.832,694.311C484.436,694.3 484.139,694.198 483.937,693.996C483.738,693.792 483.608,693.601 483.547,693.418C483.486,693.239 483.456,693.031 483.456,692.795L483.456,691.374C483.232,691.59 483.025,691.708 482.832,691.731C482.643,691.752 482.493,691.733 482.389,691.672C482.283,691.609 482.194,691.498 482.121,691.329L481.989,691.015L481.857,690.752L481.857,695.877C481.857,696.052 481.791,696.215 481.662,696.364C481.531,696.513 481.352,696.599 481.125,696.618C480.898,696.638 480.705,696.572 480.55,696.419C480.394,696.27 480.316,696.088 480.322,695.877L480.337,691.916C480.192,692.126 480.072,692.295 479.978,692.425C479.882,692.555 479.767,692.679 479.633,692.795C479.497,692.914 479.33,692.975 479.132,692.978C478.936,692.98 478.759,692.903 478.609,692.748C478.457,692.59 478.385,692.419 478.391,692.225C478.4,692.032 478.446,691.871 478.538,691.744C478.626,691.617 478.775,691.446 478.98,691.227C479.187,691.012 479.355,690.802 479.481,690.594C479.608,690.391 479.746,690.09 479.89,689.686C480.032,689.285 480.121,688.998 480.158,688.829L480.282,688.243L479.547,688.243ZM484.95,691.435L486.115,691.435L486.115,690.901L485.265,690.907C485.063,690.912 484.96,691.009 484.957,691.197L484.95,691.435ZM486.115,693.122L486.115,692.599L484.95,692.599L484.957,692.817C484.957,692.925 484.966,692.991 484.991,693.016C485.016,693.042 485.069,693.07 485.149,693.098C485.232,693.125 485.292,693.139 485.332,693.131L486.115,693.122ZM486.284,686.696L486.284,687.716L487.337,687.716L487.337,686.696L486.284,686.696ZM487.575,691.435L488.772,691.435L488.778,691.197C488.778,691.155 488.761,691.097 488.725,691.025C488.692,690.951 488.606,690.912 488.471,690.907L487.575,690.901L487.575,691.435ZM488.772,692.599L487.575,692.599L487.575,693.122L488.509,693.131C488.634,693.139 488.708,693.098 488.733,693.013C488.766,692.93 488.778,692.858 488.778,692.795L488.772,692.599ZM467.247,689.805L466.531,689.233C466.194,689.017 465.983,688.862 465.906,688.768C465.826,688.674 465.776,688.55 465.754,688.398C465.732,688.243 465.793,688.077 465.931,687.896C466.072,687.716 466.26,687.625 466.492,687.625C466.621,687.631 466.745,687.667 466.87,687.736C466.996,687.805 467.212,687.935 467.525,688.13C467.835,688.326 468.057,688.503 468.185,688.661C468.311,688.818 468.375,688.984 468.378,689.156C468.381,689.33 468.322,689.498 468.207,689.658C468.09,689.822 467.933,689.907 467.732,689.913C467.532,689.922 467.37,689.882 467.247,689.805ZM466.933,696.149C466.692,696.162 466.498,696.093 466.346,695.941C466.197,695.792 466.116,695.643 466.105,695.498C466.089,695.351 466.114,695.19 466.169,695.016C466.216,694.859 466.346,694.566 466.559,694.14C466.773,693.711 467.018,693.18 467.295,692.549C467.571,691.919 467.756,691.49 467.848,691.261C467.941,691.031 468.046,690.849 468.165,690.714C468.289,690.578 468.466,690.503 468.704,690.492C468.939,690.484 469.131,690.569 469.276,690.752C469.422,690.94 469.493,691.103 469.496,691.252C469.499,691.401 469.477,691.562 469.427,691.733C469.384,691.883 469.331,692.035 469.273,692.19C469.214,692.347 469.055,692.715 468.801,693.297C468.546,693.877 468.301,694.427 468.057,694.947C467.818,695.468 467.602,695.797 467.415,695.935C467.231,696.074 467.068,696.146 466.933,696.149ZM467.4,684.403C467.68,684.392 468.03,684.522 468.45,684.793C468.867,685.064 469.138,685.271 469.264,685.416C469.385,685.56 469.455,685.729 469.467,685.917C469.478,686.105 469.424,686.27 469.296,686.42C469.168,686.566 469.011,686.649 468.82,686.666C468.71,686.68 468.596,686.668 468.486,686.635C468.375,686.602 468.107,686.439 467.673,686.149C467.24,685.858 466.976,685.654 466.878,685.538C466.777,685.422 466.722,685.271 466.714,685.094C466.702,684.912 466.765,684.757 466.9,684.618C467.034,684.483 467.203,684.409 467.4,684.403ZM472.624,694.53L472.624,686.713L470.349,686.713C470.168,686.713 470.017,686.641 469.89,686.5C469.767,686.356 469.706,686.185 469.712,685.98C469.712,685.77 469.774,685.604 469.904,685.477C470.032,685.354 470.186,685.29 470.361,685.29L476.711,685.29C476.874,685.29 477.024,685.354 477.158,685.483C477.294,685.61 477.365,685.779 477.374,685.991C477.378,686.204 477.316,686.378 477.182,686.511C477.049,686.644 476.891,686.713 476.711,686.713L474.197,686.713L474.197,694.53L477.053,694.53C477.245,694.53 477.408,694.599 477.541,694.737C477.671,694.875 477.741,695.05 477.751,695.257C477.759,695.466 477.693,695.643 477.555,695.792C477.414,695.938 477.251,696.01 477.067,696.01L469.406,696.01C469.207,696.01 469.044,695.944 468.922,695.811C468.804,695.676 468.737,695.504 468.732,695.298C468.726,695.088 468.781,694.908 468.892,694.756C469.008,694.605 469.18,694.53 469.406,694.53L472.624,694.53ZM455.228,691.999C455.178,692.228 455.082,692.549 454.939,692.963C454.793,693.382 454.681,693.703 454.598,693.927C454.519,694.151 454.428,694.372 454.334,694.596C454.235,694.817 454.111,695.096 453.958,695.433C453.803,695.772 453.659,696.007 453.518,696.14C453.374,696.27 453.214,696.345 453.029,696.364C452.844,696.386 452.669,696.331 452.508,696.201C452.342,696.074 452.258,695.928 452.249,695.764C452.242,695.601 452.272,695.433 452.339,695.262C452.374,695.171 452.486,694.956 452.669,694.615C452.857,694.276 453.006,693.954 453.117,693.662C453.23,693.366 453.341,693.037 453.446,692.676L453.767,691.504C453.833,691.263 453.925,691.059 454.043,690.888C454.161,690.716 454.357,690.638 454.635,690.655C454.833,690.674 454.982,690.741 455.086,690.854C455.188,690.968 455.259,691.089 455.293,691.217C455.337,691.164 455.381,691.122 455.42,691.092C455.464,691.062 455.583,691.017 455.782,690.965C455.984,690.907 456.307,690.788 456.761,690.6L456.75,688.439L455.865,688.439C455.73,688.439 455.581,688.389 455.418,688.29C455.256,688.188 455.178,688.002 455.18,687.727C455.18,687.567 455.244,687.412 455.376,687.265C455.506,687.122 455.669,687.05 455.865,687.05L456.75,687.05L456.75,684.94C456.75,684.793 456.791,684.633 456.881,684.461C456.971,684.287 457.143,684.184 457.398,684.157C457.654,684.124 457.845,684.21 457.972,684.409C458.099,684.608 458.163,684.785 458.163,684.94L458.163,687.05L458.818,687.044C458.945,687.044 459.078,687.1 459.213,687.211C459.344,687.324 459.415,687.504 459.422,687.752C459.43,688 459.358,688.177 459.21,688.282C459.06,688.387 458.928,688.439 458.818,688.439L458.163,688.439L458.163,689.951C458.29,689.891 458.384,689.841 458.444,689.802L458.621,689.689C458.738,689.628 458.848,689.598 458.959,689.598C459.068,689.6 459.19,689.653 459.32,689.75C459.452,689.852 459.523,690.001 459.535,690.206C459.545,690.41 459.501,690.578 459.4,690.71C459.272,690.871 458.859,691.114 458.163,691.435L458.163,695.19C458.163,695.326 458.135,695.498 458.077,695.7C458.019,695.905 457.889,696.082 457.687,696.234C457.481,696.386 457.163,696.475 456.735,696.5C456.233,696.535 455.893,696.455 455.71,696.264C455.528,696.071 455.445,695.855 455.464,695.615C455.481,695.376 455.55,695.202 455.669,695.099C455.777,695.005 455.918,694.964 456.089,694.967L456.479,695.013C456.552,695.011 456.616,694.986 456.67,694.944C456.721,694.9 456.75,694.795 456.75,694.624L456.75,692.079C456.338,692.27 456.017,692.372 455.782,692.38C455.542,692.388 455.359,692.261 455.228,691.999ZM454.035,684.34C454.15,684.353 454.303,684.409 454.493,684.505C454.685,684.602 454.913,684.757 455.18,684.978C455.448,685.196 455.638,685.379 455.749,685.524C455.857,685.668 455.924,685.848 455.946,686.061C455.965,686.273 455.89,686.45 455.708,686.586C455.528,686.724 455.348,686.782 455.167,686.763C455.027,686.746 454.878,686.685 454.719,686.575L454.056,686.025L453.504,685.596C453.369,685.463 453.278,685.29 453.233,685.075C453.192,684.862 453.263,684.679 453.455,684.533C453.645,684.387 453.839,684.323 454.035,684.34ZM461.157,687.94L464.157,687.929C464.333,687.929 464.478,688.002 464.598,688.138C464.716,688.273 464.781,688.439 464.796,688.633C464.809,688.829 464.745,688.995 464.604,689.131C464.465,689.266 464.318,689.332 464.157,689.327L463.421,689.321L463.421,696.013C463.421,696.124 463.38,696.264 463.291,696.436C463.205,696.605 463.026,696.696 462.753,696.701C462.478,696.707 462.288,696.627 462.181,696.458C462.073,696.29 462.018,696.14 462.018,696.013L462.018,689.321L461.138,689.321C461.123,690.024 461.112,690.561 461.101,690.931C461.09,691.305 461.073,691.664 461.055,692.001C461.035,692.342 461.008,692.671 460.963,692.988C460.922,693.308 460.864,693.598 460.789,693.866C460.712,694.129 460.612,694.427 460.487,694.756C460.363,695.085 460.215,695.389 460.04,695.678C459.867,695.963 459.65,696.115 459.39,696.143C459.13,696.168 458.904,696.104 458.718,695.96C458.533,695.817 458.434,695.651 458.422,695.466C458.411,695.276 458.461,695.088 458.577,694.9L458.887,694.46C459.08,694.184 459.235,693.836 459.356,693.413C459.473,692.991 459.552,692.552 459.597,692.093C459.641,691.637 459.67,691.263 459.685,690.979C459.702,690.694 459.71,690.076 459.71,689.131L459.71,686.998C459.71,686.279 459.767,685.825 459.882,685.635C459.999,685.447 460.148,685.321 460.328,685.26C460.507,685.196 460.809,685.141 461.234,685.086C461.656,685.031 462.091,684.909 462.537,684.721L463.216,684.425C463.38,684.361 463.545,684.336 463.719,684.34C463.894,684.345 464.054,684.444 464.204,684.646C464.353,684.845 464.419,685.031 464.402,685.199C464.379,685.379 464.301,685.53 464.166,685.643C464.035,685.756 463.83,685.858 463.559,685.944C463.288,686.033 462.836,686.132 462.211,686.248C461.584,686.362 461.251,686.445 461.212,686.5C461.176,686.55 461.157,686.688 461.157,686.912L461.157,687.94Z" style="fill:rgb(35,25,22);fill-rule:nonzero;"/>
            </g>
        </g>
    </g>
</svg>
