<?xml version="1.0" encoding="UTF-8" standalone="no"?>
<!DOCTYPE svg PUBLIC "-//W3C//DTD SVG 1.1//EN" "http://www.w3.org/Graphics/SVG/1.1/DTD/svg11.dtd">
<svg width="100%" height="100%" viewBox="0 0 133 47" version="1.1" xmlns="http://www.w3.org/2000/svg" xmlns:xlink="http://www.w3.org/1999/xlink" xml:space="preserve" xmlns:serif="http://www.serif.com/" style="fill-rule:evenodd;clip-rule:evenodd;stroke-linejoin:round;stroke-miterlimit:2;">
    <g transform="matrix(1,0,0,1,-4412,-459)">
        <g transform="matrix(1,0,0,1,4018.11,0)">
            <g transform="matrix(1,0,0,1,0,123.156)">
                <path d="M413.902,344.789L426.293,357.18C427.496,358.383 427.496,360.351 426.293,361.554L413.902,373.945L401.51,361.554C400.308,360.351 400.308,358.383 401.51,357.18L413.902,344.789Z" style="fill:rgb(0,80,143);"/>
            </g>
            <g transform="matrix(1,0,0,1,0,123.229)">
                <path d="M413.847,336.653L396.951,353.339C392.845,356.868 393.018,361.713 396.951,365.232L413.841,382.007L416.263,379.586L398.783,362.221C397.27,360.636 397.344,358.052 398.783,356.351L416.269,339.075L413.847,336.653Z" style="fill:rgb(0,80,143);"/>
            </g>
            <g transform="matrix(1,0,0,1,0,123.172)">
                <path d="M418.061,340.825L430.677,353.397C434.783,356.925 434.61,361.77 430.677,365.29L418.029,377.893L415.602,375.477L428.846,362.278C430.358,360.693 430.285,358.11 428.846,356.408L415.628,343.235L418.061,340.825Z" style="fill:rgb(0,80,143);"/>
            </g>
            <g transform="matrix(1,0,0,1,0,113.054)">
                <path d="M444.62,355.343L444.62,355.336L446.492,355.336L446.492,355.343L446.606,355.343L446.606,358.956L448.372,358.956L448.372,360.409L446.606,360.409L446.606,361.931C447.095,362.454 448.384,363.85 449.035,364.752L449.035,362.521L453.905,362.521L453.905,361.494L448.595,361.494L448.595,360.041L452.083,360.041L452.083,358.342L449.035,358.342L449.035,356.889L452.083,356.889L452.083,355.308L453.955,355.308L453.955,356.889L456.261,356.889L456.261,355.308L458.133,355.308L458.133,356.889L461.18,356.889L461.18,358.342L458.133,358.342L458.133,360.041L461.621,360.041L461.621,361.494L455.989,361.494L455.989,362.521L460.859,362.521L460.859,362.622L460.866,362.622L460.866,370.088L458.869,370.088C459.267,370.866 459.884,371.601 460.546,372.205C460.962,372.585 461.311,372.823 461.311,372.823C460.176,372.938 459.113,373.5 459.113,373.5C457.77,372.285 457.264,370.989 457.264,370.989L458.627,370.088L451.401,370.088L452.711,370.989C452.711,370.989 452.206,372.285 450.863,373.5C450.863,373.5 449.852,372.938 448.717,372.823C448.717,372.823 449.066,372.585 449.483,372.205C450.145,371.601 450.76,370.866 451.158,370.088L449.064,370.088L449.064,370.045L449.035,370.045L449.035,365.638L448.394,367.073C448.394,367.073 447.347,365.539 446.606,364.765L446.606,373.508L446.492,373.508L446.492,373.516L444.62,373.516L444.62,373.508L444.604,373.508L444.604,366.541C443.959,367.701 442.942,369.192 442.942,369.192L441.682,367.49C442.938,365.852 444.167,362.8 444.604,361.658L444.604,360.409L442.019,360.409L442.019,358.956L444.604,358.956L444.604,355.343L444.62,355.343ZM508.625,361.824L513.508,361.824C512.928,361.436 512.148,360.83 511.452,360.007L514.106,359.125C514.106,359.125 515.274,360.726 516.295,361.525L516.419,361.607L516.405,361.614L515.864,361.824L519.047,361.824L518.506,361.614L518.492,361.607L518.617,361.525C519.637,360.726 520.805,359.125 520.805,359.125L523.459,360.007C522.763,360.83 521.982,361.436 521.402,361.824L526.282,361.824L526.282,363.404L510.905,363.404L510.905,367.866C510.853,372.167 508.517,373.566 508.517,373.566L506.978,372.074C508.572,370.556 508.623,367.482 508.623,367.482L508.623,361.873L508.625,361.873L508.625,361.824ZM508.613,357.348L508.613,358.943L526.27,358.943L526.27,358.848L526.281,358.848L526.281,357.493L526.27,357.493L526.27,357.348L508.613,357.348ZM504.03,359.103L504.03,367.693L504.025,367.693L504.025,367.906C504.025,368.606 503.817,369.218 502.961,369.218L500.963,369.218C501.003,368.727 500.949,368.088 500.621,367.625L501.458,367.625C501.772,367.624 501.744,367.381 501.744,367.232L501.744,360.389L499.478,361.032L499.478,370.339L497.193,370.339L497.193,361.64L495.029,362.215L495.029,370.395C495.029,371.174 495.247,371.443 496.074,371.463C496.181,371.466 496.3,371.467 496.43,371.467L500.508,371.467C501.052,371.467 501.496,371.451 501.842,371.421C502.903,371.329 503.27,370.699 503.512,369.685C503.881,370.088 504.759,370.615 505.21,370.636C504.93,371.699 504.496,372.261 504.124,372.589C503.728,372.937 503.311,373.07 502.786,373.155C502.356,373.224 501.816,373.263 501.158,373.263L495.877,373.263C495.576,373.263 495.253,373.262 494.933,373.237C494.443,373.2 493.888,373.109 493.479,372.818C492.998,372.476 492.759,371.914 492.746,371.273L492.744,371.273L492.744,362.82L491.412,363.174L491.412,361.467L492.744,361.114L492.744,356.844L495.029,356.844L495.029,360.508L497.193,359.934L497.193,355.27L499.478,355.27L499.478,359.328L504.025,358.122L504.025,359.103L504.03,359.103ZM489.69,355.968L489.69,359.574L491.676,359.574L491.676,359.598L491.685,359.598L491.685,361.158L489.69,361.158L489.69,369.386L491.926,368.809L491.926,370.625L484.963,372.423L484.963,370.607L487.405,369.976L487.405,361.158L484.904,361.158L484.904,359.598L484.964,359.598L484.964,359.574L487.405,359.574L487.405,355.968L487.537,355.968L487.537,355.958L489.591,355.958L489.591,355.968L489.69,355.968ZM475.106,360.227L475.106,362.257L482.069,362.257L482.069,363.761L475.106,363.761L475.106,366.181L481.548,366.181L481.548,373.089L481.547,373.089L481.547,373.11L468.187,373.11L468.187,366.243L468.205,366.243L468.205,366.181L472.821,366.181L472.821,360.227L475.106,360.227ZM479.263,371.526L479.263,367.745L470.491,367.745L470.491,371.526L479.263,371.526ZM482.65,357.5L482.725,357.5L482.725,359.003L467.32,359.003L467.32,367.817C467.269,372.123 464.931,373.523 464.931,373.523L463.354,372.029C464.947,370.511 464.998,367.433 464.998,367.433L464.998,357.571L464.999,357.572L464.999,357.493L482.65,357.493L482.65,357.5ZM455.989,363.974L455.989,365.658L458.857,365.658L458.857,363.974L455.989,363.974ZM455.989,367.111L455.989,368.592L458.857,368.592L458.857,367.111L455.989,367.111ZM453.905,368.592L453.905,367.111L451.037,367.111L451.037,368.592L453.905,368.592ZM453.905,365.658L453.905,363.974L451.037,363.974L451.037,365.658L453.905,365.658ZM453.955,360.041L456.261,360.041L456.261,358.342L453.955,358.342L453.955,360.041Z" style="fill:rgb(35,25,22);"/>
            </g>
            <g transform="matrix(1,0,0,1,0,143.675)">
                <path d="M447.461,351.457L446.728,351.457L446.728,349.339L443.857,349.339L443.857,351.457L443.124,351.457L443.124,346.758L443.857,346.758L443.857,348.8L446.728,348.8L446.728,346.758L447.461,346.758L447.461,351.457ZM451.644,351.457L448.593,351.457L448.593,346.758L451.516,346.758L451.516,347.297L449.326,347.297L449.326,348.803L451.355,348.803L451.355,349.339L449.326,349.339L449.326,350.919L451.644,350.919L451.644,351.457ZM457.019,351.457L456.151,351.457L453.297,347.802C453.217,347.698 453.152,347.595 453.103,347.495L453.081,347.495C453.101,347.6 453.111,347.819 453.111,348.154L453.111,351.457L452.385,351.457L452.385,346.758L453.304,346.758L456.081,350.35C456.212,350.52 456.291,350.627 456.316,350.674L456.33,350.674C456.306,350.54 456.294,350.313 456.294,349.989L456.294,346.758L457.019,346.758L457.019,351.457ZM462.441,351.135C461.873,351.402 461.235,351.536 460.521,351.536C459.7,351.536 459.039,351.321 458.538,350.891C458.036,350.462 457.785,349.887 457.785,349.17C457.785,348.444 458.063,347.847 458.616,347.379C459.17,346.912 459.882,346.679 460.748,346.679C461.361,346.679 461.88,346.76 462.305,346.921L462.305,347.577C461.851,347.34 461.309,347.222 460.682,347.222C460.064,347.222 459.555,347.397 459.155,347.747C458.754,348.097 458.554,348.558 458.554,349.13C458.554,349.718 458.739,350.177 459.108,350.504C459.477,350.832 459.974,350.996 460.602,350.996C461.034,350.996 461.402,350.927 461.705,350.789L461.705,349.519L460.473,349.519L460.473,348.981L462.441,348.981L462.441,351.135ZM463.397,351.457L463.397,346.758L465.016,346.758C465.875,346.758 466.59,346.965 467.161,347.379C467.731,347.795 468.016,348.35 468.016,349.048C468.016,349.776 467.731,350.359 467.161,350.798C466.59,351.237 465.856,351.457 464.958,351.457L463.397,351.457ZM464.13,347.297L464.13,350.919L464.954,350.919C465.674,350.919 466.237,350.757 466.641,350.432C467.044,350.106 467.247,349.65 467.247,349.063C467.247,348.477 467.039,348.036 466.624,347.741C466.209,347.446 465.663,347.297 464.986,347.297L464.13,347.297ZM470.056,347.27L469.511,347.27L469.511,350.944L470.056,350.944L470.056,351.457L468.232,351.457L468.232,350.944L468.778,350.944L468.778,347.27L468.232,347.27L468.232,346.758L470.056,346.758L470.056,347.27ZM475.108,351.457L474.299,351.457L473.72,350.171L471.357,350.171L470.812,351.457L470.002,351.457L472.164,346.758L472.948,346.758L475.108,351.457ZM473.493,349.64L472.636,347.686C472.609,347.624 472.58,347.514 472.549,347.359L472.53,347.359C472.502,347.5 472.472,347.609 472.439,347.686L471.588,349.64L473.493,349.64ZM480.23,351.457L479.363,351.457L476.508,347.802C476.428,347.698 476.363,347.595 476.314,347.495L476.293,347.495C476.312,347.6 476.322,347.819 476.322,348.154L476.322,351.457L475.597,351.457L475.597,346.758L476.516,346.758L479.292,350.35C479.424,350.52 479.503,350.627 479.527,350.674L479.541,350.674C479.517,350.54 479.505,350.313 479.505,349.989L479.505,346.758L480.23,346.758L480.23,351.457ZM488.057,351.457L487.193,351.457L486.252,350.152C486.064,349.891 485.891,349.714 485.735,349.62C485.579,349.526 485.393,349.479 485.175,349.479L484.648,349.479L484.648,351.457L483.915,351.457L483.915,346.758L485.644,346.758C486.195,346.758 486.628,346.868 486.941,347.088C487.253,347.309 487.409,347.617 487.409,348.014C487.409,348.665 486.99,349.088 486.149,349.281L486.149,349.297C486.306,349.352 486.441,349.429 486.555,349.531C486.668,349.631 486.814,349.804 486.995,350.05L488.057,351.457ZM484.648,347.289L484.648,348.948L485.512,348.948C485.847,348.948 486.118,348.867 486.327,348.706C486.535,348.544 486.64,348.331 486.64,348.069C486.64,347.823 486.544,347.633 486.354,347.495C486.164,347.357 485.887,347.289 485.523,347.289L484.648,347.289ZM491.53,351.457L488.479,351.457L488.479,346.758L491.403,346.758L491.403,347.297L489.212,347.297L489.212,348.803L491.241,348.803L491.241,349.339L489.212,349.339L489.212,350.919L491.53,350.919L491.53,351.457ZM496.768,351.457L495.96,351.457L495.381,350.171L493.018,350.171L492.473,351.457L491.662,351.457L493.824,346.758L494.608,346.758L496.768,351.457ZM495.153,349.64L494.297,347.686C494.269,347.624 494.24,347.514 494.209,347.359L494.19,347.359C494.163,347.5 494.133,347.609 494.099,347.686L493.249,349.64L495.153,349.64ZM500.25,351.457L497.257,351.457L497.257,346.758L497.99,346.758L497.99,350.919L500.25,350.919L500.25,351.457ZM506.377,351.457L503.326,351.457L503.326,346.758L506.249,346.758L506.249,347.297L504.059,347.297L504.059,348.803L506.088,348.803L506.088,349.339L504.059,349.339L504.059,350.919L506.377,350.919L506.377,351.457ZM506.854,350.574C507.028,350.7 507.259,350.802 507.551,350.883C507.841,350.964 508.117,351.005 508.378,351.005C509.174,351.005 509.573,350.77 509.573,350.301C509.573,350.17 509.53,350.052 509.444,349.946C509.359,349.84 509.241,349.748 509.092,349.667C508.944,349.586 508.664,349.462 508.254,349.294C507.685,349.06 507.309,348.841 507.129,348.64C506.948,348.439 506.858,348.209 506.858,347.95C506.858,347.559 507.047,347.25 507.426,347.022C507.804,346.793 508.282,346.679 508.859,346.679C509.422,346.679 509.836,346.735 510.1,346.849L510.1,347.51C509.757,347.314 509.326,347.216 508.804,347.216C508.456,347.216 508.173,347.276 507.955,347.397C507.737,347.517 507.627,347.684 507.627,347.898C507.627,348.089 507.703,348.243 507.855,348.363C508.006,348.482 508.335,348.645 508.84,348.85C509.396,349.071 509.786,349.292 510.008,349.512C510.23,349.733 510.341,349.98 510.341,350.256C510.341,350.668 510.161,350.985 509.799,351.205C509.437,351.426 508.936,351.536 508.294,351.536C508.07,351.536 507.807,351.51 507.508,351.458C507.209,351.407 506.991,351.343 506.854,351.265L506.854,350.574ZM514.543,347.297L512.907,347.297L512.907,351.457L512.17,351.457L512.17,347.297L510.54,347.297L510.54,346.758L514.543,346.758L514.543,347.297ZM518.932,351.457L518.122,351.457L517.544,350.171L515.181,350.171L514.635,351.457L513.825,351.457L515.987,346.758L516.771,346.758L518.932,351.457ZM517.316,349.64L516.46,347.686C516.432,347.624 516.403,347.514 516.372,347.359L516.353,347.359C516.326,347.5 516.296,347.609 516.262,347.686L515.412,349.64L517.316,349.64ZM522.266,347.297L520.629,347.297L520.629,351.457L519.893,351.457L519.893,347.297L518.262,347.297L518.262,346.758L522.266,346.758L522.266,347.297ZM525.855,351.457L522.804,351.457L522.804,346.758L525.727,346.758L525.727,347.297L523.537,347.297L523.537,348.803L525.566,348.803L525.566,349.339L523.537,349.339L523.537,350.919L525.855,350.919L525.855,351.457Z" style="fill:rgb(35,25,22);"/>
            </g>
            <g transform="matrix(1,0,0,1,0,97.1836)">
                <path d="M475.204,373.656L472.847,373.656C472.988,373.293 472.929,371.828 472.293,371.05C472.991,371.188 473.954,371.354 475.015,371.354C475.081,371.354 475.146,371.354 475.21,371.353L475.204,373.656Z" style="fill:rgb(35,25,22);"/>
            </g>
            <g transform="matrix(1,0,0,1,0,97.1836)">
                <path d="M518.656,373.656L516.3,373.656C516.44,373.293 516.381,371.828 515.746,371.05C516.443,371.188 517.406,371.354 518.467,371.354C518.533,371.354 518.598,371.354 518.662,371.353L518.656,373.656Z" style="fill:rgb(35,25,22);"/>
            </g>
        </g>
    </g>
</svg>
